<?xml version="1.0" encoding="UTF-8" standalone="no"?>
<svg
   xmlns:dc="http://purl.org/dc/elements/1.1/"
   xmlns:cc="http://creativecommons.org/ns#"
   xmlns:rdf="http://www.w3.org/1999/02/22-rdf-syntax-ns#"
   xmlns:svg="http://www.w3.org/2000/svg"
   xmlns="http://www.w3.org/2000/svg"
   xmlns:sodipodi="http://sodipodi.sourceforge.net/DTD/sodipodi-0.dtd"
   xmlns:inkscape="http://www.inkscape.org/namespaces/inkscape"
   viewBox="0 0 222 211.49055"
   fill="none"
   version="1.1"
   id="svg248"
   sodipodi:docname="ghat.svg"
   inkscape:version="1.0.2-2 (e86c870879, 2021-01-15)">
  <sodipodi:namedview
     pagecolor="#ffffff"
     bordercolor="#666666"
     borderopacity="1"
     objecttolerance="10"
     gridtolerance="10"
     guidetolerance="10"
     inkscape:pageopacity="0"
     inkscape:pageshadow="2"
     inkscape:window-width="1920"
     inkscape:window-height="1020"
     id="namedview128"
     showgrid="false"
     inkscape:zoom="2.4574312"
     inkscape:cx="5.5987309"
     inkscape:cy="94.084056"
     inkscape:window-x="-8"
     inkscape:window-y="-8"
     inkscape:window-maximized="1"
     inkscape:current-layer="svg248" />
  <metadata
     id="metadata254">
    <rdf:RDF>
      <cc:Work
         rdf:about="">
        <dc:format>image/svg+xml</dc:format>
        <dc:type
           rdf:resource="http://purl.org/dc/dcmitype/StillImage" />
        <dc:title></dc:title>
      </cc:Work>
    </rdf:RDF>
  </metadata>
  <defs
     id="defs252" />
  <path
     opacity="0.3"
     d="m 16.1012,116.256 c 11.2815,3.633 25.7091,4.936 34.0339,9.849 10.8723,6.414 2.2,12.309 5.8519,19.855 3.652,7.545 35.0635,7.685 50.301,17.732 13.64,8.974 4.4,17.155 15.633,24.101 10.674,6.581 33.338,5.409 43.291,9.786 -32.093,11.426 -72.2343,11.863 -104.9526,1.32 C 43.2227,193.197 28.5795,185.346 17.9888,173.897 1.51964,156.025 0.88604,134.407 16.1012,116.256 Z"
     fill="#24b7db"
     id="path4" />
  <path
     opacity="0.5"
     d="M 51.2307,195.627 C 41.1913,191.723 31.8314,186.188 23.5108,179.234 4.318044,162.642 0.16006,141.791 11.04562,123.342 c 4.93238,1.163 10.41478,2.438 16.44718,4.345 16.2403,5.138 12.2759,10.795 11.2287,17.128 -1.276,7.739 4.9148,12.765 23.7863,16.051 17.204,2.997 28.3799,5.107 34.2319,12.494 4.664,5.892 0.9988,12.477 12.0693,20.333 9.24,6.563 24.103,6.054 35.803,9.493 -30.897,6.189 -65.6526,3.66 -93.3813,-7.559 z"
     fill="#24b7db"
     id="path6" />
  <path
     d="M 36.0859,188.194 C 10.36802,172.982 0.68365,151.883 7.04603,132.235 c 7.74397,1.776 14.30437,3.502 16.80357,6.531 6.8595,8.307 -8.7692,16.678 8.9495,24.629 19.5228,8.744 45.5663,7.094 50.4854,16.713 6.0368,11.805 1.8568,20.446 22.7655,26.323 -25.4538,-0.689 -50.5469,-6.752 -69.9641,-18.237 z"
     fill="#24b7db"
     id="path8" />
  <path
     d="m 102.2,127.525 64.108,37.911 c 0.59,0.307 1.243,0.467 1.905,0.467 0.662,0 1.315,-0.16 1.905,-0.467 L 205.6,144.441 c 1.051,-0.622 1.051,-1.632 0,-2.254 l -64.108,-37.9161 c -0.591,-0.3069 -1.243,-0.4668 -1.905,-0.4668 -0.662,0 -1.315,0.1599 -1.906,0.4668 L 102.2,125.271 c -1.0736,0.622 -1.0736,1.627 0,2.254 z"
     fill="#e0e0e0"
     id="path26" />
  <path
     opacity="0.15"
     d="m 96.9641,147.538 c 0.5324,0 1.32,-0.717 1.6368,-1.1 0.7876,-0.902 1.5883,-1.88 1.8479,-2.195 0.44,0.081 1.9008,0.365 3.4496,0.793 l 0.3696,0.104 c 0.3953,0.134 0.804,0.222 1.219,0.261 0.094,0.012 0.189,-0.004 0.275,-0.045 0.086,-0.042 0.158,-0.107 0.209,-0.189 0.123,-0.226 0.039,-0.555 -0.282,-1.087 -0.669,-1.117 -2.0986,-1.96 -2.7982,-2.325 0.6831,-0.372 1.3885,-0.699 2.1122,-0.979 0.33,-0.117 0.765,-0.32 0.757,-0.685 0,-0.18 -0.119,-0.45 -0.669,-0.608 -0.546,-0.135 -1.1063,-0.199 -1.6678,-0.189 -0.2332,0 -0.44,0 -0.6688,0.027 -0.9859,0.058 -1.9597,0.252 -2.8952,0.577 -0.9846,-0.748 -2.1409,-1.223 -3.3571,-1.38 -0.2699,-0.027 -0.5119,-0.04 -0.726,-0.04 -0.5456,0 -0.8492,0.085 -0.9768,0.279 -0.0342,0.055 -0.0548,0.117 -0.0602,0.181 -0.0054,0.064 0.0047,0.129 0.0294,0.189 0.1795,0.311 0.4302,0.572 0.7304,0.761 0.4476,0.33 0.8553,0.713 1.2144,1.141 l -0.33,0.122 c -1.0131,0.352 -1.9949,0.792 -2.9348,1.316 -0.7744,0.45 -1.0912,0.829 -0.9988,1.19 0.1144,0.45 0.792,0.527 1.32,0.527 h 0.6864 c 0.8536,0 1.9756,0.023 2.4904,0.036 -0.0968,0.415 -0.2904,1.258 -0.484,2.394 -0.0384,0.127 -0.0488,0.261 -0.0305,0.393 0.0182,0.131 0.0647,0.257 0.1361,0.368 0.0486,0.058 0.1099,0.102 0.1788,0.13 0.0689,0.029 0.1433,0.04 0.2172,0.033 z"
     fill="#000000"
     id="path28" />
  <path
     d="m 102.3936,141.078 c 0.8161,-0.463 1.663,-0.866 2.5344,-1.208 0.92,-0.333 0.664,-0.671 0.097,-0.856 -0.7371,-0.172 -1.4959,-0.224 -2.2486,-0.153 -2.1516,0.203 -2.948,0.613 -2.948,0.613 -0.9765,-0.763 -2.1308,-1.251 -3.3483,-1.416 -0.7128,-0.072 -1.65,-0.085 -1.5048,0.293 0.1892,0.478 1.2276,0.879 2.0944,2.083 -1.2078,0.429 -2.3841,0.945 -3.52,1.546 -1.5708,0.901 -0.836,1.312 0.33,1.289 1.0736,0 3.3704,0.036 3.3704,0.036 0,0 -0.2728,1.01 -0.5544,2.655 -0.22,1.303 1.0604,0.401 1.7292,-0.361 0.9591,-1.09 1.9227,-2.294 1.9227,-2.294 0,0 1.7336,0.307 3.5992,0.82 1.3202,0.365 2.3892,0.789 1.5442,-0.613 -0.8446,-1.401 -3.0974,-2.434 -3.0974,-2.434 z"
     fill="#f28f8f"
     id="path30" />
  <path
     d="m 98.3677,144.986 c 0.4972,-0.586 1.76,-2.447 1.76,-2.447 0,0 3.5683,1.018 4.4615,1.284 0.8928,0.266 1.1528,0.163 1.0518,-0.058 0.563,1.091 -0.44,0.703 -1.6854,0.36 -1.8655,-0.513 -3.5991,-0.82 -3.5991,-0.82 0,0 -0.9636,1.204 -1.9228,2.294 -0.4972,0.564 -1.32,1.208 -1.6368,0.965 0.528,-0.032 1.0736,-0.992 1.5708,-1.578 z"
     fill="#b16668"
     id="path32" />
  <path
     d="m 92.6785,142.931 c 0.2992,0.198 0.726,0.122 1.8392,0 1.1132,-0.122 2.9128,-0.383 2.9128,-0.383 l -0.1716,0.766 c 0,0 -2.2968,-0.059 -3.3704,-0.036 -0.6204,0 -1.1176,-0.104 -1.21,-0.347 z"
     fill="#b16668"
     id="path34" />
  <path
     d="m 105.28,139.104 c 0.374,0.18 0.44,0.482 -0.33,0.766 -0.8714,0.342 -1.7183,0.745 -2.5344,1.208 l -0.7348,-0.378 c 0,0 1.034,-0.451 2.0724,-0.794 0.924,-0.306 1.8218,-0.518 1.5268,-0.802 z"
     fill="#b16668"
     id="path36" />
  <path
     d="m 97.0697,140.435 c -0.88,-1.203 -1.9052,-1.604 -2.0944,-2.082 -0.0172,-0.037 -0.0199,-0.079 -0.0076,-0.118 0.0123,-0.038 0.0386,-0.07 0.0736,-0.09 v 0 c 0,0 -0.1496,0.194 0.6864,0.564 0.6348,0.335 1.2103,0.777 1.7028,1.307 0.2024,0.261 -0.3608,0.419 -0.3608,0.419 z"
     fill="#b16668"
     id="path38" />
  <path
     opacity="0.15"
     d="m 136.52,182.939 c -0.533,0 -1.32,-0.722 -1.637,-1.1 -0.787,-0.902 -1.593,-1.88 -1.848,-2.195 -0.44,0.081 -1.905,0.365 -3.449,0.788 l -0.37,0.104 c -0.396,0.138 -0.807,0.227 -1.223,0.266 -0.094,0.01 -0.188,-0.006 -0.273,-0.047 -0.084,-0.042 -0.156,-0.107 -0.207,-0.187 -0.127,-0.23 -0.044,-0.555 0.282,-1.087 0.669,-1.117 2.094,-1.96 2.798,-2.325 -0.682,-0.375 -1.387,-0.702 -2.112,-0.979 -0.33,-0.121 -0.765,-0.32 -0.761,-0.685 0,-0.18 0.123,-0.45 0.673,-0.608 0.546,-0.135 1.106,-0.199 1.668,-0.189 0.229,0 0.44,0 0.664,0.027 0.986,0.057 1.96,0.251 2.895,0.576 0.988,-0.746 2.145,-1.223 3.362,-1.383 0.264,-0.023 0.51,-0.036 0.721,-0.036 0.55,0 0.85,0.085 0.977,0.279 0.036,0.053 0.058,0.114 0.064,0.178 0.005,0.065 -0.006,0.129 -0.033,0.187 -0.176,0.315 -0.428,0.578 -0.73,0.766 -0.446,0.328 -0.853,0.71 -1.21,1.136 l 0.33,0.127 c 1.013,0.35 1.995,0.79 2.934,1.316 0.775,0.45 1.092,0.829 0.999,1.19 -0.114,0.45 -0.792,0.527 -1.32,0.527 h -0.73 c -0.854,0 -1.976,0.023 -2.495,0.036 0.101,0.41 0.295,1.258 0.488,2.394 0.036,0.126 0.046,0.259 0.027,0.39 -0.018,0.13 -0.063,0.256 -0.132,0.367 -0.044,0.051 -0.098,0.093 -0.159,0.122 -0.06,0.028 -0.126,0.044 -0.193,0.045 z"
     fill="#000000"
     id="path40" />
  <path
     d="m 131.069,176.48 c -0.816,-0.463 -1.663,-0.867 -2.534,-1.208 -0.924,-0.334 -0.669,-0.672 -0.097,-0.857 0.737,-0.174 1.496,-0.226 2.249,-0.153 2.151,0.203 2.948,0.609 2.948,0.609 0.976,-0.763 2.13,-1.251 3.348,-1.416 0.713,-0.067 1.65,-0.081 1.5,0.298 -0.184,0.477 -1.223,0.874 -2.09,2.082 1.208,0.429 2.384,0.946 3.52,1.546 1.576,0.902 0.841,1.312 -0.33,1.285 -1.073,-0.023 -3.366,0.04 -3.366,0.04 0,0 0.273,1.01 0.55,2.655 0.225,1.303 -1.056,0.401 -1.724,-0.365 -0.96,-1.086 -1.928,-2.29 -1.928,-2.29 0,0 -1.729,0.302 -3.594,0.816 -1.32,0.37 -2.39,0.793 -1.545,-0.608 0.845,-1.402 3.093,-2.434 3.093,-2.434 z"
     fill="#f28f8f"
     id="path42" />
  <path
     d="m 135.094,180.388 c -0.497,-0.586 -1.76,-2.448 -1.76,-2.448 0,0 -3.568,1.019 -4.461,1.285 -0.893,0.266 -1.153,0.162 -1.052,-0.059 -0.563,1.091 0.44,0.703 1.685,0.356 1.866,-0.514 3.595,-0.816 3.595,-0.816 0,0 0.968,1.204 1.927,2.29 0.498,0.568 1.32,1.212 1.637,0.969 -0.528,-0.031 -1.073,-0.992 -1.571,-1.577 z"
     fill="#b16668"
     id="path44" />
  <path
     d="m 140.784,178.332 c -0.3,0.199 -0.726,0.122 -1.84,0 -1.113,-0.122 -2.912,-0.383 -2.912,-0.383 l 0.171,0.766 c 0,0 2.293,-0.063 3.366,-0.04 0.625,0.022 1.118,-0.099 1.215,-0.343 z"
     fill="#b16668"
     id="path46" />
  <path
     d="m 128.204,174.505 c -0.374,0.181 -0.44,0.483 0.33,0.767 0.871,0.341 1.718,0.744 2.534,1.207 l 0.735,-0.378 c 0,0 -1.038,-0.451 -2.072,-0.793 -0.951,-0.307 -1.844,-0.523 -1.527,-0.803 z"
     fill="#b16668"
     id="path48" />
  <path
     d="m 136.392,175.836 c 0.88,-1.208 1.906,-1.604 2.09,-2.082 0.009,-0.018 0.015,-0.038 0.017,-0.058 0.001,-0.02 -0.001,-0.041 -0.007,-0.06 -0.007,-0.019 -0.016,-0.037 -0.029,-0.052 -0.013,-0.016 -0.029,-0.028 -0.047,-0.037 0,0 0.154,0.193 -0.682,0.563 -0.635,0.334 -1.211,0.776 -1.702,1.307 -0.207,0.262 0.36,0.419 0.36,0.419 z"
     fill="#b16668"
     id="path50" />
  <path
     opacity="0.15"
     d="m 68.3202,144.517 c 0.073,0.024 0.1503,0.031 0.2263,0.021 0.0761,-0.01 0.149,-0.037 0.2137,-0.079 0.3256,-0.198 0.6424,-0.969 0.9416,-2.29 1.9508,1.098 3.9913,2.019 6.0983,2.754 1.1924,0.37 2.0856,0.491 2.7324,0.361 0.4376,-0.061 0.8562,-0.221 1.2255,-0.469 0.3692,-0.248 0.6796,-0.578 0.9085,-0.965 0.4884,-0.874 0.5456,-2.105 0.1628,-3.421 0.44,-0.45 1.1792,-1.537 0.4752,-3.79 -0.1939,-0.682 -0.553,-1.301 -1.0439,-1.802 -0.4909,-0.5 -1.0975,-0.865 -1.7633,-1.061 -0.2398,-0.076 -0.4857,-0.13 -0.7348,-0.162 -0.22,-0.59 -0.88,-1.803 -2.8644,-2.407 -0.3043,-0.095 -0.6144,-0.168 -0.9284,-0.221 -0.3942,-0.06 -0.7963,-0.035 -1.1805,0.074 -0.3842,0.109 -0.742,0.298 -1.0502,0.557 -1.76,1.325 -3.1724,4.508 -3.6476,7.077 -0.4535,-0.247 -0.9277,-0.452 -1.4168,-0.613 -0.4802,-0.192 -1.0084,-0.219 -1.5048,-0.077 -0.1176,0.044 -0.221,0.12 -0.2988,0.22 -0.0777,0.101 -0.1266,0.221 -0.1412,0.348 -0.0748,0.721 1.232,1.776 2.4068,2.569 0.1452,0.812 0.5236,2.705 0.9504,3.196 0.0604,0.081 0.141,0.143 0.2332,0.18 z"
     fill="#000000"
     id="path52" />
  <path
     d="m 69.2398,140.52 c 0,0 6.5999,3.831 9.0287,3.358 2.4288,-0.474 2.486,-2.782 1.8744,-4.575 0,0 1.4168,-0.78 0.5676,-3.503 -0.2308,-0.766 -0.6868,-1.441 -1.3057,-1.932 -0.6189,-0.491 -1.3706,-0.775 -2.1527,-0.813 0,0 -0.33,-2.037 -3.5199,-2.61 -2.6752,-0.477 -5.0468,4.598 -5.4824,7.965 0,0 -2.1384,-1.352 -3.08,-0.965 -0.9416,0.388 2.2,2.457 2.2,2.457 0,0 0.4664,2.682 0.88,3.155 0.4136,0.474 0.99,-2.537 0.99,-2.537 z"
     fill="#24b7db"
     id="path54" />
  <path
     opacity="0.8"
     d="m 69.2398,140.52 c 0,0 6.5999,3.831 9.0287,3.358 2.4288,-0.474 2.486,-2.782 1.8744,-4.575 0,0 1.4168,-0.78 0.5676,-3.503 -0.2308,-0.766 -0.6868,-1.441 -1.3057,-1.932 -0.6189,-0.491 -1.3706,-0.775 -2.1527,-0.813 0,0 -0.33,-2.037 -3.5199,-2.61 -2.6752,-0.477 -5.0468,4.598 -5.4824,7.965 0,0 -2.1384,-1.352 -3.08,-0.965 -0.9416,0.388 2.2,2.457 2.2,2.457 0,0 0.4664,2.682 0.88,3.155 0.4136,0.474 0.99,-2.537 0.99,-2.537 z"
     fill="#fafafa"
     id="path56" />
  <path
     opacity="0.1"
     d="m 75.8662,142.728 c 2.7851,0.564 4.1007,-0.243 4.5627,-1.086 -0.0513,0.573 -0.2944,1.11 -0.6881,1.521 -0.3937,0.411 -0.9138,0.669 -1.4723,0.733 -2.4155,0.473 -9.0287,-3.358 -9.0287,-3.358 0,0 -0.2068,1.018 -0.44,1.78 0.1519,-0.766 0.2037,-1.55 0.154,-2.33 0,0 3.7224,2.096 6.9124,2.74 z"
     fill="#000000"
     id="path58" />
  <path
     opacity="0.1"
     d="m 80.1429,139.302 c 0,0 -2.6091,-1.401 -7.2071,-0.392 1.647,-0.686 3.4207,-0.993 5.1964,-0.901 3.0227,0.126 2.5783,-2.2 2.5783,-2.2 0.8492,2.714 -0.5676,3.493 -0.5676,3.493 z"
     fill="#000000"
     id="path60" />
  <path
     opacity="0.1"
     d="m 70.4542,136.78 c 2.75,-3.467 5.2184,-3.962 5.0732,-4.742 -0.2068,-1.141 -1.8128,-1.582 -1.8128,-1.582 3.2075,0.572 3.5199,2.609 3.5199,2.609 -3.8631,0.388 -6.7803,3.715 -6.7803,3.715 z"
     fill="#000000"
     id="path62" />
  <path
     d="m 164.68,44.1423 2.64,1.5641 c -0.014,-0.1182 -0.021,-0.2371 -0.022,-0.3561 V 44.566 c 0,-1.3973 0.959,-1.9607 2.138,-1.2621 0.508,0.3178 0.942,0.7455 1.272,1.2531 0.193,-1.7534 1.535,-2.4069 3.168,-1.4424 0.931,0.6196 1.705,1.4558 2.26,2.4405 0.555,0.9846 0.875,2.0898 0.934,3.2253 v 1.1719 c 0.01,0.4661 -0.083,0.9284 -0.273,1.3522 l 2.2,1.2982 c 0.344,0.2315 0.629,0.542 0.835,0.9066 0.205,0.3647 0.325,0.7735 0.349,1.1938 0,0.7753 -0.532,1.0908 -1.184,0.7031 L 164.68,46.9459 c -0.347,-0.2328 -0.635,-0.5459 -0.841,-0.914 -0.206,-0.368 -0.325,-0.7806 -0.347,-1.2045 0,-0.7572 0.532,-1.0682 1.188,-0.6851 z"
     fill="#EBEBEB"
     id="path64"
     style="fill:#ffffff;fill-opacity:1" />
  <path
     d="m 182.135,36.9574 1.456,0.577 V 34.244 c 0,-2.6053 2.028,-3.2318 4.233,-1.9247 2.2,1.3027 3.986,4.4714 3.986,7.0766 v 0.4733 c 0.31,-0.0995 0.638,-0.1248 0.96,-0.074 0.321,0.0508 0.626,0.1764 0.893,0.367 v 0 c 0.835,0.5583 1.53,1.3104 2.028,2.1953 0.499,0.885 0.787,1.8779 0.84,2.8981 v 0.2163 l 2.029,1.2035 c 0.55,0.3679 1.007,0.8631 1.336,1.4457 0.329,0.5825 0.519,1.236 0.556,1.9078 0,1.2351 -0.849,1.7399 -1.892,1.1224 l -16.43,-9.7225 c -0.551,-0.3668 -1.009,-0.8618 -1.338,-1.4445 -0.329,-0.5828 -0.519,-1.2369 -0.554,-1.909 0.005,-1.2351 0.849,-1.7354 1.897,-1.1179 z"
     fill="#EBEBEB"
     id="path66"
     style="fill:#ffffff;fill-opacity:1" />
  <path
     d="m 163.237,32.197838 c 4.138,1.972937 7.493,0.135951 7.493,-4.103449 0,-4.2393 -3.355,-9.275614 -7.493,-11.248551 -4.139,-1.973413 -7.494,-0.136327 -7.494,4.102973 0,4.2394 3.355,9.275614 7.494,11.249027 z"
     fill="#f0997a"
     id="path68" />
  <path
     d="M 80.2001,108.296 C 81.4937,90.8119 81.5861,77.9793 76.1038,59.7514 71.673,45.0257 61.2758,30.9401 52.7354,24.4855 l -2.596,1.0682 c 8.9848,7.897 17.7496,19.3143 21.6172,36.208 2.9084,12.7154 2.7676,26.8416 -1.0384,45.5743 z"
     fill="#b16668"
     id="path70" />
  <path
     d="m 71.9282,109.432 c -1.76,-1.285 -1.5708,-3.061 0.3872,-3.967 1.0915,-0.434 2.2676,-0.5978 3.4327,-0.4787 1.1652,0.1187 2.2865,0.5177 3.2728,1.1647 1.76,1.284 1.5708,3.06 -0.3872,3.966 -1.0916,0.434 -2.2676,0.598 -3.4327,0.479 -1.1651,-0.119 -2.2863,-0.518 -3.2728,-1.164 z"
     fill="#b16668"
     id="path72" />
  <path
     d="M 52.7486,24.4856 C 50.9314,22.606 51.8686,22.7908 49.2638,20.6363 45.3391,17.3684 38.1935,16.0613 31.9323,16.8816 20.9015,18.3646 10.24038,23.6111 5,34.0096 c 4.62438,-3.6059 10.12,-4.1467 15.7299,-3.5608 1.628,-2.2266 3.2516,-4.4397 4.9764,-6.5943 -0.1804,2.3213 -0.3872,4.6291 -0.6644,6.9414 2.6136,0.3921 5.1128,-0.1217 7.6692,-0.6941 1.76,-2.7766 3.6872,-5.4089 5.6936,-8.0096 -0.8052,2.4024 -1.5972,4.8048 -2.3188,7.2388 5.6672,-1.0051 11.4267,-2.2898 16.6627,-4.8454 z"
     fill="#24b7db"
     id="path74" />
  <g
     opacity="0.15"
     id="g78"
     transform="translate(5,5)">
    <path
       opacity="0.15"
       d="M 47.7486,19.4856 C 45.9314,17.606 46.8686,17.7908 44.2638,15.6363 40.3391,12.3684 33.1935,11.0613 26.9323,11.8816 15.9015,13.3646 5.24038,18.6111 0,29.0096 c 4.62438,-3.6059 10.12,-4.1467 15.7299,-3.5608 1.628,-2.2266 3.2516,-4.4397 4.9764,-6.5943 -0.1804,2.3213 -0.3872,4.6291 -0.6644,6.9414 2.6136,0.3921 5.1128,-0.1217 7.6692,-0.6941 1.76,-2.7766 3.6872,-5.4089 5.6936,-8.0096 -0.8052,2.4024 -1.5972,4.8048 -2.3188,7.2388 5.6672,-1.0051 11.4267,-2.2898 16.6627,-4.8454 z"
       fill="#000000"
       id="path76" />
  </g>
  <path
     d="m 51.103,25.2698 c 0,0 -0.8536,-3.5338 4.1976,-9.1004 7.92,-8.73085 18.9992,-11.1828666 24.7015,-11.1693445 5.7024,0.013522 13.9568,1.8705645 17.9608,5.8280545 0,0 -6.16,-1.0367 -13.7016,2.25369 0,0 -5.0688,-2.92529 -10.8283,-3.50675 0,0 5.8123,3.48872 7.0399,5.20153 0,0 -3.4936,3.42562 -9.6799,4.40372 0,0 -4.3208,-4.95813 -9.1432,-4.877 0,0 4.4,1.6227 6.292,5.9633 -5.4331,2.2475 -11.075,3.9238 -16.8388,5.0032 z"
     fill="#24b7db"
     id="path80" />
  <path
     opacity="0.2"
     d="m 51.103,25.2698 c 0,0 -0.8536,-3.5338 4.1976,-9.1004 7.92,-8.73085 18.9992,-11.1828666 24.7015,-11.1693445 5.7024,0.013522 13.9568,1.8705645 17.9608,5.8280545 0,0 -6.16,-1.0367 -13.7016,2.25369 0,0 -5.0688,-2.92529 -10.8283,-3.50675 0,0 5.8123,3.48872 7.0399,5.20153 0,0 -3.4936,3.42562 -9.6799,4.40372 0,0 -4.3208,-4.95813 -9.1432,-4.877 0,0 4.4,1.6227 6.292,5.9633 -5.4331,2.2475 -11.075,3.9238 -16.8388,5.0032 z"
     fill="#000000"
     id="path82" />
  <path
     d="m 51.103,25.2699 c 0,0 8.36,-5.1654 19.8,-3.5698 14.9115,2.0869 23.3551,9.5555 26.4351,16.1362 0,0 -6.3844,-5.2465 -16.2228,-2.9568 l -5.3548,-6.4365 0.5148,7.0495 c -2.09,0.3786 -4.8399,0 -8.1003,-0.9015 l -5.2492,-8.5639 1.6324,7.4641 c 0,0 -8.8792,-2.2807 -13.4552,-8.2213 z"
     fill="#24b7db"
     id="path84" />
  <path
     opacity="0.05"
     d="m 51.103,25.2699 c 0,0 8.36,-5.1654 19.8,-3.5698 14.9115,2.0869 23.3551,9.5555 26.4351,16.1362 0,0 -6.3844,-5.2465 -16.2228,-2.9568 l -5.3548,-6.4365 0.5148,7.0495 c -2.09,0.3786 -4.8399,0 -8.1003,-0.9015 l -5.2492,-8.5639 1.6324,7.4641 c 0,0 -8.8792,-2.2807 -13.4552,-8.2213 z"
     fill="#000000"
     id="path86" />
  <path
     d="m 51.103,25.2699 c 0,0 -2.64,-0.9015 -8.0299,1.3522 -9.1344,3.8223 -16.4604,14.311 -18.3524,19.7289 -1.892,5.4178 -2.9656,13.8782 -0.7172,19.0031 0,0 1.1176,-6.1931 6.6,-12.2601 0,0 -0.9548,-5.792 0.44,-11.4578 0,0 1.2188,6.689 2.3584,8.4334 0,0 4.2636,-2.1771 7.2204,-7.7438 0,0 -3.0316,-5.7559 -1.3596,-10.3084 0,0 0,4.7283 3.2912,7.9601 0.0088,-0.018 4.2723,-6.9234 8.5491,-14.7076 z"
     fill="#24b7db"
     id="path88" />
  <path
     opacity="0.05"
     d="m 51.103,25.2699 c 0,0 -2.64,-0.9015 -8.0299,1.3522 -9.1344,3.8223 -16.4604,14.311 -18.3524,19.7289 -1.892,5.4178 -2.9656,13.8782 -0.7172,19.0031 0,0 1.1176,-6.1931 6.6,-12.2601 0,0 -0.9548,-5.792 0.44,-11.4578 0,0 1.2188,6.689 2.3584,8.4334 0,0 4.2636,-2.1771 7.2204,-7.7438 0,0 -3.0316,-5.7559 -1.3596,-10.3084 0,0 0,4.7283 3.2912,7.9601 0.0088,-0.018 4.2723,-6.9234 8.5491,-14.7076 z"
     fill="#000000"
     id="path90" />
  <path
     d="m 61.9446,68.1396 c 0,0 -2.926,-4.6922 -3.2076,-9.8531 -0.0792,-1.4379 -0.0792,-2.9524 -0.0484,-4.5074 -4.9808,-3.5428 -5.4076,-7.2119 -5.4076,-7.2119 1.1616,2.1095 3.9996,3.7547 5.5572,3.9756 0.5544,-3.3851 0.0616,-6.7611 -0.1452,-9.7721 -4.0128,-1.7579 -5.3328,-4.2009 -5.3328,-4.2009 1.3948,1.0593 3.8456,1.6362 5.2404,1.6858 -1.1704,-6.3374 -4.7652,-11.5254 -7.48,-12.9858 0,0 -3.3836,2.2897 -4.0876,14.2028 -0.7436,12.2962 5.4472,24.3174 14.9116,28.667 z"
     fill="#24b7db"
     id="path92" />
  <path
     d="m 62.0986,93.1603 6.16,4.3361 -5.8212,-2.2537 c 0.0464,1.5913 0.4323,3.1529 1.1308,4.575 0,0 3.8412,1.9247 5.9312,3.9485 l -5.1392,-1.6722 c -0.1638,0.9144 -0.111,1.8558 0.154,2.745 0.0308,0.1217 0.066,0.248 0.1056,0.374 0.2684,0.838 0.6512,2.43 1.32,4.314 0.5535,1.649 1.2576,3.241 2.1032,4.755 0.4218,0.743 0.8907,1.456 1.4036,2.136 l 0.0968,0.131 c 0.9533,-0.649 1.9448,-1.283 2.9744,-1.902 0.5983,-1.546 1.2627,-5.314 1.3903,-8.37 C 74.3877,94.5576 65.381,88.5222 58.341,86.7688 c 1.6142,1.8842 2.8868,4.0487 3.7576,6.3915 z"
     fill="#24b7db"
     id="path94" />
  <path
     opacity="0.3"
     d="m 62.0986,93.1603 6.16,4.3361 -5.8212,-2.2537 c 0.0464,1.5913 0.4323,3.1529 1.1308,4.575 0,0 3.8412,1.9247 5.9312,3.9485 l -5.1392,-1.6722 c -0.1638,0.9144 -0.111,1.8558 0.154,2.745 0.0308,0.1217 0.066,0.248 0.1056,0.374 0.2684,0.838 0.6512,2.43 1.32,4.314 0.5535,1.649 1.2576,3.241 2.1032,4.755 0.4218,0.743 0.8907,1.456 1.4036,2.136 l 0.0968,0.131 c 0.9533,-0.649 1.9448,-1.283 2.9744,-1.902 0.5983,-1.546 1.2627,-5.314 1.3903,-8.37 C 74.3877,94.5576 65.381,88.5222 58.341,86.7688 c 1.6142,1.8842 2.8868,4.0487 3.7576,6.3915 z"
     fill="#000000"
     id="path96" />
  <path
     d="m 67.0002,93.3088 c 0.6257,0.5761 1.164,1.2446 1.5972,1.9833 0.4281,0.7404 0.8031,1.5117 1.122,2.3078 0.631,1.5967 1.0898,3.2593 1.3684,4.9581 0.5939,3.388 0.3979,6.873 -0.572,10.169 v 0 c -0.0134,0.042 -0.0099,0.088 0.01,0.128 0.0198,0.04 0.0541,0.07 0.0956,0.084 0.0414,0.013 0.0865,0.01 0.1252,-0.011 0.0388,-0.02 0.0682,-0.055 0.0816,-0.098 0.9385,-3.347 1.0893,-6.875 0.44,-10.2945 -0.3101,-1.7015 -0.7984,-3.3639 -1.4564,-4.9581 -0.3326,-0.7926 -0.7208,-1.5593 -1.1616,-2.2943 -0.4495,-0.7397 -1.0058,-1.4054 -1.65,-1.9743 z"
     fill="#fafafa"
     id="path98" />
  <path
     d="m 94.6761,101.2375 c -0.1892,0.1352 -2.838,1.3522 -7.7264,5.8865 l -5.9532,0.978 4.092,0.794 -3.74,3.565 -5.9883,-0.352 4.2151,1.947 c 0,0 -2.3803,4.057 -6.0147,5.04 -2.0064,0.532 -2.8996,0.45 -3.2912,-0.199 -0.2684,-0.45 0.198,-2.596 0.3872,-4.566 0.1892,-1.969 0.9724,-5.043 3.6828,-8.266 0.7303,-0.861 1.5779,-1.6093 2.5167,-2.2223 5.4428,-3.6149 13.9348,-3.7366 17.82,-2.6052 z"
     fill="#24b7db"
     id="path100" />
  <path
     opacity="0.15"
     d="m 94.6761,101.2375 c -0.1892,0.1352 -2.838,1.3522 -7.7264,5.8865 l -5.9532,0.978 4.092,0.794 -3.74,3.565 -5.9883,-0.352 4.2151,1.947 c 0,0 -2.3803,4.057 -6.0147,5.04 -2.0064,0.532 -2.8996,0.45 -3.2912,-0.199 -0.2684,-0.45 0.198,-2.596 0.3872,-4.566 0.1892,-1.969 0.9724,-5.043 3.6828,-8.266 0.7303,-0.861 1.5779,-1.6093 2.5167,-2.2223 5.4428,-3.6149 13.9348,-3.7366 17.82,-2.6052 z"
     fill="#000000"
     id="path102" />
  <path
     opacity="0.1"
     d="m 74.9861,108.341 c -1.0678,1.369 -1.9404,2.887 -2.5915,4.508 -0.7313,2.064 -1.3425,4.171 -1.8304,6.31 -0.1065,-0.076 -0.1977,-0.173 -0.2684,-0.284 -0.2684,-0.451 0.198,-2.596 0.3872,-4.566 0.1892,-1.97 0.9724,-5.044 3.6828,-8.267 0.7303,-0.86 1.5779,-1.6089 2.5167,-2.2218 5.4252,-3.606 13.9172,-3.7367 17.8024,-2.6053 -6.2524,-0.6446 -13.7588,1.6632 -18.1852,5.5351 -0.5479,0.485 -1.0543,1.017 -1.5136,1.591 z"
     fill="#000000"
     id="path104" />
  <path
     d="m 47.8031,106.349 c 0.4589,-0.2 0.9291,-0.372 1.4079,-0.514 1.8954,-0.545 3.8491,-0.8473 5.8168,-0.9016 0.7304,-0.027 1.474,0 2.2,0.0271 0.374,0 0.748,0.0495 1.1176,0.0905 1.8357,0.175 3.6303,0.661 5.3108,1.438 0.7877,0.38 1.5266,0.858 2.2,1.424 l 0.2596,0.216 c 0.2156,0.199 0.418,0.397 0.616,0.595 1.7764,1.687 3.1044,3.809 3.8588,6.166 0.5896,1.641 0.792,3.71 0.6072,4.143 -0.0254,0.058 -0.0579,0.112 -0.0968,0.162 -0.33,0.482 -1.1132,0.613 -2.7588,0.406 -3.2912,-0.41 -5.896,-3.854 -5.896,-3.854 l 3.4628,-2.213 -5.17,1.032 -3.1856,-2.29 3.3088,-2.164 -5.1612,1.272 c -2.5382,-1.841 -5.1831,-3.522 -7.9199,-5.035 z"
     fill="#24b7db"
     id="path106" />
  <path
     opacity="0.05"
     d="m 49.211,105.835 c 1.8954,-0.545 3.8491,-0.8473 5.8168,-0.9016 0.7304,-0.027 1.474,0 2.2,0.0271 0.374,0 0.748,0.0495 1.1176,0.0905 1.8357,0.175 3.6303,0.661 5.3108,1.438 0.7877,0.38 1.5266,0.858 2.2,1.424 l 0.2596,0.216 c 0.2156,0.199 0.418,0.397 0.616,0.595 1.7764,1.687 3.1043,3.809 3.8588,6.166 0.5896,1.641 0.7919,3.71 0.6072,4.143 -0.0254,0.058 -0.0579,0.112 -0.0968,0.162 -0.0672,0.095 -0.1526,0.175 -0.2508,0.234 -0.6688,-2.641 -4.4,-8.487 -7.2776,-10.335 -2.9832,-1.925 -9.0552,-3.98 -15.7784,-2.745 0.4617,-0.201 0.9348,-0.372 1.4168,-0.514 z"
     fill="#000000"
     id="path108" />
  <path
     d="m 70.8854,119.429 c -0.6219,-1.909 -1.4842,-3.727 -2.5652,-5.408 -1.0623,-1.702 -2.3777,-3.223 -3.8984,-4.508 -0.7842,-0.617 -1.6345,-1.14 -2.5344,-1.559 -0.8914,-0.429 -1.8137,-0.786 -2.7588,-1.069 -1.8846,-0.566 -3.8353,-0.869 -5.7992,-0.901 0,0 0,0 0,0 1.941,0.198 3.8574,0.597 5.72,1.19 0.925,0.293 1.8316,0.644 2.7148,1.05 0.8888,0.393 1.7315,0.888 2.5124,1.474 1.5219,1.241 2.8435,2.719 3.916,4.381 1.1109,1.643 2.0101,3.426 2.6752,5.305 0.0033,0.002 0.0071,0.003 0.011,0.003 0.0038,0 0.0076,-0.001 0.011,-0.003 z"
     fill="#fafafa"
     id="path110" />
  <path
     d="m 156.663,154.876 c -0.135,-0.001 -0.267,-0.042 -0.379,-0.119 -0.112,-0.077 -0.199,-0.185 -0.251,-0.313 -0.053,-0.127 -0.067,-0.268 -0.042,-0.403 0.026,-0.136 0.089,-0.261 0.184,-0.36 l 13.538,-14.018 c 0.088,-0.089 0.197,-0.153 0.317,-0.185 l 18.617,-5.007 c 0.089,-0.035 0.186,-0.051 0.282,-0.045 0.096,0.005 0.19,0.031 0.276,0.076 0.085,0.045 0.161,0.108 0.221,0.185 0.06,0.077 0.104,0.166 0.129,0.262 0.024,0.095 0.029,0.195 0.013,0.292 -0.015,0.097 -0.05,0.19 -0.103,0.273 -0.053,0.082 -0.122,0.152 -0.204,0.206 -0.081,0.053 -0.172,0.088 -0.267,0.103 l -18.436,4.958 -13.407,13.878 c -0.063,0.068 -0.139,0.122 -0.222,0.159 -0.084,0.037 -0.175,0.057 -0.266,0.058 z"
     fill="#24b7db"
     id="path112" />
  <path
     d="m 117.732,131.852 c -0.136,0 -0.269,-0.041 -0.382,-0.118 -0.113,-0.077 -0.201,-0.186 -0.253,-0.315 -0.052,-0.128 -0.066,-0.269 -0.04,-0.406 0.026,-0.136 0.091,-0.262 0.187,-0.36 L 130.8,116.639 c 0.088,-0.089 0.197,-0.154 0.317,-0.189 l 18.603,-5.003 c 0.168,-0.029 0.34,0.008 0.483,0.103 0.143,0.095 0.247,0.241 0.291,0.409 0.044,0.169 0.025,0.348 -0.053,0.503 -0.078,0.156 -0.21,0.275 -0.369,0.337 l -18.44,4.958 -13.407,13.878 c -0.13,0.136 -0.307,0.214 -0.493,0.217 z"
     fill="#24b7db"
     id="path114" />
  <g
     opacity="0.4"
     id="g120"
     transform="translate(5,5)">
    <path
       opacity="0.4"
       d="m 151.663,149.876 c -0.135,-0.001 -0.267,-0.042 -0.379,-0.119 -0.112,-0.077 -0.199,-0.185 -0.251,-0.313 -0.053,-0.127 -0.067,-0.268 -0.042,-0.403 0.026,-0.136 0.089,-0.261 0.184,-0.36 l 13.538,-14.018 c 0.088,-0.089 0.197,-0.153 0.317,-0.185 l 18.617,-5.007 c 0.089,-0.035 0.186,-0.051 0.282,-0.045 0.096,0.005 0.19,0.031 0.276,0.076 0.085,0.045 0.161,0.108 0.221,0.185 0.06,0.077 0.104,0.166 0.129,0.262 0.024,0.095 0.029,0.195 0.013,0.292 -0.015,0.097 -0.05,0.19 -0.103,0.273 -0.053,0.082 -0.122,0.152 -0.204,0.206 -0.081,0.053 -0.172,0.088 -0.267,0.103 l -18.436,4.958 -13.407,13.878 c -0.063,0.068 -0.139,0.122 -0.223,0.159 -0.083,0.037 -0.174,0.057 -0.265,0.058 z"
       fill="#000000"
       id="path116" />
    <path
       opacity="0.4"
       d="m 112.732,126.852 c -0.136,0 -0.269,-0.041 -0.382,-0.118 -0.113,-0.077 -0.201,-0.186 -0.253,-0.315 -0.052,-0.128 -0.066,-0.269 -0.04,-0.406 0.026,-0.136 0.091,-0.262 0.187,-0.36 L 125.8,111.639 c 0.088,-0.089 0.197,-0.154 0.317,-0.189 l 18.603,-5.003 c 0.168,-0.029 0.34,0.008 0.483,0.103 0.143,0.095 0.247,0.241 0.291,0.409 0.044,0.169 0.025,0.348 -0.053,0.503 -0.078,0.156 -0.21,0.275 -0.369,0.337 l -18.44,4.958 -13.407,13.878 c -0.13,0.136 -0.307,0.214 -0.493,0.217 z"
       fill="#000000"
       id="path118" />
  </g>
  <path
     d="m 127.117,113.863 c -2.002,-1.186 -4.074,-4.147 -4.523,-6.473 L 109.94,41.9112 c -0.036,-0.1829 -0.141,-0.3438 -0.292,-0.4474 -0.152,-0.1035 -0.337,-0.1412 -0.516,-0.1048 -0.178,0.0365 -0.335,0.1441 -0.437,0.2992 -0.101,0.1551 -0.137,0.345 -0.102,0.5279 l 12.655,65.4789 c 0.532,2.754 2.807,6.013 5.183,7.415 l 47.929,28.347 0.686,-1.217 z"
     fill="#24b7db"
     id="path122" />
  <path
     opacity="0.25"
     d="m 127.117,113.863 c -2.002,-1.186 -4.074,-4.147 -4.523,-6.473 L 109.94,41.9112 c -0.036,-0.1829 -0.141,-0.3438 -0.292,-0.4474 -0.152,-0.1035 -0.337,-0.1412 -0.516,-0.1048 -0.178,0.0365 -0.335,0.1441 -0.437,0.2992 -0.101,0.1551 -0.137,0.345 -0.102,0.5279 l 12.655,65.4789 c 0.532,2.754 2.807,6.013 5.183,7.415 l 47.929,28.347 0.686,-1.217 z"
     fill="#000000"
     id="path124" />
  <path
     d="m 128.332,60.9279 c -0.034,0.0012 -0.067,-0.0066 -0.097,-0.0226 l -17.231,-9.0148 c -0.024,-0.0129 -0.046,-0.0306 -0.063,-0.0521 -0.018,-0.0215 -0.031,-0.0464 -0.04,-0.0733 -0.008,-0.0268 -0.011,-0.0551 -0.008,-0.0831 0.002,-0.028 0.01,-0.0552 0.023,-0.08 0.026,-0.0494 0.069,-0.0865 0.121,-0.1034 0.052,-0.0169 0.108,-0.0121 0.157,0.0133 l 17.23,9.0148 c 0.042,0.0214 0.075,0.0565 0.094,0.0997 0.02,0.0432 0.025,0.0919 0.014,0.1383 -0.01,0.0463 -0.036,0.0877 -0.072,0.1173 -0.037,0.0296 -0.082,0.0458 -0.128,0.0459 z"
     fill="#e0e0e0"
     id="path126" />
  <path
     d="m 114.41,69.1674 c -0.048,0 -0.095,-0.017 -0.133,-0.0482 -0.038,-0.0311 -0.064,-0.0746 -0.074,-0.1231 l -3.309,-17.2274 c -0.005,-0.0275 -0.005,-0.0558 10e-4,-0.0833 0.005,-0.0275 0.016,-0.0536 0.031,-0.0768 0.016,-0.0232 0.035,-0.0431 0.058,-0.0586 0.023,-0.0154 0.049,-0.0261 0.075,-0.0315 0.027,-0.0053 0.055,-0.0051 0.082,5e-4 0.027,0.0056 0.052,0.0165 0.075,0.0322 0.022,0.0157 0.042,0.0359 0.057,0.0592 0.015,0.0234 0.025,0.0496 0.031,0.0772 l 3.308,17.2273 c 0.011,0.055 -10e-4,0.112 -0.031,0.1584 -0.031,0.0465 -0.078,0.0787 -0.131,0.0896 z"
     fill="#e0e0e0"
     id="path128" />
  <path
     d="m 108.901,72.4217 c -0.055,-0.0068 -0.106,-0.0357 -0.14,-0.0805 -0.035,-0.0447 -0.051,-0.1017 -0.045,-0.1584 l 2.2,-20.4952 c 0.003,-0.0281 0.01,-0.0555 0.023,-0.0804 0.013,-0.025 0.031,-0.047 0.052,-0.0647 0.021,-0.0177 0.046,-0.0308 0.073,-0.0384 0.026,-0.0076 0.054,-0.0095 0.081,-0.0058 0.027,0.0028 0.054,0.0111 0.078,0.0245 0.024,0.0133 0.045,0.0314 0.062,0.0532 0.018,0.0218 0.03,0.0469 0.038,0.0738 0.008,0.0269 0.01,0.0551 0.007,0.0829 l -2.2,20.4996 c -0.003,0.0279 -0.011,0.055 -0.024,0.0796 -0.013,0.0247 -0.031,0.0464 -0.052,0.064 -0.021,0.0176 -0.046,0.0307 -0.072,0.0386 -0.026,0.0078 -0.054,0.0103 -0.081,0.0072 z"
     fill="#e0e0e0"
     id="path130" />
  <path
     d="m 103.8236,75.4235 c -0.0202,0.0047 -0.0413,0.0047 -0.0616,0 -0.026,-0.0082 -0.0502,-0.0216 -0.0712,-0.0395 -0.0209,-0.0178 -0.0383,-0.0397 -0.0509,-0.0644 -0.0127,-0.0247 -0.0205,-0.0518 -0.0229,-0.0796 -0.002,-0.0278 5e-4,-0.0558 0.009,-0.0824 l 7.2774,-23.5061 c 0.009,-0.0266 0.022,-0.0513 0.04,-0.0726 0.017,-0.0213 0.039,-0.0389 0.063,-0.0517 0.025,-0.0127 0.051,-0.0205 0.078,-0.0227 0.028,-0.0023 0.055,10e-4 0.081,0.0096 0.026,0.0085 0.05,0.0223 0.071,0.0404 0.021,0.0181 0.038,0.0403 0.05,0.0652 0.013,0.0249 0.02,0.0521 0.023,0.0799 0.002,0.0279 -10e-4,0.056 -0.01,0.0826 l -7.2774,23.5016 c -0.0146,0.0415 -0.0416,0.0773 -0.0771,0.1023 -0.0355,0.0251 -0.0778,0.0382 -0.1209,0.0374 z"
     fill="#e0e0e0"
     id="path132" />
  <path
     d="m 132.6,58.4036 c -0.019,0.0048 -0.039,0.0048 -0.058,0 L 111.04,51.9221 c -0.027,-0.008 -0.051,-0.0213 -0.072,-0.0389 -0.022,-0.0177 -0.04,-0.0395 -0.053,-0.0642 -0.013,-0.0247 -0.021,-0.0518 -0.024,-0.0798 -0.003,-0.0279 0,-0.0561 0.008,-0.0831 0.008,-0.0269 0.02,-0.052 0.038,-0.0738 0.017,-0.0218 0.038,-0.04 0.062,-0.0534 0.025,-0.0134 0.051,-0.0218 0.078,-0.0247 0.028,-0.0029 0.055,-3e-4 0.081,0.0077 l 21.499,6.4861 c 0.026,0.0072 0.051,0.0198 0.072,0.037 0.021,0.0172 0.039,0.0386 0.052,0.063 0.013,0.0244 0.022,0.0513 0.024,0.079 0.003,0.0278 0.001,0.0558 -0.007,0.0824 -0.014,0.0424 -0.041,0.0792 -0.077,0.1051 -0.035,0.0259 -0.078,0.0396 -0.121,0.0391 z"
     fill="#e0e0e0"
     id="path134" />
  <path
     d="m 123.39,63.853 c -0.052,-9e-4 -0.102,-0.0218 -0.14,-0.0586 l -12.294,-11.931 c -0.04,-0.0388 -0.064,-0.0925 -0.065,-0.1491 -0.002,-0.0567 0.018,-0.1116 0.056,-0.1529 0.038,-0.0412 0.09,-0.0654 0.146,-0.067 0.055,-0.0017 0.109,0.0191 0.149,0.058 l 12.294,11.931 c 0.019,0.0197 0.035,0.0432 0.045,0.0692 0.011,0.0259 0.016,0.0537 0.016,0.0818 0,0.0281 -0.005,0.0559 -0.016,0.0819 -0.01,0.0259 -0.026,0.0494 -0.045,0.0691 -0.019,0.021 -0.041,0.0378 -0.066,0.0495 -0.025,0.0116 -0.052,0.0178 -0.08,0.0181 z"
     fill="#e0e0e0"
     id="path136" />
  <path
     d="m 119.056,66.4133 c -0.036,0 -0.072,-0.01 -0.104,-0.029 -0.032,-0.019 -0.058,-0.0463 -0.076,-0.0792 l -7.96,-14.4913 c -0.025,-0.0505 -0.031,-0.1091 -0.015,-0.1637 0.015,-0.0545 0.051,-0.1008 0.099,-0.1293 0.049,-0.0259 0.105,-0.0315 0.158,-0.0155 0.052,0.016 0.097,0.0522 0.124,0.1012 l 7.959,14.4913 c 0.026,0.0493 0.032,0.1068 0.017,0.1606 -0.015,0.0537 -0.049,0.0996 -0.096,0.1279 -0.033,0.0174 -0.069,0.0267 -0.106,0.027 z"
     fill="#e0e0e0"
     id="path138" />
  <path
     d="m 134.615,59.0032 v 1.0682 l -0.863,-0.5589 z"
     fill="#263238"
     id="path140" />
  <path
     d="m 174.36,119.199 c -2.337,1.136 -15.655,6.455 -31.108,-1.843 -16.012,-8.596 -24.64,-17.268 -41.6768,-41.2068 v -1.6046 c 17.0408,23.9207 25.7048,32.5934 41.6938,41.1884 15.453,8.298 28.772,2.984 31.108,1.844 z"
     fill="#24b7db"
     id="path142" />
  <path
     opacity="0.6"
     d="m 174.36,119.199 c -2.337,1.136 -15.655,6.455 -31.108,-1.843 -16.012,-8.596 -24.64,-17.268 -41.6768,-41.2068 v -1.6046 c 17.0408,23.9207 25.7048,32.5934 41.6938,41.1884 15.453,8.298 28.772,2.984 31.108,1.844 z"
     fill="#ffffff"
     id="path144" />
  <path
     opacity="0.1"
     d="m 174.36,119.199 c -2.337,1.136 -15.655,6.455 -31.108,-1.843 -16.012,-8.596 -24.64,-17.268 -41.6768,-41.2068 v -1.6046 c 17.0408,23.9207 25.7048,32.5934 41.6938,41.1884 15.453,8.298 28.772,2.984 31.108,1.844 z"
     fill="#000000"
     id="path146" />
  <path
     d="m 174.36,117.577 c -2.337,1.14 -15.655,6.454 -31.108,-1.844 -16.012,-8.595 -24.64,-17.2676 -41.6768,-41.2063 L 132.041,56.4971 c 17.028,23.9342 25.665,32.6065 41.676,41.2021 15.453,8.2978 28.776,2.9839 31.108,1.8435 z"
     fill="#24b7db"
     id="path148" />
  <path
     opacity="0.8"
     d="m 174.36,117.577 c -2.337,1.14 -15.655,6.454 -31.108,-1.844 -16.012,-8.595 -24.64,-17.2676 -41.6768,-41.2063 L 132.041,56.4971 c 17.028,23.9342 25.665,32.6065 41.676,41.2021 15.453,8.2978 28.776,2.9839 31.108,1.8435 z"
     fill="#ffffff"
     id="path150" />
  <path
     d="m 134.615,59.0032 c -0.66,-0.9015 -1.32,-1.8481 -2.015,-2.8126 l -31.4164,18.5795 c 0.6864,0.9646 1.3552,1.8977 2.0152,2.8127 z"
     fill="#455a64"
     id="path152" />
  <path
     d="m 101.1836,74.77 v 1.6092 c 0.6864,0.9691 1.3552,1.8976 2.0152,2.8171 v -1.6182 c -0.66,-0.9105 -1.3288,-1.8435 -2.0152,-2.8081 z"
     fill="#37474f"
     id="path154" />
  <path
     d="m 103.1988,79.2007 0.4136,-0.2479 -0.004,-1.6092 -0.4092,0.2389 z"
     fill="#263238"
     id="path156" />
  <path
     d="m 205.371,99.2454 v 1.6046 l -31.654,18.719 v -1.6 z"
     fill="#37474f"
     id="path158" />
  <path
     d="m 170.923,118.925 31.654,-18.7241 2.794,-0.9555 -31.654,18.7236 z"
     fill="#455a64"
     id="path160" />
  <path
     d="m 173.717,119.569 v -1.6 l -2.794,0.955 v 1.605 z"
     fill="#263238"
     id="path162" />
  <path
     d="m 179.825,115.346 c -0.04,-0.002 -0.078,-0.014 -0.11,-0.036 -0.024,-0.015 -0.044,-0.034 -0.06,-0.057 -0.015,-0.023 -0.027,-0.049 -0.032,-0.076 -0.006,-0.028 -0.006,-0.056 -10e-4,-0.084 0.005,-0.027 0.016,-0.053 0.031,-0.076 l 10.626,-17.0023 c 0.03,-0.0472 0.077,-0.0804 0.13,-0.0922 0.054,-0.0119 0.11,-0.0014 0.156,0.0291 0.046,0.0305 0.078,0.0785 0.09,0.1334 0.011,0.055 0.001,0.1124 -0.028,0.1596 l -10.626,17.0204 c -0.021,0.027 -0.048,0.048 -0.079,0.062 -0.03,0.015 -0.064,0.021 -0.097,0.019 z"
     fill="#e0e0e0"
     id="path164" />
  <path
     d="m 183.745,112.993 c -0.029,0.006 -0.059,0.006 -0.088,0 -0.025,-0.012 -0.048,-0.029 -0.066,-0.049 -0.019,-0.021 -0.033,-0.045 -0.043,-0.072 -0.009,-0.026 -0.013,-0.054 -0.012,-0.082 0.001,-0.028 0.008,-0.056 0.02,-0.081 l 6.71,-14.6943 c 0.011,-0.0262 0.027,-0.0498 0.047,-0.0695 0.02,-0.0197 0.043,-0.035 0.069,-0.0452 0.026,-0.0101 0.054,-0.0147 0.082,-0.0136 0.027,0.0011 0.055,0.0079 0.08,0.02 0.025,0.0121 0.047,0.0293 0.066,0.0505 0.018,0.0212 0.033,0.046 0.042,0.0729 0.009,0.027 0.012,0.0555 0.01,0.0839 -0.002,0.0283 -0.01,0.056 -0.022,0.0813 l -6.706,14.694 c -0.019,0.033 -0.047,0.06 -0.081,0.078 -0.033,0.019 -0.07,0.027 -0.108,0.026 z"
     fill="#e0e0e0"
     id="path166" />
  <path
     d="m 175.807,117.676 c -0.046,0.001 -0.091,-0.015 -0.127,-0.045 -0.022,-0.017 -0.04,-0.038 -0.054,-0.062 -0.014,-0.024 -0.023,-0.051 -0.026,-0.079 -0.003,-0.028 -0.001,-0.056 0.007,-0.083 0.007,-0.027 0.02,-0.052 0.038,-0.074 l 14.643,-19.3499 c 0.016,-0.0223 0.037,-0.041 0.06,-0.0551 0.024,-0.0141 0.05,-0.0232 0.077,-0.027 0.027,-0.0038 0.054,-0.0021 0.08,0.0051 0.027,0.0071 0.051,0.0195 0.073,0.0364 0.044,0.0348 0.073,0.0861 0.081,0.1426 0.007,0.0566 -0.008,0.1139 -0.041,0.1594 L 175.97,117.595 c -0.019,0.025 -0.044,0.046 -0.072,0.06 -0.028,0.014 -0.059,0.021 -0.091,0.021 z"
     fill="#e0e0e0"
     id="path168" />
  <path
     d="m 190.169,109.283 c -0.027,0 -0.054,-0.006 -0.08,-0.017 -0.025,-0.011 -0.047,-0.027 -0.066,-0.047 -0.019,-0.02 -0.034,-0.044 -0.044,-0.07 -0.009,-0.026 -0.014,-0.054 -0.012,-0.082 l 0.281,-10.9758 c 0.002,-0.055 0.025,-0.1071 0.063,-0.1456 0.039,-0.0385 0.09,-0.0606 0.144,-0.0617 v 0 c 0.055,0.0035 0.106,0.0282 0.144,0.0693 0.038,0.041 0.058,0.0953 0.058,0.1516 l -0.286,10.9712 c 0,0.027 -0.005,0.054 -0.015,0.079 -0.01,0.025 -0.025,0.048 -0.044,0.067 -0.019,0.02 -0.041,0.035 -0.066,0.045 -0.024,0.011 -0.05,0.016 -0.077,0.016 z"
     fill="#e0e0e0"
     id="path170" />
  <path
     d="m 198.331,104.4512 c -0.046,-3e-4 -0.09,-0.0144 -0.128,-0.0406 l -7.876,-6.13 c -0.043,-0.0341 -0.072,-0.0845 -0.08,-0.1403 -0.007,-0.0558 0.007,-0.1123 0.041,-0.1572 0.033,-0.0448 0.082,-0.0743 0.137,-0.0819 0.054,-0.0076 0.109,0.0073 0.153,0.0414 l 7.876,6.1254 c 0.035,0.0264 0.062,0.0637 0.075,0.1064 0.014,0.0426 0.014,0.0886 0,0.1312 -0.014,0.0426 -0.04,0.0797 -0.076,0.1058 -0.036,0.0262 -0.078,0.0401 -0.122,0.0398 z"
     fill="#e0e0e0"
     id="path172" />
  <path
     d="m 203.373,101.3274 h -0.044 l -12.922,-3.0018 c -0.028,-0.0058 -0.053,-0.0172 -0.076,-0.0334 -0.023,-0.0161 -0.042,-0.0368 -0.057,-0.0608 -0.014,-0.0239 -0.024,-0.0507 -0.029,-0.0786 -0.004,-0.028 -0.003,-0.0566 0.003,-0.0841 0.014,-0.0548 0.047,-0.1022 0.094,-0.1323 0.047,-0.0302 0.103,-0.0409 0.157,-0.03 l 12.923,3.0064 c 0.05,0.0107 0.095,0.0405 0.125,0.0835 0.031,0.0431 0.044,0.0961 0.038,0.1488 -0.006,0.0526 -0.031,0.101 -0.07,0.1356 -0.04,0.0346 -0.09,0.0529 -0.142,0.0512 z"
     fill="#e0e0e0"
     id="path174" />
  <path
     d="m 193.988,107.052 c -0.041,0 -0.081,-0.013 -0.116,-0.036 -0.034,-0.023 -0.061,-0.056 -0.077,-0.095 l -3.52,-8.7261 c -0.019,-0.025 -0.032,-0.0539 -0.038,-0.0846 -0.006,-0.0307 -0.006,-0.0625 0.001,-0.093 0.007,-0.0305 0.021,-0.059 0.04,-0.0834 0.02,-0.0244 0.044,-0.0442 0.072,-0.0578 0.027,-0.0136 0.057,-0.0208 0.088,-0.021 0.031,-2e-4 0.061,0.0066 0.089,0.0198 0.027,0.0133 0.052,0.0327 0.072,0.0568 0.019,0.0242 0.033,0.0525 0.041,0.0829 l 3.52,8.7304 c 0.02,0.053 0.02,0.112 -0.002,0.164 -0.021,0.052 -0.062,0.094 -0.113,0.116 -0.018,0.011 -0.037,0.02 -0.057,0.027 z"
     fill="#e0e0e0"
     id="path176" />
  <path
     d="m 111.383,49.6774 c -0.149,-0.0704 -0.314,-0.0988 -0.477,-0.0822 -0.163,0.0167 -0.319,0.0777 -0.452,0.1769 -0.383,0.2543 -0.703,0.598 -0.932,1.003 -0.23,0.405 -0.362,0.8597 -0.388,1.3272 -0.016,0.1672 0.011,0.3359 0.079,0.4887 0.068,0.1529 0.174,0.2845 0.309,0.3812 l 0.646,0.3831 c 0.149,0.0712 0.313,0.1003 0.477,0.0845 0.163,-0.0159 0.319,-0.0762 0.452,-0.1746 0.384,-0.2553 0.703,-0.5998 0.933,-1.0055 0.229,-0.4057 0.362,-0.8611 0.387,-1.3292 0.017,-0.1673 -0.009,-0.3363 -0.077,-0.4894 -0.069,-0.153 -0.176,-0.2845 -0.31,-0.3805 z"
     fill="#37474f"
     id="path178" />
  <path
     d="m 111.101,50.1551 c 0.726,-0.4282 1.32,-0.0811 1.32,0.7753 -0.025,0.4681 -0.158,0.9235 -0.387,1.3292 -0.229,0.4057 -0.549,0.7502 -0.933,1.0056 -0.726,0.4282 -1.32,0.0811 -1.32,-0.7798 0.026,-0.4674 0.159,-0.9221 0.388,-1.327 0.229,-0.4049 0.549,-0.7487 0.932,-1.0033 z"
     fill="#455a64"
     id="path180" />
  <path
     d="m 190.772,96.2117 c -0.149,-0.0691 -0.312,-0.0968 -0.475,-0.0802 -0.162,0.0167 -0.317,0.077 -0.449,0.1749 -0.384,0.2546 -0.703,0.5984 -0.933,1.0033 -0.229,0.4049 -0.362,0.8595 -0.387,1.327 -0.018,0.1674 0.008,0.3365 0.076,0.4902 0.067,0.1536 0.173,0.2862 0.307,0.3842 l 0.646,0.3831 c 0.15,0.0704 0.315,0.0988 0.479,0.0821 0.164,-0.0166 0.321,-0.0776 0.454,-0.1767 0.383,-0.2552 0.702,-0.5991 0.931,-1.0039 0.23,-0.4048 0.363,-0.8592 0.389,-1.3264 0.018,-0.1679 -0.009,-0.3375 -0.077,-0.4913 -0.068,-0.1537 -0.175,-0.286 -0.31,-0.3831 z"
     fill="#37474f"
     id="path182" />
  <path
     d="m 190.495,96.6626 c 0.721,-0.4282 1.32,-0.0812 1.32,0.7797 -0.027,0.4672 -0.16,0.9216 -0.389,1.3264 -0.229,0.4048 -0.548,0.7487 -0.931,1.0038 -0.726,0.4282 -1.32,0.0811 -1.32,-0.7752 0.025,-0.468 0.158,-0.9233 0.387,-1.3289 0.23,-0.4057 0.549,-0.7503 0.933,-1.0058 z"
     fill="#455a64"
     id="path184" />
  <path
     d="m 192.4,90.4241 c -0.177,-0.0465 -0.364,-0.0195 -0.52,0.0752 -0.157,0.0946 -0.271,0.2492 -0.316,0.4297 l -12.426,49.518 c -0.069,0.45 -0.249,0.875 -0.523,1.234 -0.274,0.359 -0.633,0.64 -1.043,0.816 -0.41,0.177 -0.857,0.243 -1.299,0.193 -0.443,-0.051 -0.865,-0.216 -1.227,-0.48 l -0.686,1.217 c 0.688,0.425 1.475,0.656 2.279,0.667 0.503,0.001 1.001,-0.1 1.465,-0.298 0.596,-0.274 1.121,-0.688 1.531,-1.209 0.411,-0.521 0.696,-1.133 0.832,-1.788 l 12.408,-49.5184 c 0.046,-0.1781 0.022,-0.3676 -0.067,-0.5277 -0.089,-0.1602 -0.235,-0.2782 -0.408,-0.3288 z"
     fill="#24b7db"
     id="path186" />
  <path
     opacity="0.25"
     d="m 192.4,90.4241 c -0.177,-0.0465 -0.364,-0.0195 -0.52,0.0752 -0.157,0.0946 -0.271,0.2492 -0.316,0.4297 l -12.426,49.518 c -0.069,0.45 -0.249,0.875 -0.523,1.234 -0.274,0.359 -0.633,0.64 -1.043,0.816 -0.41,0.177 -0.857,0.243 -1.299,0.193 -0.443,-0.051 -0.865,-0.216 -1.227,-0.48 l -0.686,1.217 c 0.688,0.425 1.475,0.656 2.279,0.667 0.503,0.001 1.001,-0.1 1.465,-0.298 0.596,-0.274 1.121,-0.688 1.531,-1.209 0.411,-0.521 0.696,-1.133 0.832,-1.788 l 12.408,-49.5184 c 0.046,-0.1781 0.022,-0.3676 -0.067,-0.5277 -0.089,-0.1602 -0.235,-0.2782 -0.408,-0.3288 z"
     fill="#000000"
     id="path188" />
  <g
     opacity="0.4"
     id="g192"
     transform="translate(5,5)">
    <path
       opacity="0.2"
       d="m 166.759,100.511 c 1.088,0.196 2.114,0.66 2.988,1.352 1.091,0.928 1.901,2.253 3.322,2.569 2.556,0.599 5.839,-0.401 6.472,-1.623 0.634,-1.221 -0.365,-0.216 -3.52,-2.087 -3.154,-1.8702 -5.28,-4.7459 -7.99,-6.0846 -2.71,-1.3387 -8.241,-3.02 -17.345,-5.7289 -8.764,-2.6098 -10.538,-2.7045 -11.809,-4.814 -1.272,-2.1094 -4.677,-7.9916 -3.648,-14.5904 0.294,-1.7796 0.704,-3.537 1.228,-5.2602 -1.265,-1.6317 -2.573,-3.361 -3.925,-5.188 -1.768,0.8659 -3.483,1.8413 -5.135,2.9208 0,0 -6.001,-5.9543 -10.67,0.7527 0,2.9208 0.713,6.031 4.176,7.5049 l 1.377,4.7823 c 0,0 -6.574,-3.4076 -10.248,-5.5982 -3.674,-2.1906 -5.654,0.3381 -5.513,2.0734 0.141,1.7354 1.901,4.2054 4.026,6.4366 2.125,2.2312 9.055,7.5454 11.304,10.0245 2.248,2.4791 4.272,4.9311 5.522,8.9201 1.249,3.989 4.712,7.392 10.78,8.001 6.067,0.608 14.295,0.45 14.295,0.45 0.147,1.41 0.479,2.793 0.986,4.111 0.523,1.28 2.301,4.057 3.471,5.86 1.832,-0.048 3.657,-0.237 5.461,-0.568 -0.717,-3.926 -2.337,-12.621 -2.768,-14.018 -0.176,-0.564 -1.232,-1.1946 -2.605,-1.8031 0.014,0 7.665,1.1941 9.768,1.6051 z"
       fill="#000000"
       id="path190" />
  </g>
  <path
     d="m 181.659,104.8298 c -2.072,-1.1426 -3.918,-2.6712 -5.442,-4.5074 -0.482,-0.7658 -0.904,-1.5691 -1.263,-2.4024 -0.035,-0.0812 -2.513,-6.0715 -4.11,-9.7991 -1.953,-4.557 -3.185,-7.293 -4.972,-7.8925 -2.121,-0.7167 -3.476,-0.9015 -11.506,5.0618 -2.019,1.4965 -5.971,4.5074 -5.971,4.5074 l -9.82,11.8996 c 0,0 5.68,1.7128 13.23,-1.0547 1.295,-0.3925 2.476,-1.1062 3.437,-2.078 l 0.537,-0.338 c 2.974,-2.6504 5.082,-5.5621 7.686,-8.9472 l 0.194,-0.2524 c 0.977,3.4166 4.127,6.2788 6.635,9.5962 0.449,0.588 0.807,1.2433 1.061,1.9427 0.135,0.4522 0.149,0.9334 0.039,1.3928 -0.102,0.4894 -0.047,0.9996 0.156,1.4544 0.204,0.4549 0.546,0.8301 0.975,1.0698 0.801,0.4913 1.98,0.6942 2.715,1.3522 0.735,0.658 1.452,1.884 2.49,2.29 0.926,0.355 1.933,0.423 2.895,0.194 0.88,-0.181 2.2,-0.686 2.764,-1.488 0.734,-1.05 -0.784,-1.474 -1.73,-2.0012 z"
     fill="#f28f8f"
     id="path194" />
  <path
     d="m 155.163,96.6129 c -1.25,-0.0094 -2.495,-0.1759 -3.705,-0.4958 -0.343,-1.9111 -0.911,-3.7006 -2.081,-4.8184 0.547,1.5464 0.844,3.1739 0.88,4.8184 -3.041,-0.0541 -4.4,1.6181 -4.4,1.6181 l 9.398,0.8384 0.537,-0.338 c 1.595,-1.4479 3.07,-3.0295 4.409,-4.7283 -1.171,1.0818 -2.79,3.0155 -5.038,3.1056 z"
     fill="#b16668"
     id="path196" />
  <path
     d="m 163.034,89.8474 c -0.103,-1.2184 0.18,-2.4384 0.805,-3.4798 -0.255,0.8764 -0.321,1.7993 -0.193,2.7045"
     fill="#b16668"
     id="path198" />
  <path
     d="m 176.085,133.172 c -0.181,-0.174 -0.402,-0.3 -0.643,-0.365 -0.683,-0.316 -1.285,-0.79 -1.76,-1.383 -0.651,-0.727 -1.216,-1.53 -1.681,-2.394 -0.385,-0.778 -0.731,-1.577 -1.034,-2.393 -0.101,-0.253 -0.246,-0.649 -0.413,-1.136 -1.034,-2.939 -4.334,-20.018 -4.581,-21.4285 -0.466,-2.6728 -1.799,-3.5338 -4.488,-4.4262 -2.688,-0.8925 -15.734,-3.8764 -15.734,-3.8764 -4.492,0.9736 -8.69,2.407 -10.159,6.8873 0,0 0.36,2.0599 3.52,3.9398 1.365,0.675 2.832,1.111 4.338,1.289 6.12,0.753 15.906,0.424 15.906,0.424 0,0 -0.277,2.97 1.478,6.725 1.342,2.875 3.173,5.922 4.431,8.757 0.263,0.532 0.43,1.108 0.493,1.7 0,0.487 -0.44,1.181 -0.563,1.645 -0.124,0.464 -0.264,1.221 0.264,1.69 0.418,0.379 1.227,0.586 1.817,0.987 0.721,0.496 0.959,1.123 1.227,1.966 0.55,1.721 0.731,2.569 2.117,3.155 0.783,0.338 2.6,0.392 3.436,0.225 0.27,-0.043 0.533,-0.127 0.779,-0.248 0.255,-0.135 0.546,-0.203 0.801,-0.351 0.247,-0.133 0.445,-0.345 0.563,-0.604 0.05,-0.13 0.066,-0.27 0.046,-0.408 -0.02,-0.138 -0.075,-0.268 -0.16,-0.377 z"
     fill="#f28f8f"
     id="path200" />
  <path
     d="m 158.445,108.323 0.88,-0.022 c 0.051,-0.911 0.253,-1.806 0.598,-2.646 0,0 -1.17,0.392 -1.478,2.668 z"
     fill="#b16668"
     id="path202" />
  <path
     d="m 135.702,75.0495 c 0.678,-0.6087 1.288,-1.2936 1.817,-2.0418 0.845,-1.0773 2.046,-6.698 2.046,-6.698 -0.709,0.32 -8.246,3.4526 -8.246,3.4526 l -1.76,-3.4256 c 3.527,-2.9846 7.476,-5.4026 11.713,-7.1712 2.719,-1.1314 3.96,0.7843 3.92,2.452 -0.045,1.9836 -0.229,3.9614 -0.55,5.9182 -0.338,2.3979 -2.134,9.8757 -1.504,11.904 z"
     fill="#f28f8f"
     id="path204" />
  <path
     d="m 139.565,66.3099 c 2.011,-0.9016 2.468,-1.0638 3.388,-1.9924 0,0 -0.44,1.6813 -3.569,2.8037 z"
     fill="#b16668"
     id="path206" />
  <path
     d="m 148.4,89.8068 -2.79,-0.8744 -0.915,-2.9839 c 1.685,-2.1591 1.166,-5.4901 -2.2,-7.6176 -2.266,-1.528 -5.007,-2.8486 -6.78,-3.2813 l -1.545,0.7302 -4.866,2.2537 -2.42,1.2215 c -0.334,4.5074 -0.7,6.6709 0.334,8.83 2.086,4.3676 5.038,6.7611 5.769,8.9291 1.601,4.7734 2.231,7.1443 5.601,9.2539 -0.88,-5.7201 5.812,-10.8179 12.271,-9.317 -0.457,-5.1159 -2.459,-7.1442 -2.459,-7.1442 z"
     fill="#24b7db"
     id="path208" />
  <g
     opacity="0.15"
     id="g212"
     transform="translate(5,5)">
    <path
       opacity="0.15"
       d="m 143.4,84.8068 -2.79,-0.8744 -0.915,-2.9839 c 1.685,-2.1591 1.166,-5.4901 -2.2,-7.6176 -2.266,-1.528 -5.007,-2.8486 -6.78,-3.2813 l -1.545,0.7302 -4.866,2.2537 -2.42,1.2215 c -0.334,4.5074 -0.7,6.6709 0.334,8.83 2.086,4.3676 5.038,6.7611 5.769,8.9291 1.601,4.7734 2.231,7.1443 5.601,9.2539 -0.88,-5.7201 5.812,-10.8179 12.271,-9.317 -0.457,-5.1159 -2.459,-7.1442 -2.459,-7.1442 z"
       fill="#000000"
       id="path210" />
  </g>
  <path
     opacity="0.15"
     d="m 141.439,87.3683 c -0.462,0.7617 -1.368,1.9561 -3.727,1.9967 -2.49,0.0496 -3.744,-1.0772 -4.373,-1.8029 0.364,0.875 0.986,1.6119 1.779,2.1079 0.792,0.496 1.716,0.7266 2.643,0.6596 3.379,-0.1938 3.678,-2.9613 3.678,-2.9613 z"
     fill="#000000"
     id="path214" />
  <path
     d="m 129.088,91.3213 c -1.918,-2.2267 -4.272,-4.7644 -5.42,-5.7154 -2.398,-1.9833 -3.52,-2.7045 -7.37,-6.04 -1.544,-1.2683 -2.955,-2.6973 -4.211,-4.264 -1.298,-1.6452 -1.065,-3.5203 1.461,-4.566 5.97,-2.4791 14.885,-4.0071 14.885,-4.0071 l 1.249,4.0566 -9.468,3.606 c 0,0 4.158,3.0425 5.385,3.5068 0.84,0.3158 1.71,0.5379 2.596,0.6626 0,0 1.949,3.2453 2.2,6.5177 0.339,4.9266 -1.307,6.2428 -1.307,6.2428 z"
     fill="#f28f8f"
     id="path216" />
  <path
     d="m 120.214,74.4186 c -1.606,0.6174 -3.08,0.9014 -4.211,0.676 0.767,0.4804 1.685,0.6417 2.565,0.4507 1.76,-0.2929 2.292,-0.676 2.292,-0.676 z"
     fill="#b16668"
     id="path218" />
  <path
     d="m 122.88,63.4386 c -0.403,0.3146 -0.734,0.7156 -0.971,1.1749 -0.236,0.4593 -0.372,0.9659 -0.397,1.4844 -0.093,2.5918 1.262,4.6652 3.08,6.085 1.122,0.8745 2.521,1.5325 3.599,2.2988 l -0.321,-1.4153 c 0.926,0.2754 1.905,0.3064 2.846,0.0901 l 1.461,-0.3155 c 0.784,-0.1702 1.53,-0.4881 2.2,-0.9375 0.588,-0.3754 1.061,-0.9127 1.364,-1.5506 0.321,-0.6364 0.528,-1.3263 0.612,-2.0373 0.045,-0.3617 0.056,-0.7269 0.035,-1.0908 0,-0.1037 -0.057,-0.9781 -0.145,-0.9916 0.414,0.0613 0.835,-0.0368 1.182,-0.2754 0.348,-0.2386 0.597,-0.6007 0.698,-1.0162 0.102,-0.4156 0.05,-0.8551 -0.146,-1.2335 -0.196,-0.3783 -0.523,-0.6687 -0.916,-0.8149 0.253,-0.1686 0.442,-0.4208 0.535,-0.7147 0.094,-0.2939 0.086,-0.6118 -0.021,-0.9006 -0.108,-0.2888 -0.309,-0.5311 -0.57,-0.6866 -0.26,-0.1556 -0.565,-0.2149 -0.863,-0.1682 0.409,-0.2524 0.299,-0.9465 -0.088,-1.226 -0.419,-0.2398 -0.911,-0.3105 -1.378,-0.1983 0.107,-0.2069 0.172,-0.4339 0.191,-0.6673 0.018,-0.2333 -0.009,-0.4681 -0.082,-0.6901 -0.072,-0.2221 -0.188,-0.4268 -0.34,-0.6018 -0.151,-0.1749 -0.336,-0.3165 -0.543,-0.4162 0.106,0.0451 0.163,0.3922 0.172,0.4958 0.029,0.1979 0.006,0.4001 -0.066,0.586 -0.085,0.1745 -0.209,0.3257 -0.362,0.441 -0.153,0.1153 -0.331,0.1913 -0.518,0.2216 0.134,-0.0997 0.23,-0.245 0.269,-0.4102 0.04,-0.1651 0.02,-0.3393 -0.054,-0.4913 -0.079,-0.1511 -0.201,-0.2747 -0.349,-0.3549 -0.148,-0.0803 -0.316,-0.1136 -0.482,-0.0958 -0.164,0.0238 -0.32,0.0863 -0.456,0.1825 -0.136,0.0962 -0.248,0.2235 -0.328,0.3719 0.056,-0.2004 0.065,-0.4114 0.026,-0.6158 -0.039,-0.2045 -0.125,-0.3966 -0.25,-0.5607 -0.111,-0.0903 -0.243,-0.1508 -0.383,-0.176 -0.139,-0.0252 -0.283,-0.0143 -0.418,0.0318 -0.266,0.0716 -0.511,0.2059 -0.717,0.3921 -0.211,0.1939 -0.299,0.302 -0.519,0.5364 -0.002,-0.3272 -0.111,-0.6443 -0.308,-0.9015 -0.103,-0.1424 -0.235,-0.2599 -0.387,-0.3441 -0.152,-0.0841 -0.321,-0.1328 -0.493,-0.1426 0.248,0.494 0.3,1.0675 0.145,1.6001 -0.094,0.3095 -0.249,0.5961 -0.455,0.8425 -0.206,0.2464 -0.458,0.4474 -0.742,0.5908 -0.466,0.2705 -2.2,0.8699 -2.785,1.1855 -0.596,0.2815 -1.095,0.7421 -1.43,1.3206 -0.196,0.3107 -0.312,0.6678 -0.335,1.0371 -0.023,0.3693 0.047,0.7386 0.203,1.0724 z"
     fill="#263238"
     id="path220" />
  <path
     d="m 124.438,58.291 c 1.632,1.2711 0.787,2.754 -0.44,4.4308 -1.228,1.6768 -2.412,2.9028 -4.048,1.6317 -0.397,-0.2999 -0.731,-0.6774 -0.983,-1.1107 -0.253,-0.4333 -0.418,-0.9136 -0.488,-1.4132 -0.07,-0.4995 -0.042,-1.0082 0.082,-1.4966 0.124,-0.4884 0.341,-0.9468 0.639,-1.3484 0.298,-0.4017 0.671,-0.7386 1.098,-0.9912 0.426,-0.2527 0.897,-0.416 1.386,-0.4806 0.488,-0.0645 0.985,-0.0289 1.46,0.1046 0.475,0.1336 0.919,0.3626 1.307,0.6736 z"
     fill="#263238"
     id="path222" />
  <path
     d="m 133.629,61.2748 c 0.937,0.3065 2.429,2.2086 3.313,6.7025 0.744,3.8088 -0.246,5.0213 -0.792,5.4089 -0.545,0.3877 -1.359,0.5048 -2.534,0.5725 l 0.625,1.7669 c 0,0 3.542,1.537 3.674,2.6008 0.132,1.0637 -2.517,1.7218 -4.303,1.4153 -1.919,-0.3291 -4.4,-1.6948 -4.4,-1.6948 -0.826,-1.8548 -1.528,-3.7642 -2.104,-5.7154 -0.193,0.1117 -0.409,0.1738 -0.631,0.1809 -0.221,0.007 -0.441,-0.0411 -0.64,-0.1404 -1.171,-0.4913 -1.734,-1.9517 -1.175,-2.8712 0.149,-0.2218 0.347,-0.4043 0.578,-0.5326 0.231,-0.1282 0.489,-0.1985 0.752,-0.2051 0.262,-0.0066 0.523,0.0507 0.76,0.1672 0.237,0.1165 0.443,0.2888 0.603,0.5029 1.37,-0.6523 2.632,-1.5208 3.74,-2.5737 0.8,-0.6802 1.442,-1.5342 1.881,-2.5001 0.438,-0.9659 0.661,-2.0195 0.653,-3.0846 z"
     fill="#f28f8f"
     id="path224" />
  <path
     d="m 132.371,67.9729 c 0.028,0.1261 0.007,0.2587 -0.06,0.3685 -0.067,0.1099 -0.174,0.1881 -0.297,0.2174 -0.123,0.0292 -0.252,0.0072 -0.359,-0.0612 -0.108,-0.0685 -0.184,-0.1778 -0.213,-0.3039 -0.016,-0.063 -0.02,-0.1288 -0.012,-0.1934 0.009,-0.0647 0.03,-0.127 0.062,-0.1832 0.033,-0.0562 0.076,-0.1053 0.127,-0.1443 0.051,-0.039 0.109,-0.0672 0.171,-0.0829 0.063,-0.0146 0.128,-0.0162 0.191,-0.0047 0.063,0.0114 0.124,0.0357 0.178,0.0714 0.054,0.0356 0.1,0.082 0.137,0.1363 0.036,0.0543 0.062,0.1155 0.075,0.18 z"
     fill="#263238"
     id="path226" />
  <path
     d="m 132.802,70.8981 1.641,0.2118 c -0.009,0.1116 -0.04,0.2201 -0.091,0.3191 -0.051,0.0991 -0.121,0.1867 -0.205,0.2577 -0.085,0.071 -0.182,0.124 -0.287,0.1558 -0.105,0.0317 -0.215,0.0417 -0.323,0.0293 -0.22,-0.0368 -0.419,-0.1577 -0.555,-0.3384 -0.136,-0.1808 -0.201,-0.4079 -0.18,-0.6353 z"
     fill="#b16668"
     id="path228" />
  <path
     d="m 135.948,65.7688 -1.069,-0.4959 c 0.028,-0.073 0.071,-0.1395 0.125,-0.1953 0.054,-0.0558 0.118,-0.0998 0.189,-0.1293 0.072,-0.0295 0.148,-0.0439 0.225,-0.0423 0.076,0.0016 0.152,0.019 0.222,0.0514 0.142,0.0697 0.254,0.1924 0.311,0.3432 0.057,0.1508 0.056,0.3182 -0.003,0.4682 z"
     fill="#263238"
     id="path230" />
  <path
     d="m 135.935,66.9362 c 0.018,0.0946 0.009,0.1925 -0.027,0.2817 -0.036,0.0891 -0.096,0.1655 -0.174,0.2197 -0.078,0.0541 -0.17,0.0836 -0.264,0.0848 -0.094,0.0012 -0.186,-0.026 -0.265,-0.0782 -0.08,-0.0521 -0.142,-0.127 -0.18,-0.2152 -0.038,-0.0883 -0.049,-0.186 -0.033,-0.2809 0.015,-0.095 0.058,-0.1831 0.123,-0.2534 0.064,-0.0702 0.147,-0.1194 0.239,-0.1416 0.063,-0.0139 0.127,-0.015 0.19,-0.0033 0.064,0.0117 0.124,0.036 0.178,0.0716 0.054,0.0356 0.1,0.0817 0.137,0.1357 0.036,0.054 0.062,0.1149 0.076,0.1791 z"
     fill="#263238"
     id="path232" />
  <path
     d="m 133.528,66.571 0.739,3.3896 1.668,-0.897 z"
     fill="#b16668"
     id="path234" />
  <path
     d="m 133.616,73.9812 c -1.223,0.1172 -4.211,-0.0361 -4.809,-0.9375 0,0 0.132,0.6265 1.144,1.1313 1.109,0.5544 3.903,0.4778 3.903,0.4778 z"
     fill="#b16668"
     id="path236" />
  <path
     d="m 134.289,66.9903 c -0.079,-0.0628 -0.17,-0.1064 -0.268,-0.1275 -0.097,-0.0211 -0.198,-0.0191 -0.295,0.0058 -0.304,0.0947 -0.708,0.6941 -0.708,0.6941 l -0.357,-0.3335 c 0.217,-0.3691 0.542,-0.6592 0.929,-0.8293 0.267,-0.0905 0.558,-0.0727 0.814,0.0496 z"
     fill="#263238"
     id="path238" />
  <path
     d="m 132.899,66.2601 c -0.607,-0.6762 -1.228,-0.7753 -2.64,-0.4959 -1.413,0.2795 -2.121,0.7843 -2.306,1.7715 -0.037,0.3749 0.005,0.7536 0.124,1.1103 0.118,0.3567 0.31,0.6832 0.563,0.9572 0.252,0.2741 0.559,0.4893 0.9,0.6311 0.341,0.1418 0.708,0.2068 1.075,0.1907 1.976,-0.0947 2.57,-1.5461 2.64,-2.38 0.053,-0.6806 -0.035,-1.4288 -0.356,-1.7849 z"
     fill="#24b7db"
     id="path240" />
  <path
     d="m 130.738,69.9607 h -0.145 c -0.312,0.0248 -0.625,-0.0264 -0.914,-0.1494 -0.289,-0.123 -0.546,-0.3143 -0.749,-0.5583 -0.195,-0.2217 -0.345,-0.482 -0.438,-0.7649 -0.094,-0.2829 -0.131,-0.5825 -0.108,-0.8803 0.119,-0.6446 0.498,-1.1269 1.954,-1.4154 0.312,-0.0586 0.576,-0.0991 0.796,-0.1217 0.788,-0.0676 1.105,0.1082 1.439,0.4823 0.175,0.3407 0.264,0.7204 0.26,1.1051 -0.004,0.3848 -0.102,0.7624 -0.284,1.099 -0.182,0.3366 -0.442,0.6215 -0.758,0.8293 -0.317,0.2077 -0.678,0.3317 -1.053,0.3608 z"
     fill="#263238"
     id="path242" />
  <path
     d="m 134.082,66.2014 c -0.074,-0.7257 0.515,-1.6767 1.703,-2.0644 0.946,-0.311 1.958,0.1172 2.152,1.0187 0.237,1.1043 0.176,2.4611 -1.188,2.9884 -1.201,0.4643 -2.543,-0.1713 -2.667,-1.9427 z"
     fill="#24b7db"
     id="path244" />
  <path
     d="m 136.124,67.8152 c -0.184,0.0208 -0.369,0.0036 -0.546,-0.0507 -0.177,-0.0542 -0.341,-0.1442 -0.484,-0.2648 -0.178,-0.175 -0.321,-0.3847 -0.419,-0.6169 -0.098,-0.2322 -0.15,-0.4822 -0.153,-0.7353 -0.057,-0.5544 0.44,-1.2936 1.395,-1.6001 0.114,-0.0374 0.233,-0.0616 0.352,-0.0721 0.261,-0.0492 0.53,5e-4 0.758,0.1399 0.227,0.1393 0.397,0.3588 0.479,0.6173 0.277,1.2936 -0.031,2.1229 -0.916,2.4655 -0.149,0.0604 -0.306,0.0999 -0.466,0.1172 z"
     fill="#263238"
     id="path246" />
</svg>
