<?xml version="1.0" encoding="UTF-8" standalone="no"?>
<svg xmlns:dc="http://purl.org/dc/elements/1.1/" xmlns:cc="http://creativecommons.org/ns#"
   xmlns:rdf="http://www.w3.org/1999/02/22-rdf-syntax-ns#" xmlns:svg="http://www.w3.org/2000/svg"
   xmlns="http://www.w3.org/2000/svg" viewBox="0 0 228 165.38316" fill="none" version="1.1" id="svg286">
   <metadata id="metadata292">
      <rdf:RDF>
         <cc:Work rdf:about="">
            <dc:format>image/svg+xml</dc:format>
            <dc:type rdf:resource="http://purl.org/dc/dcmitype/StillImage" />
            <dc:title></dc:title>
         </cc:Work>
      </rdf:RDF>
   </metadata>
   <defs id="defs290" />
   <path
      d="m 223,139.88117 c 0,0.076 -48.804,0.131 -108.993,0.131 -60.1886,0 -109.007,-0.055 -109.007,-0.131 0,-0.076 48.7945,-0.131 109.007,-0.131 60.213,0 108.993,0.06 108.993,0.131 z"
      fill="#263238" id="path2" />
   <path
      d="m 207.149,160.01017 c 0,0.076 -23.823,0.131 -53.204,0.131 -29.381,0 -53.2232,-0.055 -53.2232,-0.131 0,-0.076 23.8182,-0.132 53.2082,-0.132 29.391,0 53.219,0.061 53.219,0.132 z"
      fill="#263238" id="path4" />
   <path
      d="m 194.232,127.33717 c 0.022,-0.07 0.049,-0.137 0.081,-0.202 l 0.244,-0.586 c 0.321,-0.763 0.578,-1.554 0.771,-2.363 0.618,-3.006 0.597,-6.119 -0.062,-9.115 -0.408,-2.076 -0.944,-4.123 -1.604,-6.126 -0.68,-2.176 -1.47,-4.479 -2.111,-6.973 -0.728,-2.601 -1.08,-5.303 -1.044,-8.015 0.101,-2.838 0.895,-5.671 1.771,-8.483 0.877,-2.813004 1.777,-5.586004 2.045,-8.358004 0.305,-2.667 -0.198,-5.368 -1.437,-7.716 -1.158,-2.252 -2.614,-4.176 -3.705,-6.171 -1.019,-1.85 -1.771,-3.85 -2.231,-5.9337 -0.658,-3.0193 -0.705,-6.1508 -0.139,-9.1907 0.201,-1.1114 0.506,-2.199 0.91,-3.2471 -0.012,0.0721 -0.03,0.1431 -0.053,0.2121 -0.048,0.1565 -0.11,0.3636 -0.187,0.6262 -0.228,0.7987 -0.416,1.6095 -0.565,2.429 -0.519,3.024 -0.443,6.1286 0.225,9.12 0.467,2.0582 1.221,4.0322 2.236,5.8582 1.092,1.974 2.552,3.888 3.734,6.171 1.275,2.391 1.8,5.147 1.499,7.872 -0.273,2.818 -1.183,5.596 -2.054,8.413004 -0.871,2.818 -1.661,5.621 -1.762,8.409 -0.039,2.683 0.305,5.357 1.02,7.933 0.632,2.479 1.408,4.787 2.078,6.969 0.657,2.014 1.184,4.072 1.58,6.161 0.732,3.837 0.522,7.069 -0.024,9.185 -0.204,0.812 -0.48,1.601 -0.824,2.359 l -0.287,0.575 c -0.029,0.066 -0.064,0.129 -0.105,0.187 z"
      fill="#263238" id="path6" />
   <path
      d="m 190.66,65.188166 c 0,0 -2.212,-7.4684 1.762,-11.8416 0.03,-0.0361 0.069,-0.0625 0.113,-0.076 0.043,-0.0135 0.09,-0.0137 0.133,-4e-4 0.044,0.0132 0.083,0.0393 0.113,0.0752 0.031,0.0359 0.05,0.0801 0.058,0.1274 0.215,1.2322 0.478,4.9944 -2.179,11.7154 z"
      fill="#b7db24" id="path8" />
   <path
      d="m 191.986,55.851166 c -0.004,0.4621 -0.053,0.9224 -0.148,1.3736 -0.144,0.9544 -0.316,2.0654 -0.503,3.2974 l -0.478,3.298 c -0.037,0.461 -0.115,0.918 -0.235,1.363 -0.039,-0.463 -0.026,-0.929 0.038,-1.389 0.077,-0.853 0.221,-2.019 0.417,-3.317 0.196,-1.298 0.416,-2.4495 0.589,-3.2878 0.061,-0.4569 0.168,-0.9055 0.32,-1.3382 z"
      fill="#263238" id="path10" />
   <path
      d="m 193.265,82.812166 c 0,0 1.355,-7.696 6.808,-9.594 0.042,-0.016 0.089,-0.018 0.133,-0.008 0.044,0.011 0.085,0.034 0.117,0.068 0.032,0.033 0.055,0.076 0.066,0.122 0.01,0.047 0.009,0.095 -0.005,0.141 -0.359,1.186 -1.791,4.636 -7.119,9.271 z"
      fill="#b7db24" id="path12" />
   <path
      d="m 198.584,75.197166 c -0.209,0.409 -0.457,0.793 -0.742,1.146 l -1.915,2.662 -1.915,2.666 c -0.239,0.389 -0.512,0.754 -0.814,1.091 0.173,-0.427 0.391,-0.832 0.651,-1.207 0.445,-0.717 1.091,-1.687 1.838,-2.727 0.747,-1.04 1.436,-1.959 1.977,-2.616 0.27,-0.373 0.579,-0.713 0.92,-1.015 z"
      fill="#263238" id="path14" />
   <path
      d="m 191.79,102.12317 c 0,0 -0.823,-7.782 3.868,-11.276 0.038,-0.028 0.081,-0.044 0.126,-0.048 0.046,-0.003 0.091,0.007 0.132,0.028 0.04,0.022 0.074,0.055 0.098,0.096 0.024,0.041 0.037,0.088 0.037,0.136 -0.014,1.252 -0.436,4.994 -4.261,11.064 z"
      fill="#b7db24" id="path16" />
   <path
      d="m 194.787,93.22017 c -0.092,0.454 -0.225,0.897 -0.397,1.323 l -1.092,3.131 c -0.407,1.172 -0.771,2.232 -1.082,3.136 -0.123,0.445 -0.283,0.878 -0.479,1.293 0.047,-0.462 0.145,-0.916 0.293,-1.353 0.225,-0.829 0.579,-1.95 1.005,-3.177 0.426,-1.227 0.852,-2.323 1.173,-3.106 0.146,-0.438 0.34,-0.856 0.579,-1.247 z"
      fill="#263238" id="path18" />
   <path
      d="m 195.898,121.54517 c 0,0 -0.56,-7.807 4.246,-11.11 0.038,-0.027 0.081,-0.043 0.127,-0.045 0.045,-0.003 0.09,0.008 0.13,0.031 0.04,0.023 0.073,0.058 0.095,0.099 0.022,0.042 0.033,0.089 0.031,0.137 -0.057,1.248 -0.603,4.969 -4.629,10.888 z"
      fill="#b7db24" id="path20" />
   <path
      d="m 199.192,112.74817 c -0.103,0.449 -0.251,0.886 -0.441,1.303 -0.345,0.894 -0.747,1.939 -1.197,3.09 -0.45,1.152 -0.847,2.202 -1.187,3.096 -0.138,0.439 -0.313,0.865 -0.522,1.272 0.059,-0.46 0.172,-0.911 0.335,-1.343 0.254,-0.818 0.647,-1.924 1.116,-3.136 0.469,-1.212 0.929,-2.287 1.278,-3.06 0.161,-0.431 0.368,-0.841 0.618,-1.222 z"
      fill="#263238" id="path22" />
   <path
      d="m 187.477,58.623166 c 0,0 -6.578,-3.6204 -6.703,-9.6802 -0.002,-0.0479 0.009,-0.0953 0.031,-0.1371 0.023,-0.0417 0.056,-0.076 0.095,-0.0991 0.04,-0.0231 0.085,-0.034 0.131,-0.0315 0.045,0.0025 0.089,0.0182 0.126,0.0455 0.977,0.712 3.682,3.1713 6.32,9.9024 z"
      fill="#b7db24" id="path24" />
   <path
      d="m 182.138,51.023566 c 0.305,0.3341 0.579,0.6976 0.819,1.0857 0.532,0.7827 1.159,1.6968 1.853,2.7067 l 1.862,2.6967 c 0.284,0.3536 0.534,0.7359 0.747,1.1415 -0.336,-0.299 -0.638,-0.638 -0.9,-1.0103 -0.522,-0.6615 -1.211,-1.5957 -1.915,-2.6562 -0.704,-1.0604 -1.35,-2.0199 -1.79,-2.7572 -0.27,-0.3724 -0.497,-0.7776 -0.676,-1.2069 z"
      fill="#263238" id="path26" />
   <path
      d="m 194.557,74.672166 c 0,0 -6.774,-3.197 -7.253,-9.231 -0.005,-0.048 0.003,-0.096 0.023,-0.139 0.02,-0.043 0.051,-0.08 0.089,-0.105 0.038,-0.026 0.083,-0.04 0.128,-0.04 0.045,-0.001 0.09,0.012 0.129,0.036 1.005,0.647 3.849,2.924 6.884,9.479 z"
      fill="#b7db24" id="path28" />
   <path
      d="m 188.774,67.430166 c 0.325,0.305 0.62,0.643 0.881,1.01 l 2.006,2.581 2.011,2.57 c 0.303,0.336 0.575,0.701 0.814,1.091 -0.353,-0.277 -0.674,-0.595 -0.958,-0.949 -0.56,-0.627 -1.297,-1.515 -2.083,-2.525 -0.785,-1.01 -1.465,-1.944 -1.948,-2.636 -0.28,-0.351 -0.523,-0.734 -0.723,-1.142 z"
      fill="#263238" id="path30" />
   <path
      d="m 190.646,92.56917 c 0,0 -4.654,-6.101 -2.47,-11.701004 0.016,-0.045 0.043,-0.084 0.079,-0.113 0.036,-0.03 0.08,-0.048 0.125,-0.052 0.045,-0.005 0.091,0.004 0.132,0.025 0.041,0.021 0.075,0.054 0.099,0.095 0.623,1.065 2.174,4.464004 2.035,11.746004 z"
      fill="#b7db24" id="path32" />
   <path
      d="m 188.635,83.348166 c 0.156,0.434 0.27,0.884 0.34,1.343 0.192,0.939004 0.421,2.045004 0.67,3.262004 l 0.68,3.257 c 0.125,0.444 0.212,0.899 0.259,1.359 -0.201,-0.415 -0.351,-0.854 -0.446,-1.308 -0.229,-0.823 -0.478,-1.97 -0.761,-3.247 -0.282,-1.278 -0.479,-2.439 -0.593,-3.283004 -0.098,-0.454 -0.148,-0.918 -0.149,-1.383 z"
      fill="#263238" id="path34" />
   <path
      d="m 195.252,113.63217 c 0,0 -6.703,-3.313 -7.105,-9.358 -0.005,-0.048 0.004,-0.096 0.024,-0.139 0.021,-0.043 0.052,-0.079 0.091,-0.105 0.039,-0.025 0.084,-0.038 0.129,-0.038 0.046,0 0.091,0.014 0.129,0.04 1.006,0.667 3.816,2.995 6.732,9.6 z"
      fill="#b7db24" id="path36" />
   <path
      d="m 189.597,106.28917 c 0.324,0.315 0.615,0.665 0.867,1.045 l 1.963,2.616 1.972,2.611 c 0.299,0.339 0.565,0.707 0.795,1.101 -0.354,-0.282 -0.676,-0.607 -0.957,-0.97 -0.546,-0.631 -1.274,-1.515 -2.04,-2.56 -0.766,-1.045 -1.436,-1.974 -1.915,-2.671 -0.267,-0.364 -0.497,-0.757 -0.685,-1.172 z"
      fill="#263238" id="path38" />
   <path
      d="m 208.642,82.853166 c 0,0 0,0.06 0,0.176 0,0.117 0,0.298 0,0.505 -0.024,0.47 -0.048,1.106 -0.081,1.894004 -0.086,1.672 -0.206,4 -0.354,6.782 -0.479,2.833 -1.848,5.974 -3.687,9.019 -1.345,2.247 -2.757,4.288 -3.978,6.186 -1.106,1.66 -2.102,3.398 -2.983,5.202 -0.574,1.224 -1.041,2.502 -1.393,3.817 -0.12,0.47 -0.211,0.834 -0.259,1.081 -0.021,0.129 -0.055,0.256 -0.1,0.379 0.001,-0.131 0.016,-0.261 0.043,-0.389 0.033,-0.253 0.105,-0.621 0.211,-1.096 0.313,-1.337 0.755,-2.637 1.321,-3.878 0.86,-1.828 1.846,-3.586 2.949,-5.262 1.211,-1.914 2.614,-3.959 3.955,-6.191 1.828,-3.03 3.188,-6.126 3.686,-8.913 0.187,-2.783 0.34,-5.106 0.45,-6.772 0.061,-0.791004 0.109,-1.423004 0.144,-1.894004 0,-0.202 0.038,-0.363 0.048,-0.505 0.005,-0.048 0.015,-0.095 0.028,-0.141 z"
      fill="#263238" id="path40" />
   <path
      d="m 204.64,100.65917 c 0,0 2.844,-7.232 -0.733,-11.984 -0.027,-0.038 -0.064,-0.068 -0.107,-0.086 -0.042,-0.017 -0.089,-0.022 -0.133,-0.013 -0.045,0.009 -0.087,0.031 -0.121,0.064 -0.033,0.033 -0.057,0.075 -0.07,0.121 -0.301,1.227 -0.904,4.964 1.164,11.898 z"
      fill="#b7db24" id="path42" />
   <path
      d="m 204.132,91.20017 c 0.124,0.446 0.199,0.905 0.225,1.369 0.101,0.848 0.216,2.02 0.302,3.328 0.086,1.307 0.129,2.484 0.129,3.343 0.027,0.462 10e-4,0.927 -0.076,1.383 -0.084,-0.454 -0.124,-0.916 -0.12,-1.378 -0.057,-0.96 -0.129,-2.086 -0.211,-3.328 -0.081,-1.243 -0.158,-2.374 -0.22,-3.333 -0.053,-0.459 -0.063,-0.923 -0.029,-1.384 z"
      fill="#263238" id="path44" />
   <g opacity="0.3" id="g48" transform="translate(5,-41.715834)">
      <path opacity="0.3"
         d="m 199.64,142.375 c 0,0 2.844,-7.232 -0.733,-11.984 -0.027,-0.038 -0.064,-0.068 -0.107,-0.086 -0.042,-0.017 -0.089,-0.022 -0.133,-0.013 -0.045,0.009 -0.087,0.031 -0.121,0.064 -0.033,0.033 -0.057,0.075 -0.07,0.121 -0.301,1.227 -0.904,4.964 1.164,11.898 z"
         fill="#000000" id="path46" />
   </g>
   <path
      d="m 195.821,118.08117 c 0,0 2.284,-7.449 -1.651,-11.862 -0.031,-0.036 -0.07,-0.062 -0.113,-0.076 -0.044,-0.013 -0.09,-0.014 -0.134,-0.001 -0.043,0.012 -0.083,0.038 -0.114,0.073 -0.031,0.035 -0.052,0.078 -0.061,0.125 -0.225,1.232 -0.522,4.989 2.073,11.741 z"
      fill="#b7db24" id="path50" />
   <path
      d="m 194.557,108.71317 c 0.16,0.433 0.271,0.884 0.331,1.343 0.167,0.839 0.368,2.02 0.56,3.293 0.191,1.272 0.321,2.464 0.383,3.318 0.065,0.459 0.075,0.926 0.029,1.388 -0.114,-0.446 -0.188,-0.902 -0.221,-1.363 -0.134,-0.949 -0.292,-2.065 -0.478,-3.303 -0.187,-1.237 -0.336,-2.348 -0.479,-3.297 -0.084,-0.454 -0.126,-0.916 -0.125,-1.379 z"
      fill="#263238" id="path52" />
   <g opacity="0.3" id="g56" transform="translate(5,-41.715834)">
      <path opacity="0.3"
         d="m 190.821,159.797 c 0,0 2.284,-7.449 -1.651,-11.862 -0.031,-0.036 -0.07,-0.062 -0.113,-0.076 -0.044,-0.013 -0.09,-0.014 -0.134,-0.001 -0.043,0.012 -0.083,0.038 -0.114,0.073 -0.031,0.035 -0.052,0.078 -0.061,0.125 -0.225,1.232 -0.522,4.989 2.073,11.741 z"
         fill="#000000" id="path54" />
   </g>
   <path
      d="m 208.269,91.82117 c 0,0 6.08,-4.489 5.462,-10.509004 -0.003,-0.048 -0.019,-0.094 -0.046,-0.132 -0.027,-0.039 -0.064,-0.069 -0.106,-0.087 -0.043,-0.018 -0.089,-0.023 -0.134,-0.014 -0.045,0.008 -0.087,0.03 -0.121,0.062 -0.88,0.838 -3.265,3.646 -5.055,10.680004 z"
      fill="#b7db24" id="path58" />
   <g opacity="0.3" id="g62" transform="translate(5,-41.715834)">
      <path opacity="0.3"
         d="m 203.269,133.537 c 0,0 6.08,-4.489 5.462,-10.509 -0.003,-0.048 -0.019,-0.094 -0.046,-0.132 -0.027,-0.039 -0.064,-0.069 -0.106,-0.087 -0.043,-0.018 -0.089,-0.023 -0.134,-0.014 -0.045,0.008 -0.087,0.03 -0.121,0.062 -0.88,0.838 -3.265,3.646 -5.055,10.68 z"
         fill="#000000" id="path60" />
   </g>
   <path
      d="m 212.635,83.560166 c -0.123,0.446 -0.293,0.876 -0.507,1.282 -0.345,0.773004 -0.848,1.828004 -1.437,2.980004 -0.589,1.151 -1.154,2.171 -1.594,2.893 -0.214,0.407 -0.473,0.785 -0.771,1.126 0.165,-0.429 0.367,-0.842 0.603,-1.232 l 1.518,-2.929 c 0.56,-1.095 1.073,-2.085 1.508,-2.934004 0.184,-0.421 0.412,-0.819 0.68,-1.186 z"
      fill="#263238" id="path64" />
   <path
      d="m 198.272,110.69817 c 0,0 7.335,-1.207 9.298,-6.903 0.016,-0.045 0.02,-0.094 0.011,-0.141 -0.009,-0.047 -0.03,-0.09 -0.06,-0.126 -0.031,-0.035 -0.071,-0.06 -0.114,-0.073 -0.044,-0.013 -0.09,-0.012 -0.134,0.001 -1.139,0.369 -4.452,1.752 -9.001,7.242 z"
      fill="#b7db24" id="path66" />
   <g opacity="0.3" id="g70" transform="translate(5,-41.715834)">
      <path opacity="0.3"
         d="m 193.272,152.414 c 0,0 7.335,-1.207 9.298,-6.903 0.016,-0.045 0.02,-0.094 0.011,-0.141 -0.009,-0.047 -0.03,-0.09 -0.06,-0.126 -0.031,-0.035 -0.071,-0.06 -0.114,-0.073 -0.044,-0.013 -0.09,-0.012 -0.134,0.001 -1.139,0.369 -4.452,1.752 -9.001,7.242 z"
         fill="#000000" id="path68" />
   </g>
   <path
      d="m 205.645,105.30417 c -0.296,0.344 -0.629,0.65 -0.991,0.914 -0.632,0.536 -1.527,1.253 -2.537,2.02 -1.01,0.768 -1.939,1.414 -2.633,1.859 -0.361,0.268 -0.751,0.487 -1.164,0.651 0.327,-0.307 0.68,-0.582 1.054,-0.823 l 2.585,-1.924 2.58,-1.934 c 0.344,-0.293 0.714,-0.548 1.106,-0.763 z"
      fill="#263238" id="path72" />
   <path d="m 191.278,124.92817 -2.14,15.19 h 13.328 l -1.723,-15.19 z" fill="#455a64" id="path74" />
   <path
      d="m 201.26,129.63517 c -1.789,0.146 -3.583,0.195 -5.377,0.146 -1.793,0.049 -3.587,0 -5.376,-0.146 1.789,-0.146 3.583,-0.195 5.376,-0.147 1.794,-0.048 3.588,0.001 5.377,0.147 z"
      fill="#263238" id="path76" />
   <path
      d="m 201.538,130.84717 c 0,0.081 -2.485,0.146 -5.554,0.146 -3.069,0 -5.549,-0.065 -5.549,-0.146 0,-0.081 2.485,-0.147 5.549,-0.147 3.064,0 5.554,0.066 5.554,0.147 z"
      fill="#263238" id="path78" />
   <path
      d="m 195.869,160.00017 c 1.211,-7.944 0.067,-16.362 -3.701,-23.356 -3.767,-6.994 -10.24,-12.433 -17.68,-14.205 -7.44,-1.773 -15.732,0.343 -21.237,5.913 -6.267,-0.747 -12.721,-0.666 -18.744,1.298 -6.022,1.964 -11.614,5.989 -14.755,11.741 -3.14,5.752 -3.499,13.367 -0.124,18.987 z"
      fill="#b7db24" id="path80" />
   <path
      d="m 171.122,121.82817 c 0,0.06 -0.866,0.03 -2.207,0.384 l -0.522,0.146 -0.555,0.207 c -0.406,0.146 -0.803,0.314 -1.192,0.505 -0.884,0.464 -1.721,1.021 -2.499,1.661 -0.77,0.657 -1.478,1.389 -2.116,2.187 -0.268,0.389 -0.556,0.732 -0.766,1.101 l -0.321,0.505 -0.258,0.505 c -0.656,1.283 -0.853,2.176 -0.905,2.156 0.027,-0.211 0.073,-0.419 0.139,-0.621 0.023,-0.106 0.052,-0.212 0.086,-0.333 l 0.139,-0.379 c 0.108,-0.312 0.236,-0.615 0.383,-0.909 l 0.249,-0.505 c 0.105,-0.172 0.21,-0.348 0.315,-0.535 0.206,-0.379 0.479,-0.732 0.762,-1.131 0.638,-0.822 1.353,-1.573 2.135,-2.243 0.794,-0.651 1.651,-1.213 2.556,-1.676 0.4,-0.191 0.81,-0.359 1.226,-0.505 l 0.57,-0.197 0.536,-0.131 c 0.306,-0.077 0.616,-0.133 0.929,-0.167 l 0.388,-0.05 h 0.325 c 0.201,-0.017 0.404,-0.008 0.603,0.025 z"
      fill="#fafafa" id="path82" />
   <path
      d="m 152.159,130.73617 c -0.038,0.007 -0.077,0.007 -0.115,0 l -0.325,0.035 c -0.293,0.04 -0.723,0.056 -1.269,0.136 -1.552,0.197 -3.086,0.517 -4.591,0.96 -1.038,0.304 -2.061,0.663 -3.064,1.075 -1.147,0.481 -2.266,1.033 -3.352,1.652 -2.494,1.421 -4.784,3.208 -6.803,5.307 -1.039,1.09 -2.01,2.251 -2.906,3.475 -0.821,1.149 -1.574,2.352 -2.255,3.6 -1.919,3.565 -3.135,7.502 -3.576,11.574 -0.077,0.576 -0.091,1.01 -0.124,1.339 0,0.141 0,0.252 -0.034,0.348 0.005,0.039 0.005,0.078 0,0.116 -0.005,-0.038 -0.005,-0.077 0,-0.116 0,-0.096 0,-0.212 0,-0.353 0,-0.308 0,-0.763 0.077,-1.344 0.137,-1.649 0.414,-3.281 0.828,-4.878 0.61,-2.374 1.497,-4.659 2.643,-6.802 0.678,-1.265 1.435,-2.481 2.264,-3.641 0.898,-1.236 1.873,-2.407 2.92,-3.505 2.034,-2.118 4.348,-3.914 6.871,-5.332 1.097,-0.62 2.229,-1.169 3.389,-1.647 1.014,-0.404 2.046,-0.755 3.093,-1.05 1.517,-0.428 3.066,-0.722 4.629,-0.879 0.551,-0.065 0.958,-0.065 1.274,-0.085 h 0.33 c 0.033,0.001 0.065,0.006 0.096,0.015 z"
      fill="#fafafa" id="path84" />
   <path
      d="m 173.914,124.98917 c -0.123,0.013 -0.247,0.013 -0.369,0 -0.244,0 -0.603,-0.025 -1.063,0 -1.298,0.06 -2.584,0.286 -3.83,0.672 -1.852,0.564 -3.597,1.464 -5.156,2.661 -0.924,0.695 -1.773,1.494 -2.533,2.383 -0.828,0.943 -1.54,1.992 -2.121,3.121 l -0.306,0.606 -0.057,0.111 -0.111,-0.05 c -2.085,-0.983 -4.374,-1.39 -6.649,-1.182 -0.988,0.09 -1.964,0.281 -2.916,0.571 -0.824,0.263 -1.625,0.601 -2.394,1.01 -1.121,0.599 -2.157,1.36 -3.078,2.262 -0.642,0.636 -0.958,1.01 -0.982,1.01 0.068,-0.104 0.143,-0.202 0.225,-0.293 0.217,-0.276 0.449,-0.539 0.695,-0.788 0.903,-0.928 1.933,-1.709 3.054,-2.318 0.775,-0.424 1.584,-0.775 2.418,-1.05 0.965,-0.302 1.956,-0.504 2.958,-0.601 2.317,-0.225 4.65,0.182 6.775,1.182 l -0.163,0.06 0.316,-0.616 c 0.587,-1.149 1.311,-2.215 2.154,-3.171 0.774,-0.899 1.639,-1.705 2.581,-2.404 1.585,-1.203 3.36,-2.099 5.242,-2.646 1.263,-0.371 2.567,-0.57 3.878,-0.591 0.479,0 0.823,0.031 1.068,0.036 0.121,-0.006 0.243,0.002 0.364,0.025 z"
      fill="#263238" id="path86" />
   <g opacity="0.2" id="g90" transform="translate(5,-41.715834)">
      <path opacity="0.2"
         d="m 139.035,178.128 c 0.412,-1.796 1.163,-3.485 2.208,-4.967 1.046,-1.482 2.364,-2.727 3.876,-3.659 3.012,-1.767 6.497,-2.469 9.939,-2.625 2.116,-0.101 4.386,0.045 6.095,1.368 0,0 -4.472,1.692 -7.737,7.868 -2.318,-1.198 -4.921,-1.645 -7.479,-1.287 -2.559,0.359 -4.961,1.507 -6.902,3.302 z"
         fill="#000000" id="path88" />
   </g>
   <path
      d="m 144.681,160.38317 c -0.036,-0.095 -0.065,-0.193 -0.086,-0.292 -0.048,-0.223 -0.115,-0.505 -0.197,-0.859 -0.043,-0.192 -0.086,-0.399 -0.138,-0.626 -0.053,-0.227 -0.072,-0.505 -0.111,-0.753 -0.1,-0.609 -0.168,-1.225 -0.201,-1.843 0,-0.343 -0.038,-0.707 -0.062,-1.08 -0.024,-0.374 0,-0.768 0,-1.172 0.015,-0.863 0.074,-1.724 0.177,-2.58 0.486,-3.942 1.844,-7.708 3.964,-10.994 l 0.728,-1.086 c 0.23,-0.358 0.508,-0.661 0.742,-0.979 0.235,-0.319 0.479,-0.627 0.723,-0.894 l 0.709,-0.778 c 0.435,-0.505 0.904,-0.899 1.283,-1.272 0.325,-0.318 0.668,-0.613 1.029,-0.884 l 0.67,-0.53 c 0.158,-0.117 0.24,-0.177 0.249,-0.167 -0.066,0.075 -0.138,0.144 -0.215,0.207 l -0.647,0.566 c -0.346,0.288 -0.678,0.595 -0.995,0.919 -0.369,0.378 -0.819,0.772 -1.25,1.287 l -0.689,0.788 c -0.249,0.268 -0.479,0.586 -0.704,0.894 -0.225,0.308 -0.503,0.626 -0.728,0.98 l -0.713,1.085 c -1.017,1.64 -1.87,3.387 -2.547,5.212 -0.649,1.833 -1.113,3.734 -1.384,5.671 -0.107,0.847 -0.172,1.7 -0.196,2.555 0,0.404 -0.038,0.788 0,1.162 0.038,0.373 0.029,0.732 0.043,1.07 0.024,0.615 0.078,1.229 0.163,1.838 0.033,0.268 0.048,0.505 0.091,0.753 0.043,0.247 0.076,0.434 0.115,0.626 0.062,0.353 0.11,0.641 0.153,0.863 0.019,0.104 0.027,0.209 0.024,0.313 z"
      fill="#fafafa" id="path92" />
   <path
      d="m 170.194,160.12617 c 0,0 -0.082,-0.056 -0.225,-0.187 l -0.623,-0.571 c -0.263,-0.252 -0.593,-0.555 -0.957,-0.944 -0.364,-0.389 -0.781,-0.803 -1.188,-1.323 -0.407,-0.52 -0.895,-1.06 -1.34,-1.702 -0.225,-0.318 -0.479,-0.636 -0.699,-0.985 l -0.689,-1.1 c -0.996,-1.634 -1.857,-3.354 -2.576,-5.141 -1.266,-3.264 -2.144,-6.68 -2.614,-10.171 -0.182,-1.333 -0.302,-2.419 -0.354,-3.171 -0.024,-0.353 -0.044,-0.641 -0.058,-0.869 -0.014,-0.1 -0.014,-0.202 0,-0.303 0.025,0.098 0.042,0.198 0.053,0.298 0.028,0.228 0.062,0.505 0.105,0.864 0.081,0.747 0.23,1.828 0.436,3.156 0.52,3.463 1.414,6.852 2.666,10.1 0.714,1.773 1.563,3.482 2.538,5.11 l 0.684,1.076 c 0.221,0.353 0.479,0.672 0.685,1.01 0.44,0.641 0.9,1.192 1.307,1.712 0.407,0.52 0.823,0.939 1.159,1.338 0.335,0.399 0.66,0.712 0.914,0.975 l 0.589,0.606 c 0.069,0.067 0.131,0.142 0.187,0.222 z"
      fill="#fafafa" id="path94" />
   <path
      d="m 189.626,160.03017 c -0.007,-0.043 -0.007,-0.088 0,-0.131 v -1.818 c 0,-1.253 -0.048,-3.066 -0.268,-5.293 -0.258,-2.608 -0.761,-5.183 -1.503,-7.685 -0.881,-3.071 -2.23,-5.971 -3.993,-8.585 -0.916,-1.346 -1.959,-2.592 -3.112,-3.717 -1.081,-1.039 -2.266,-1.951 -3.533,-2.722 -2.158,-1.297 -4.542,-2.121 -7.009,-2.424 -1.664,-0.197 -3.347,-0.122 -4.989,0.222 l -0.77,0.187 c -0.221,0.061 -0.403,0.121 -0.556,0.167 l -0.34,0.101 -0.119,0.025 c 0,0 0.033,0 0.11,-0.05 l 0.335,-0.127 c 0.148,-0.05 0.33,-0.126 0.55,-0.191 l 0.771,-0.207 c 1.649,-0.392 3.346,-0.498 5.027,-0.314 2.495,0.282 4.91,1.098 7.095,2.399 1.29,0.771 2.494,1.691 3.591,2.742 1.169,1.136 2.226,2.393 3.155,3.752 1.776,2.64 3.129,5.569 4.007,8.671 0.728,2.52 1.21,5.112 1.436,7.736 0.155,1.766 0.217,3.54 0.187,5.313 0,0.631 -0.029,1.116 -0.048,1.444 v 0.379 c -0.002,0.043 -0.01,0.085 -0.024,0.126 z"
      fill="#fafafa" id="path96" />
   <path
      d="m 115.084,32.965266 c -0.349,-0.1669 -0.663,-0.4068 -0.922,-0.7052 -0.259,-0.2984 -0.458,-0.6491 -0.585,-1.0309 -0.127,-0.3818 -0.18,-0.7869 -0.154,-1.1906 0.025,-0.4038 0.128,-0.7979 0.302,-1.1587 0.541,-1.0099 1.627,-1.621 1.972,-2.7067 0.191,-0.8291 0.102,-1.7027 -0.254,-2.4694 -0.357,-0.7584 -0.628,-1.5584 -0.809,-2.3835 -0.082,-0.4153 -0.051,-0.8467 0.091,-1.2438 0.141,-0.3971 0.387,-0.7434 0.709,-0.9984 0.957,-0.606 2.193,0.101 2.939,0.9747 0.776,0.9282 1.324,2.0428 1.597,3.2462 0.273,1.2034 0.262,2.4589 -0.031,3.6569 -0.263,1.0353 -0.737,1.9947 -1.039,3.03 -0.364,1.01 -0.364,2.1259 0,3.1359"
      fill="#f5f5f5" id="path98" />
   <path
      d="m 116.195,22.052466 c 0,0 0.12,0.0758 0.283,0.2727 0.231,0.2864 0.414,0.6126 0.541,0.9645 0.189,0.523 0.274,1.0819 0.248,1.6412 -0.033,0.6938 -0.251,1.3638 -0.627,1.9341 -0.414,0.4937 -0.793,1.0186 -1.134,1.5706 -0.222,0.469 -0.321,0.992 -0.288,1.5149 0.048,0.4892 0.176,0.966 0.379,1.4089 -0.1,-0.0901 -0.18,-0.2021 -0.235,-0.3282 -0.174,-0.3289 -0.283,-0.6912 -0.321,-1.0655 -0.061,-0.5635 0.028,-1.1339 0.259,-1.6463 0.334,-0.5729 0.715,-1.1137 1.139,-1.616 0.348,-0.5323 0.554,-1.153 0.599,-1.7977 0.036,-0.5297 -0.028,-1.0617 -0.187,-1.5655 -0.169,-0.4552 -0.389,-0.8875 -0.656,-1.2877 z"
      fill="#263238" id="path100" />
   <path
      d="m 117.904,21.855566 c 0,0 0.12,0.0758 0.287,0.2778 0.228,0.2869 0.409,0.611 0.537,0.9594 0.19,0.5246 0.275,1.0852 0.249,1.6463 -0.034,0.6922 -0.252,1.3605 -0.628,1.929 -0.412,0.4947 -0.792,1.0195 -1.134,1.5706 -0.222,0.469 -0.321,0.992 -0.287,1.5149 0.047,0.4892 0.175,0.966 0.378,1.4089 0,0 -0.11,-0.0959 -0.235,-0.3232 -0.173,-0.331 -0.282,-0.6948 -0.321,-1.0705 -0.061,-0.5635 0.028,-1.1339 0.259,-1.6463 0.335,-0.5721 0.716,-1.1127 1.139,-1.616 0.349,-0.5301 0.555,-1.1493 0.599,-1.7927 0.038,-0.5297 -0.025,-1.0622 -0.187,-1.5654 -0.17,-0.4565 -0.39,-0.8903 -0.656,-1.2928 z"
      fill="#263238" id="path102" />
   <path
      d="m 113.203,10.730666 c -0.209,0.1299 -0.386,0.3093 -0.517,0.5241 -0.132,0.2148 -0.213,0.459 -0.24,0.7131 -0.043,0.5137 0.065,1.0291 0.312,1.4746 0.188,0.3747 0.47,0.6887 0.814,0.909 0.171,0.1092 0.361,0.1807 0.56,0.2102 0.198,0.0295 0.4,0.0164 0.593,-0.0385 0.245,-0.0974 0.467,-0.2513 0.648,-0.4505 0.182,-0.1992 0.318,-0.4387 0.401,-0.7009 0.164,-0.4111 0.218,-0.8621 0.155,-1.3033 -0.064,-0.4411 -0.242,-0.8552 -0.514,-1.1964 -0.288,-0.3249 -0.683,-0.5207 -1.103,-0.547 -0.421,-0.0263 -0.835,0.1189 -1.157,0.4056"
      fill="#f5f5f5" id="path104" />
   <path
      d="m 119.317,34.308566 c 0,-0.0455 0.143,-0.1818 0.478,-0.3081 0.49,-0.1664 1.009,-0.2131 1.518,-0.1363 0.778,0.1127 1.507,0.4639 2.097,1.01 0.513,0.4758 0.9,1.0844 1.123,1.7659 0.222,0.6815 0.273,1.4124 0.146,2.1207 -0.127,0.7083 -0.426,1.3697 -0.868,1.919 -0.443,0.5493 -1.013,0.9675 -1.655,1.2137 -0.483,0.1903 -1,0.2629 -1.513,0.212 -0.359,-0.0404 -0.541,-0.1363 -0.537,-0.1818 0,-0.1363 0.795,0 1.844,-0.5453 0.595,-0.3077 1.103,-0.7743 1.474,-1.3534 0.427,-0.7132 0.611,-1.5577 0.524,-2.3959 -0.087,-0.8381 -0.44,-1.6205 -1.002,-2.2197 -0.481,-0.481 -1.074,-0.819 -1.719,-0.9796 -1.135,-0.2929 -1.877,0.005 -1.91,-0.1212 z"
      fill="#455a64" id="path106" />
   <path
      d="m 111.216,32.424866 0.747,10.9381 c 0.028,0.409 0.203,0.7911 0.49,1.0681 0.287,0.277 0.663,0.4278 1.051,0.4216 l 6.368,-0.1111 c 0.398,-0.0066 0.778,-0.1782 1.058,-0.4777 0.279,-0.2995 0.436,-0.7029 0.436,-1.1231 v -10.7159 z"
      fill="#455a64" id="path108" />
   <path
      d="m 105.643,39.651366 5.97,-3.1461 3.007,-0.2373 2.873,-0.2727 c 0,0 0.32,1.1311 -1.743,1.8684 -1.681,0.5959 -3.222,1.111 -3.222,1.111 0,0 0.479,2.9845 -1.087,4.6307 -0.893,0.9609 -1.936,1.7534 -3.083,2.3432 z"
      fill="#ffbe9d" id="path110" />
   <path
      d="m 9.89765,18.244966 10.05385,98.629204 45.8788,11.615 46.6687,-14.261 c 0,0 5.836,-47.934004 -33.3211,-53.685004 0,0 1.8624,-41.773 -13.1465,-48.555 z"
      fill="#b7db24" id="path112" />
   <path
      d="m 59.6975,12.695066 0.2394,0.1111 c 0.2326,0.1163 0.458,0.2478 0.675,0.3939 0.8389,0.569 1.5871,1.2747 2.2166,2.0907 1.6852,2.1007 3.3513,5.777 4.553,10.6047 1.2016,4.8277 2.0969,10.7512 2.6379,17.4574 0.5652,7.3905 0.7522,14.8078 0.5601,22.2193 l -0.1053,-0.131 c 1.1729,0.182 2.3938,0.318 3.5667,0.545 1.173,0.228 2.3938,0.465 3.5954,0.844 2.4482,0.654 4.8259,1.573 7.0952,2.742 3.1468,1.614 6.0106,3.781 8.4691,6.408 0.2872,0.333 0.5697,0.667 0.857,1.01 l 0.426,0.505 0.3926,0.505 0.7852,1.04 c 0.2393,0.364 0.4787,0.727 0.7133,1.086 0.4788,0.707 0.8809,1.48 1.3118,2.212 l 0.5697,1.141 0.2825,0.571 0.2537,0.58 c 1.3061,2.984004 2.2364,6.135004 2.7672,9.373004 0.2562,1.52 0.4305,3.054 0.5218,4.595 0.0934,1.472 0.0934,2.948 0,4.419 v 0.076 h -0.0718 l -20.7778,5.555 -5.7881,1.515 -1.5177,0.393 c -0.3447,0.086 -0.5266,0.122 -0.5266,0.122 l 0.517,-0.157 1.5129,-0.424 5.7737,-1.591 20.7588,-5.656 -0.0766,0.096 c 0.0908,-1.459 0.0908,-2.923 0,-4.383 -0.0931,-1.533 -0.2689,-3.059 -0.5267,-4.57 -0.5311,-3.216 -1.4598,-6.345 -2.7624,-9.307004 l -0.2681,-0.556 -0.2824,-0.565 -0.5698,-1.131 c -0.4308,-0.727 -0.8138,-1.515 -1.3022,-2.197 l -0.7181,-1.076 -0.7756,-1.035 -0.3925,-0.505 -0.4214,-0.505 -0.8521,-0.985 c -2.4394,-2.604 -5.2805,-4.752 -8.4021,-6.352 -2.2541,-1.162 -4.6156,-2.076 -7.0473,-2.727 -1.1825,-0.374 -2.3937,-0.571 -3.5763,-0.838 -1.1825,-0.268 -2.3937,-0.364 -3.5523,-0.551 h -0.1101 v -0.116 c 0.1954,-7.3944 0.018,-14.7945 -0.5314,-22.169 -0.5267,-6.7012 -1.3741,-12.6247 -2.5805,-17.4322 -1.2065,-4.8075 -2.8103,-8.4787 -4.4668,-10.6047 -0.6197,-0.8149 -1.3525,-1.5265 -2.1735,-2.1109 -0.2135,-0.1481 -0.434,-0.2846 -0.6607,-0.409 z"
      fill="#263238" id="path114" />
   <path
      d="m 72.3605,99.16417 c 0.031,0.088 0.0503,0.179 0.0574,0.273 0.0288,0.207 0.067,0.464 0.1149,0.782 0.1006,0.682 0.2155,1.672 0.3447,2.899 0.249,2.449 0.4788,5.848 0.5841,9.595 0.1053,3.747 0.0479,7.17 0,9.635 -0.0335,1.202 -0.0622,2.186 -0.0862,2.914 0,0.323 -0.0287,0.585 -0.0383,0.792 0.0027,0.094 -0.007,0.187 -0.0287,0.278 -0.0113,-0.092 -0.0113,-0.185 0,-0.278 0,-0.212 0,-0.474 0,-0.792 0,-0.728 0,-1.717 0,-2.919 0,-2.465 0.0287,-5.863 -0.067,-9.62 -0.0958,-3.757 -0.3064,-7.151 -0.5123,-9.595 -0.1053,-1.197 -0.1963,-2.176 -0.2633,-2.899 -0.0287,-0.323 -0.0527,-0.58 -0.067,-0.792 -0.0241,-0.089 -0.037,-0.181 -0.0383,-0.273 z"
      fill="#263238" id="path116" />
   <path
      d="m 79.4939,60.164166 c -0.4461,0.259 -0.9065,0.49 -1.3788,0.692 -0.8522,0.409 -2.0203,1.01 -3.2842,1.711 -1.2639,0.702 -2.3698,1.425 -3.1646,1.95 -0.419,0.304 -0.8555,0.581 -1.307,0.828 0.3708,-0.369 0.7749,-0.699 1.2065,-0.985 1.0142,-0.733 2.0659,-1.408 3.1502,-2.02 1.0863,-0.619 2.2052,-1.172 3.3512,-1.656 0.4572,-0.225 0.9354,-0.399 1.4267,-0.52 z"
      fill="#263238" id="path118" />
   <path
      d="m 36.2625,41.519766 c -0.0459,-0.0924 -0.0798,-0.1909 -0.1005,-0.2929 -0.0622,-0.2222 -0.1436,-0.505 -0.2394,-0.8534 -0.2154,-0.7777 -0.5075,-1.8483 -0.8617,-3.1562 -0.9085,-3.4731 -2.1484,-6.84 -3.7008,-10.0493 -1.5784,-3.1939 -3.7989,-5.9858 -6.5062,-8.1808 -0.8282,-0.6513 -1.7094,-1.2242 -2.6332,-1.7119 -0.6559,-0.3434 -1.0341,-0.505 -1.0245,-0.505 0.0965,0.0236 0.191,0.0557 0.2825,0.096 0.1771,0.0808 0.45,0.1717 0.7803,0.3434 0.951,0.452 1.8558,1.0053 2.7002,1.6513 1.2537,0.956 2.3976,2.0626 3.4087,3.2976 1.2378,1.5073 2.315,3.1533 3.2124,4.9084 1.5635,3.2154 2.7869,6.6023 3.6481,10.0998 0.3495,1.3382 0.6128,2.4239 0.7852,3.1764 0.0814,0.3585 0.1484,0.6463 0.1963,0.8685 0.0292,0.1001 0.0468,0.2035 0.0526,0.3081 z"
      fill="#263238" id="path120" />
   <path
      d="m 40.2171,16.856166 1.958,23.9314 11.3656,-0.9544 c 0.0718,-1.3988 0,-6.8174 0,-6.8174 0,0 4.7253,-0.7726 4.7876,-5.7619 0.0287,-2.4189 -0.3017,-7.4233 -0.6464,-11.9328 -0.1885,-2.4055 -1.2628,-4.6375 -2.9926,-6.2176004 -1.7298,-1.5801 -3.9776,-2.3828 -6.2616,-2.2359 v 0 c -1.1659,0.0725 -2.3062,0.3903 -3.3539,0.9346 -1.0477,0.5444 -1.9815,1.3043 -2.7466,2.2350004 -0.7651,0.9308 -1.3459,2.0136 -1.7083,3.1847 -0.3624,1.171 -0.499,2.4067 -0.4018,3.6343 z"
      fill="#ffbe9d" id="path122" />
   <path d="m 53.5216,32.945066 c -2.1814,0.0471 -4.3266,-0.5929 -6.1616,-1.8381 0,0 1.4363,3.5904 6.176,3.141 z"
      fill="#eb996e" id="path124" />
   <path
      d="m 56.4995,18.633766 c 0.0025,0.1858 -0.0643,0.3652 -0.1862,0.4994 -0.1218,0.1342 -0.2889,0.2124 -0.4649,0.2177 -0.086,0.0083 -0.1727,-0.002 -0.2547,-0.0301 -0.0821,-0.0281 -0.1579,-0.0736 -0.2229,-0.1335 -0.0649,-0.06 -0.1176,-0.1333 -0.1548,-0.2154 -0.0373,-0.0822 -0.0583,-0.1714 -0.0618,-0.2624 -0.0014,-0.1854 0.0659,-0.3641 0.1875,-0.498 0.1216,-0.1339 0.2879,-0.2125 0.4636,-0.219 0.0856,-0.0069 0.1718,0.0043 0.2533,0.033 0.0815,0.0287 0.1568,0.0742 0.2214,0.1339 0.0646,0.0597 0.1173,0.1324 0.155,0.2139 0.0377,0.0814 0.0596,0.17 0.0645,0.2605 z"
      fill="#263238" id="path126" />
   <path
      d="m 56.6479,17.835866 c -0.0862,0.0909 -0.5937,-0.3081 -1.3214,-0.3081 -0.7277,0 -1.2591,0.3889 -1.3405,0.2929 -0.0814,-0.0959 0.0479,-0.207 0.2824,-0.3888 0.3136,-0.229 0.6863,-0.3507 1.0677,-0.3485 0.3778,0.0013 0.746,0.1266 1.0532,0.3586 0.225,0.1818 0.2873,0.3484 0.2586,0.3939 z"
      fill="#263238" id="path128" />
   <path
      d="m 49.3852,18.815566 c 0.0013,0.1854 -0.066,0.3641 -0.1875,0.498 -0.1216,0.1339 -0.288,0.2125 -0.4636,0.2191 -0.0859,0.0075 -0.1722,-0.0032 -0.254,-0.0316 -0.0818,-0.0284 -0.1574,-0.0739 -0.2221,-0.1337 -0.0648,-0.0599 -0.1175,-0.1329 -0.155,-0.2147 -0.0375,-0.0817 -0.0589,-0.1706 -0.0631,-0.2614 -0.0026,-0.1849 0.0636,-0.3636 0.1844,-0.4976 0.1208,-0.1341 0.2866,-0.2129 0.4619,-0.2194 0.0862,-0.0083 0.1731,0.0019 0.2554,0.0299 0.0824,0.0281 0.1585,0.0735 0.2238,0.1334 0.0653,0.0599 0.1184,0.1331 0.1562,0.2153 0.0378,0.0821 0.0594,0.1715 0.0636,0.2627 z"
      fill="#263238" id="path130" />
   <path
      d="m 49.4953,17.977266 c -0.0814,0.0909 -0.5937,-0.308 -1.3214,-0.303 -0.7277,0.0051 -1.2591,0.3838 -1.3357,0.2878 -0.0766,-0.0959 0.0431,-0.207 0.2777,-0.3837 0.3132,-0.2334 0.6889,-0.3555 1.0724,-0.3485 0.3771,-0.0036 0.7451,0.1222 1.0484,0.3586 0.2586,0.1767 0.3112,0.3484 0.2586,0.3888 z"
      fill="#263238" id="path132" />
   <path
      d="m 52.1428,23.658366 c 0.3825,-0.1244 0.778,-0.199 1.1777,-0.2222 0.1867,0 0.3639,-0.0606 0.3926,-0.1919 0.0148,-0.2023 -0.0286,-0.4047 -0.1245,-0.5807 l -0.5458,-1.4897 c -0.7612,-2.121 -1.3118,-3.8682 -1.2304,-3.8985 0.0814,-0.0303 0.7613,1.6614 1.5225,3.7823 0.1867,0.505 0.359,1.01 0.5266,1.515 0.1177,0.2356 0.1517,0.5079 0.0958,0.7676 -0.0272,0.0684 -0.0683,0.1296 -0.1204,0.1794 -0.0522,0.0497 -0.114,0.0867 -0.1813,0.1084 -0.1033,0.0281 -0.2093,0.0433 -0.3159,0.0455 -0.398,0.0493 -0.8002,0.0442 -1.1969,-0.0152 z"
      fill="#263238" id="path134" />
   <path
      d="m 50.0027,24.188566 c 0.1197,0 0.1197,0.8282 0.7948,1.414 0.675,0.5858 1.5176,0.505 1.5224,0.6161 0.0048,0.1111 -0.1867,0.1616 -0.541,0.1717 -0.4616,0.0081 -0.9111,-0.1565 -1.2687,-0.4646 -0.343,-0.297 -0.5642,-0.722 -0.6176,-1.1867 -0.0287,-0.3485 0.0814,-0.5555 0.1101,-0.5505 z"
      fill="#263238" id="path136" />
   <path
      d="m 49.6916,14.972566 c -0.0719,0.2071 -0.7948,0.1111 -1.6469,0.2172 -0.8522,0.106 -1.5416,0.3535 -1.6565,0.1666 -0.0479,-0.0858 0.0718,-0.2828 0.3495,-0.505 0.3681,-0.2528 0.7884,-0.4087 1.2256,-0.4545 0.4369,-0.0551 0.88,3e-4 1.2926,0.1616 0.3112,0.1515 0.4692,0.3182 0.4357,0.4141 z"
      fill="#263238" id="path138" />
   <path
      d="m 56.3797,15.613866 c -0.1292,0.1768 -0.6271,0 -1.2304,0 -0.6032,0 -1.1107,0.1212 -1.2304,-0.0656 -0.0478,-0.0859 0.0288,-0.2626 0.2538,-0.4242 0.2986,-0.1995 0.6472,-0.2999 1.0005,-0.2882 0.3534,0.0117 0.6953,0.135 0.9815,0.3538 0.2107,0.1616 0.2825,0.3434 0.225,0.4242 z"
      fill="#263238" id="path140" />
   <path
      d="m 45.3541,11.412466 h -0.0288 c -0.7497,0.6246 -1.2447,1.5279 -1.3836,2.5249 v 0.101 c -0.1867,1.419 -0.1532,2.8683 -0.3494,4.2874 -0.1306,1.4409 -0.7155,2.7941 -1.6613,3.8429 -0.4118,0.404 -1.1347,0.6817 -1.4698,0.2071 -0.1137,-0.1958 -0.1718,-0.4219 -0.1676,-0.6515 -0.2537,-3.4339 -1.1442,-6.479 -1.1394,-10.0694 -0.001,-0.4811 0.1065,-0.9556 0.3138,-1.3841 0.2073,-0.4285004 0.5084,-0.7988004 0.8783,-1.0803004 0.7133,-0.5403 1.5847,-1.1008 2.3938,-0.7019 0.8091,0.3989 1.8192,1.9594004 2.4368,2.6209004"
      fill="#263238" id="path142" />
   <path
      d="m 41.8352,19.113466 c -0.0766,-0.0404 -3.2459,-1.0099 -3.1454,2.3937 0.1006,3.4036 3.3513,2.5956 3.3513,2.4997 0,-0.096 -0.2059,-4.8934 -0.2059,-4.8934 z"
      fill="#ffbe9d" id="path144" />
   <path
      d="m 40.9735,22.749366 c 0,0 -0.0575,0.0404 -0.1532,0.0909 -0.0644,0.0331 -0.1344,0.0524 -0.2059,0.0567 -0.0715,0.0043 -0.1431,-0.0063 -0.2106,-0.0314 -0.2135,-0.1323 -0.3895,-0.3224 -0.5099,-0.5506 -0.1204,-0.2282 -0.1807,-0.4862 -0.1747,-0.7472 -0.0176,-0.2928 0.0265,-0.5859 0.1292,-0.8585 0.0277,-0.1075 0.0796,-0.2063 0.1513,-0.288 0.0717,-0.0818 0.161,-0.1441 0.2604,-0.1817 0.0639,-0.0186 0.1319,-0.0137 0.1928,0.0138 0.0609,0.0276 0.1111,0.0761 0.1424,0.1377 0.0478,0.096 0.0287,0.1667 0.0478,0.1717 0.0192,0.0051 0.0671,-0.0606 0.0336,-0.202 -0.0188,-0.0841 -0.0666,-0.1579 -0.1341,-0.207 -0.0441,-0.0347 -0.0945,-0.0593 -0.1481,-0.0723 -0.0535,-0.013 -0.1091,-0.0142 -0.1631,-0.0035 -0.1318,0.0319 -0.2538,0.0987 -0.3543,0.1941 -0.1006,0.0954 -0.1763,0.2164 -0.2202,0.3513 -0.1292,0.3006 -0.1852,0.6304 -0.1628,0.9595 -0.0105,0.3042 0.0661,0.6047 0.2198,0.8623 0.1537,0.2576 0.3774,0.4604 0.642,0.582 0.0877,0.0243 0.1796,0.027 0.2685,0.0077 0.0888,-0.0193 0.1723,-0.0599 0.2438,-0.1188 0.1005,-0.0859 0.1149,-0.1616 0.1053,-0.1667 z"
      fill="#eb996e" id="path146" />
   <path
      d="m 42.606,9.0238656 c -0.7995,-1.3635 1.3836,-3.3228 2.9779,-3.853 1.5942,-0.5303 3.6959,0.2929 5.2662,0.8483 1.0006,0.3485 1.9964,0.8383 3.0545,0.7929 0.7049,-0.0763 1.3954,-0.2618 2.049,-0.5505 0.6522,-0.2928 1.3547,-0.4406 2.0635,-0.4343 0.3554,0.0096 0.7017,0.1208 1.0019,0.3218 0.3002,0.2011 0.543,0.4843 0.7024,0.8195 0.0673,0.1698 0.0993,0.3528 0.0936,0.5368 -0.0057,0.1839 -0.0488,0.3644 -0.1265,0.5292 -0.0777,0.1647 -0.188,0.31 -0.3236,0.4258 -0.1356,0.1158 -0.2932,0.1995 -0.4621,0.2454 0.225,-0.1309 0.4768,-0.2023 0.7338,-0.208 0.2569,-0.0057 0.5114,0.0544 0.7415,0.1751 0.2301,0.1208 0.429,0.2985 0.5797,0.5182 0.1507,0.2196 0.2486,0.4745 0.2854,0.7428 0.0368,0.2683004 0.0114,0.5420004 -0.0741,0.7976004 -0.0854,0.2557 -0.2284,0.4857 -0.4166,0.6703 -0.1882,0.1846 -0.4161,0.3183 -0.664,0.3896 -0.248,0.0714 -0.5086,0.0782 -0.7597,0.02 0.4788,-0.3686 1.1634,0.2374 1.106,0.8434 -0.0638,0.2974 -0.199,0.5726 -0.3926,0.799 -0.1937,0.2264 -0.4394,0.3964 -0.7134,0.4937 -1.35,0.6212 -2.9203,0.4242 -4.3087,-0.0707 -1.3884,-0.4949 -2.6906,-1.2675 -4.0742,-1.7977 -1.3836,-0.5303 -3.696,-1.4897 -5.0844,-0.9696 -1.0245,0.3787 -1.733,1.6766 -2.3123,1.3887 -0.2701,-0.1519 -0.5032,-0.3678 -0.6809,-0.6306 -0.1778,-0.2628 -0.2954,-0.5655 -0.3437,-0.8843 -0.0781,-0.6476 -0.0554,-1.3043004 0.0671,-1.9442004"
      fill="#263238" id="path148" />
   <path
      d="m 59.3145,8.6147656 c -0.0287,0 -0.1676,0.2525 -0.5171,0.6464 -0.4941,0.5568 -1.1107,0.9765004 -1.7953,1.2221004 -1.0044,0.3832 -2.1113,0.3361 -3.0831,-0.1313 -1.0964,-0.5050004 -2.0395,-1.5604004 -3.1215,-2.5250004 -1.0038,-0.9914 -2.2724,-1.6331 -3.6337,-1.8381 -0.562,-0.0718 -1.1321,-0.0077 -1.6672,0.1874 -0.535,0.1951 -1.0209,0.5161 -1.4208,0.9387 -0.2576,0.2963 -0.4553,0.6446 -0.5812,1.024 -0.126,0.3794 -0.1774,0.7818 -0.1513,1.1828 0.0186,0.2145 0.0653,0.4252 0.1389,0.6262 0.0241,0.0715 0.0597,0.1382004 0.1053,0.1969004 -0.0601,-0.2741004 -0.1001,-0.5526004 -0.1197,-0.8332004 -0.0012,-0.7533 0.2752,-1.4776 0.7708,-2.0199 0.3796,-0.3785 0.8343,-0.6632 1.3311,-0.8335 0.4968,-0.1703 1.0233,-0.222 1.5414,-0.1513 1.296,0.2169 2.5004,0.8397 3.4566,1.7877 1.0628,0.9595 2.0299,2.0199004 3.2076,2.5653004 0.8676,0.3885 1.8303,0.4736 2.7471,0.2428 0.9167,-0.2308 1.7392,-0.7655 2.3469,-1.5254004 0.1297,-0.1651 0.2421,-0.3446 0.3351,-0.5353 0.0909,-0.1515 0.1197,-0.2222 0.1101,-0.2273 z"
      fill="#455a64" id="path150" />
   <path
      d="m 40.9878,18.987166 c 0,0 0.1437,-0.0908 0.2633,-0.3635 0.1616,-0.3887 0.2179,-0.8169 0.1628,-1.2373 -0.0718,-1.0958 -0.9958,-2.2775 -1.1107,-3.7924 -0.0795,-0.6962 0.0458,-1.4014 0.3591,-2.02 0.2747,-0.4953 0.6973,-0.8807 1.2016,-1.0958 0.3404,-0.1488 0.7118,-0.201 1.0772,-0.1515 0.2586,0.0404 0.3974,0.1061 0.4118,0.0758 0.0143,-0.0303 -0.1149,-0.1162 -0.3878,-0.2071 -0.391,-0.1057 -0.8031,-0.0846 -1.1825,0.0606 -0.5722,0.2068 -1.0581,0.6175 -1.3741,1.1615 -0.3677,0.6718 -0.5158,1.4526 -0.4213,2.2219 0.0809,0.7513 0.2919,1.4804 0.6224,2.1513 0.2644,0.5178 0.4593,1.0719 0.5793,1.6462 0.0903,0.5262 0.0199,1.0691 -0.2011,1.5503 z"
      fill="#455a64" id="path152" />
   <path d="m 104.5758,111.79417 1.5702,28.087 h 2.164 l 0.967,-28.087 z" fill="#263238" id="path154" />
   <path d="m 65.4138,125.38317 1.5655,28.087 h 2.164 l 0.9671,-28.087 z" fill="#263238" id="path156" />
   <path d="m 20.5978,116.16217 1.5703,23.719 h 2.1639 l 0.9671,-23.719 z" fill="#263238" id="path158" />
   <path
      d="m 41.6485,36.540666 c 0,0 -8.1388,5.3427 -9.1777,9.4634 0,0 -1.5846,3.338 0,9.0141 1.5847,5.676 24.0286,30.940004 24.0286,30.940004 l 19.1501,-7.529004 -8.4452,-15.816 c 0,0 -2.3363,-23.3203 -3.1645,-24.6232 -2.681,-4.2318 -12.3997,-2.5249 -12.3997,-2.5249 z"
      fill="#455a64" id="path160" />
   <path
      d="m 62.1822,36.288066 c 0.4404,0.2828 17.9005,7.3173 17.9005,7.3173 l 25.3983,-4.3126 3.308,7.4233 -20.9169,8.7918 c -3.1147,1.3169 -6.5333,1.6125 -9.8097,0.8484 l -11.9066,-2.7825 z"
      fill="#455a64" id="path162" />
   <path
      d="m 67.2091,62.921166 c -0.0411,-0.255 -0.0651,-0.514 -0.0718,-0.773 -0.0239,-0.505 -0.0814,-1.222 -0.158,-2.111 -0.1532,-1.7771 -0.4787,-4.2162 -0.9048,-6.9077 -0.4261,-2.6916 -0.7277,-5.1509 -0.8378,-6.9385 -0.0575,-0.8939 -0.091,-1.616 -0.091,-2.1159 -0.0205,-0.2588 -0.0205,-0.5189 0,-0.7777 0.0481,0.2545 0.0738,0.5131 0.0766,0.7726 0.0287,0.505 0.091,1.217 0.1676,2.1058 0.1579,1.7776 0.4787,4.2166 0.9096,6.9133 0.4309,2.6966 0.7277,5.1458 0.8378,6.9331 0.0527,0.894 0.0814,1.621 0.0766,2.121 0.0239,0.259 0.0223,0.52 -0.0048,0.778 z"
      fill="#263238" id="path164" />
   <path
      d="m 67.2091,62.921166 c -0.5047,0.19 -1.0194,0.348 -1.5416,0.475 -0.9575,0.282 -2.2645,0.712 -3.6768,1.282 -1.4123,0.571 -2.6523,1.187 -3.5428,1.652 -0.4641,0.277 -0.9437,0.525 -1.4362,0.742 0.1027,-0.109 0.2205,-0.201 0.3495,-0.273 0.2346,-0.161 0.5793,-0.378 1.0149,-0.631 1.138,-0.664 2.3186,-1.242 3.5332,-1.732 1.2122,-0.495 2.455,-0.902 3.7199,-1.217 0.4788,-0.121 0.8809,-0.207 1.1586,-0.253 0.1374,-0.037 0.2795,-0.053 0.4213,-0.045 z"
      fill="#263238" id="path166" />
   <path
      d="m 67.5538,63.471166 c -1.2081,0.587 -2.3759,1.262 -3.4949,2.02 -1.0701,0.833 -2.0828,1.744 -3.0305,2.727 0.1973,-0.361 0.4424,-0.691 0.7277,-0.979 0.6497,-0.736 1.3737,-1.395 2.1592,-1.965 0.7853,-0.568 1.6264,-1.046 2.5086,-1.424 0.3572,-0.183 0.7379,-0.311 1.1299,-0.379 z"
      fill="#263238" id="path168" />
   <path
      d="m 41.3804,38.176766 c -0.0574,-1.1312 -0.1197,-2.2624 -0.1771,-3.3986 -0.0391,-0.2117 0.0022,-0.4311 0.1149,-0.611 0.2202,-0.2626 0.6224,-0.1414 0.9288,0 2.7955,1.1313 5.889,1.1313 8.6845,0 0.6276,-0.2995 1.2799,-0.5378 1.9486,-0.7121 0.3358,-0.0865 0.6856,-0.0933 1.0242,-0.0199 0.3386,0.0733 0.6576,0.225 0.9339,0.4441 0.7037,0.6414 0.7468,1.1261 0.7612,2.1058 0.0287,1.722 0,4.2773 -1.1682,5.4842 -0.7899,0.8181 -1.915,1.116 -3.0161,1.3736 -2.4704,0.6009 -5.0317,1.2018 -7.5116,0.6615 -1.1182,-0.1775 -2.1382,-0.7746 -2.8726,-1.6816 -0.9144,-1.2877 0,-2.828 0.316,-4.3985"
      fill="#455a64" id="path170" />
   <path
      d="m 55.6041,34.965066 c 0.0291,0.1118 0.042,0.2276 0.0383,0.3434 0,0.2626 0,0.5858 0.0288,0.9797 -0.0377,0.4803 -0.1715,0.9467 -0.3926,1.3685 -0.2857,0.543 -0.6638,1.0258 -1.1155,1.4241 -0.5223,0.4762 -1.1058,0.8723 -1.7331,1.1766 -0.7019,0.3204 -1.4382,0.5494 -2.1927,0.6817 -2.0226,0.3721 -4.0957,0.3086 -6.0945,-0.1868 -0.609,-0.1418 -1.1894,-0.3966 -1.7139,-0.7525 -0.1421,-0.0993 -0.2695,-0.2201 -0.3782,-0.3585 -0.0671,-0.101 -0.1006,-0.1565 -0.091,-0.1616 0.1593,0.1633 0.3342,0.3088 0.5218,0.4343 0.5316,0.3127 1.1069,0.5343 1.7044,0.6565 1.9784,0.4345 4.0167,0.4722 6.0083,0.1111 0.7352,-0.1302 1.4534,-0.3506 2.1401,-0.6565 0.607,-0.2928 1.1751,-0.668 1.69,-1.116 0.8084,-0.6402 1.3519,-1.5842 1.5176,-2.6361 v 0 c 0,-0.3939 0.024,-0.7171 0.0287,-0.9797 8e-4,-0.1103 0.012,-0.2202 0.0335,-0.3282 z"
      fill="#263238" id="path172" />
   <path
      d="m 43.3098,40.196666 c -0.2101,-0.1946 -0.3741,-0.4385 -0.4788,-0.712 -0.2884,-0.6319 -0.4513,-1.3193 -0.4787,-2.02 -0.0339,-0.7009 0.0671,-1.4017 0.2968,-2.0603 0.0724,-0.2791 0.2052,-0.5366 0.3878,-0.7525 -0.3321,0.8921 -0.4817,1.8482 -0.4388,2.8056 0.0429,0.9573 0.2773,1.8942 0.6877,2.7493 z"
      fill="#263238" id="path174" />
   <path
      d="m 46.6228,40.767366 c -0.2039,-0.2064 -0.3666,-0.4536 -0.4788,-0.7272 -0.6514,-1.3039 -0.7906,-2.8256 -0.3878,-4.2368 0.0666,-0.2938 0.1887,-0.5703 0.3591,-0.813 -0.2525,0.9591 -0.3576,1.9548 -0.3112,2.9491 0.1261,0.9831 0.4026,1.9381 0.8187,2.8279 z"
      fill="#263238" id="path176" />
   <path
      d="m 49.9357,40.403866 c -0.9042,-1.6543 -1.2739,-3.5738 -1.0532,-5.4691 0.0766,0 0.0526,1.2676 0.3494,2.7724 0.2969,1.5049 0.7756,2.6664 0.7038,2.6967 z"
      fill="#263238" id="path178" />
   <path
      d="m 53.4641,39.237166 c -0.0416,-0.2841 -0.064,-0.571 -0.067,-0.8585 -0.133,-1.3682 -0.7542,-2.632 -1.7379,-3.5349 -0.3734,-0.3434 -0.6415,-0.505 -0.6224,-0.5504 0.2704,0.0736 0.521,0.2118 0.7325,0.4039 0.5418,0.4297 0.9852,0.9822 1.2976,1.6167 0.3124,0.6346 0.4858,1.335 0.5073,2.0496 0.026,0.2962 -0.0116,0.5948 -0.1101,0.8736 z"
      fill="#263238" id="path180" />
   <path
      d="m 37.8233,41.090566 c -0.1458,0.0046 -0.284,0.0696 -0.3847,0.1808 -0.1008,0.1112 -0.1561,0.2597 -0.1539,0.4135 0.0022,0.1538 0.0617,0.3006 0.1656,0.4085 0.1039,0.1079 0.2439,0.1685 0.3897,0.1685 0.1459,0 0.2859,-0.0606 0.3898,-0.1685 0.1039,-0.1079 0.1633,-0.2547 0.1655,-0.4085 0.0022,-0.1538 -0.053,-0.3023 -0.1538,-0.4135 -0.1007,-0.1112 -0.2389,-0.1762 -0.3847,-0.1808"
      fill="#e0e0e0" id="path182" />
   <path
      d="m 41.4043,62.325166 c -0.1089,0.089 -0.1804,0.22 -0.1991,0.364 -0.0187,0.144 0.017,0.29 0.0993,0.407 0.0823,0.116 0.2047,0.194 0.341,0.217 0.1362,0.022 0.2754,-0.012 0.3876,-0.097 0.1122,-0.084 0.1884,-0.212 0.2124,-0.355 0.024,-0.143 -0.0062,-0.291 -0.0841,-0.411 -0.0779,-0.12 -0.1974,-0.203 -0.3327,-0.231 -0.1353,-0.028 -0.2756,10e-4 -0.3908,0.081"
      fill="#e0e0e0" id="path184" />
   <path
      d="m 49.5623,46.190866 c -0.1079,0.0883 -0.1787,0.2178 -0.1972,0.3605 -0.0185,0.1428 0.0169,0.2875 0.0985,0.4031 0.0816,0.1156 0.2029,0.1928 0.3378,0.2151 0.135,0.0223 0.2729,-0.0121 0.3841,-0.0959 0.1111,-0.0837 0.1867,-0.2101 0.2105,-0.352 0.0238,-0.1419 -0.0061,-0.288 -0.0833,-0.4069 -0.0772,-0.1189 -0.1955,-0.2011 -0.3296,-0.229 -0.134,-0.0279 -0.2731,8e-4 -0.3873,0.0799"
      fill="#e0e0e0" id="path186" />
   <path
      d="m 62.6897,47.221066 c -0.1458,0.0046 -0.284,0.0696 -0.3847,0.1808 -0.1008,0.1112 -0.156,0.2597 -0.1538,0.4136 0.0022,0.1538 0.0616,0.3005 0.1655,0.4085 0.1039,0.1079 0.2439,0.1684 0.3898,0.1684 0.1458,0 0.2858,-0.0605 0.3897,-0.1684 0.1039,-0.108 0.1633,-0.2547 0.1655,-0.4085 0.0022,-0.1539 -0.053,-0.3024 -0.1538,-0.4136 -0.1007,-0.1112 -0.2389,-0.1762 -0.3847,-0.1808"
      fill="#e0e0e0" id="path188" />
   <path
      d="m 61.8758,38.807966 c -0.1168,0.0843 -0.1976,0.2136 -0.2251,0.36 -0.0275,0.1464 6e-4,0.2984 0.0781,0.4233 0.0774,0.1249 0.1983,0.2128 0.3365,0.2449 0.1382,0.032 0.2828,0.0057 0.4028,-0.0735 0.1201,-0.0791 0.2059,-0.2047 0.2392,-0.3498 0.0332,-0.145 0.0112,-0.2981 -0.0612,-0.4263 -0.0725,-0.1282 -0.1898,-0.2214 -0.3266,-0.2595 -0.1368,-0.0381 -0.2824,-0.0181 -0.4054,0.0556"
      fill="#e0e0e0" id="path190" />
   <path
      d="m 69.5167,42.373166 c -0.1458,0.0046 -0.284,0.0696 -0.3847,0.1808 -0.1008,0.1112 -0.156,0.2597 -0.1538,0.4135 0.0022,0.1539 0.0616,0.3006 0.1655,0.4085 0.1039,0.108 0.2439,0.1685 0.3897,0.1685 0.1459,0 0.2859,-0.0605 0.3898,-0.1685 0.1039,-0.1079 0.1633,-0.2546 0.1655,-0.4085 0.0022,-0.1538 -0.053,-0.3023 -0.1538,-0.4135 -0.1007,-0.1112 -0.2389,-0.1762 -0.3847,-0.1808"
      fill="#e0e0e0" id="path192" />
   <path
      d="m 82.4765,52.634566 c -0.1089,0.0891 -0.1805,0.2198 -0.1991,0.3639 -0.0187,0.1441 0.017,0.2902 0.0993,0.4068 0.0823,0.1167 0.2047,0.1947 0.341,0.2172 0.1362,0.0225 0.2754,-0.0123 0.3876,-0.0968 0.1122,-0.0845 0.1885,-0.2121 0.2125,-0.3553 0.0239,-0.1433 -0.0063,-0.2907 -0.0842,-0.4107 -0.0779,-0.12 -0.1974,-0.2029 -0.3327,-0.231 -0.1353,-0.0281 -0.2756,8e-4 -0.3908,0.0807"
      fill="#e0e0e0" id="path194" />
   <path
      d="m 85.1624,45.488966 c -0.1369,0.0046 -0.2666,0.0658 -0.3611,0.1704 -0.0944,0.1046 -0.1462,0.2441 -0.144,0.3885 0.0022,0.1445 0.0582,0.2822 0.1558,0.3835 0.0976,0.1013 0.2291,0.1581 0.366,0.1581 0.137,0 0.2684,-0.0568 0.366,-0.1581 0.0976,-0.1013 0.1536,-0.239 0.1558,-0.3835 0.002,-0.1444 -0.0495,-0.2839 -0.144,-0.3885 -0.0945,-0.1046 -0.2241,-0.1658 -0.361,-0.1704"
      fill="#e0e0e0" id="path196" />
   <path
      d="m 96.5519,44.236666 c -0.1382,0.0047 -0.2691,0.0664 -0.3644,0.1719 -0.0954,0.1055 -0.1476,0.2464 -0.1454,0.3922 0.002,0.1457 0.0586,0.2847 0.1571,0.387 0.0985,0.1023 0.2312,0.1596 0.3694,0.1596 0.1382,0 0.2709,-0.0573 0.3694,-0.1596 0.0985,-0.1023 0.155,-0.2413 0.1572,-0.387 0.002,-0.1458 -0.05,-0.2867 -0.1454,-0.3922 -0.0954,-0.1055 -0.2263,-0.1672 -0.3644,-0.1719"
      fill="#e0e0e0" id="path198" />
   <path
      d="m 103.8433,45.317266 c -0.1382,0.0046 -0.2691,0.0664 -0.3644,0.1719 -0.0954,0.1055 -0.1476,0.2463 -0.1454,0.3921 0.002,0.1458 0.0586,0.2848 0.1571,0.3871 0.0985,0.1022 0.2312,0.1596 0.3694,0.1596 0.1382,0 0.2709,-0.0574 0.3694,-0.1596 0.0985,-0.1023 0.155,-0.2413 0.1572,-0.3871 0.002,-0.1458 -0.05,-0.2866 -0.1454,-0.3921 -0.0954,-0.1055 -0.2263,-0.1673 -0.3644,-0.1719"
      fill="#e0e0e0" id="path200" />
   <path
      d="m 91.4723,50.543966 c -0.108,0.0883 -0.1788,0.2178 -0.1972,0.3605 -0.0185,0.1428 0.0169,0.2876 0.0985,0.4031 0.0815,0.1156 0.2029,0.1929 0.3378,0.2152 0.135,0.0222 0.2729,-0.0122 0.384,-0.096 0.1112,-0.0837 0.1868,-0.2101 0.2106,-0.352 0.0238,-0.1419 -0.006,-0.288 -0.0833,-0.4069 -0.0772,-0.1189 -0.1956,-0.2011 -0.3296,-0.229 -0.134,-0.0279 -0.2731,8e-4 -0.3873,0.0798"
      fill="#e0e0e0" id="path202" />
   <path
      d="m 76.0038,48.276466 c -0.109,0.0891 -0.1805,0.2197 -0.1991,0.3638 -0.0187,0.1441 0.0169,0.2902 0.0993,0.4069 0.0823,0.1167 0.2047,0.1946 0.3409,0.2172 0.1363,0.0225 0.2754,-0.0123 0.3876,-0.0968 0.1122,-0.0846 0.1885,-0.2122 0.2125,-0.3554 0.024,-0.1432 -0.0062,-0.2906 -0.0841,-0.4106 -0.078,-0.12 -0.1974,-0.203 -0.3327,-0.2311 -0.1353,-0.0281 -0.2756,9e-4 -0.3909,0.0808"
      fill="#e0e0e0" id="path204" />
   <path
      d="m 68.9949,49.993466 c -0.1369,0.0046 -0.2665,0.0658 -0.361,0.1704 -0.0945,0.1046 -0.1462,0.2441 -0.144,0.3886 0.0022,0.1444 0.0581,0.2822 0.1557,0.3835 0.0976,0.1013 0.2291,0.1581 0.3661,0.1581 0.1369,0 0.2684,-0.0568 0.366,-0.1581 0.0976,-0.1013 0.1535,-0.2391 0.1557,-0.3835 0.0022,-0.1445 -0.0495,-0.284 -0.144,-0.3886 -0.0944,-0.1046 -0.2241,-0.1658 -0.361,-0.1704"
      fill="#e0e0e0" id="path206" />
   <path
      d="m 62.9003,57.734866 c -0.1079,0.0883 -0.1787,0.2178 -0.1972,0.3606 -0.0184,0.1428 0.0169,0.2877 0.0985,0.4027 0.0816,0.116 0.2029,0.193 0.3379,0.216 0.1349,0.022 0.2728,-0.013 0.384,-0.096 0.1112,-0.084 0.1868,-0.211 0.2105,-0.3525 0.0238,-0.1419 -0.0061,-0.288 -0.0833,-0.4069 -0.0772,-0.1189 -0.1955,-0.2011 -0.3295,-0.229 -0.1341,-0.0279 -0.2731,8e-4 -0.3873,0.0799"
      fill="#e0e0e0" id="path208" />
   <path
      d="m 58.5293,54.386766 c -0.1079,0.0884 -0.1787,0.2178 -0.1972,0.3606 -0.0185,0.1428 0.0169,0.2875 0.0985,0.4031 0.0816,0.1156 0.2029,0.1928 0.3379,0.2151 0.1349,0.0223 0.2728,-0.0122 0.384,-0.0959 0.1111,-0.0838 0.1867,-0.2102 0.2105,-0.3521 0.0238,-0.1419 -0.0061,-0.288 -0.0833,-0.4069 -0.0772,-0.1189 -0.1955,-0.2011 -0.3296,-0.229 -0.134,-0.0279 -0.273,8e-4 -0.3873,0.0799"
      fill="#e0e0e0" id="path210" />
   <path
      d="m 56.8968,63.487166 c -0.108,0.088 -0.1788,0.217 -0.1972,0.36 -0.0185,0.143 0.0169,0.288 0.0985,0.403 0.0815,0.116 0.2028,0.193 0.3378,0.215 0.135,0.023 0.2729,-0.012 0.384,-0.096 0.1112,-0.083 0.1868,-0.21 0.2106,-0.352 0.0238,-0.142 -0.0061,-0.288 -0.0833,-0.407 -0.0772,-0.118 -0.1956,-0.201 -0.3296,-0.229 -0.134,-0.027 -0.2731,10e-4 -0.3873,0.08"
      fill="#e0e0e0" id="path212" />
   <path
      d="m 54.9818,41.120866 c -0.108,0.0883 -0.1788,0.2178 -0.1972,0.3605 -0.0185,0.1428 0.0169,0.2875 0.0984,0.4031 0.0816,0.1156 0.2029,0.1928 0.3379,0.2151 0.135,0.0223 0.2729,-0.0121 0.384,-0.0959 0.1112,-0.0837 0.1868,-0.2101 0.2106,-0.352 0.0238,-0.1419 -0.0061,-0.288 -0.0833,-0.4069 -0.0772,-0.1189 -0.1956,-0.2011 -0.3296,-0.229 -0.134,-0.0279 -0.2731,8e-4 -0.3873,0.0798"
      fill="#e0e0e0" id="path214" />
   <path
      d="m 49.6149,61.775166 c -0.1079,0.088 -0.1787,0.217 -0.1972,0.36 -0.0184,0.143 0.0169,0.288 0.0985,0.403 0.0816,0.116 0.2029,0.193 0.3379,0.215 0.1349,0.023 0.2728,-0.012 0.384,-0.096 0.1112,-0.083 0.1868,-0.21 0.2105,-0.352 0.0238,-0.141 -0.0061,-0.288 -0.0833,-0.406 -0.0772,-0.119 -0.1955,-0.202 -0.3295,-0.229 -0.1341,-0.028 -0.2731,0 -0.3873,0.079"
      fill="#e0e0e0" id="path216" />
   <path
      d="m 46.1105,55.477666 c -0.1458,0.0046 -0.284,0.0696 -0.3847,0.1808 -0.1008,0.1112 -0.1561,0.2597 -0.1539,0.4135 0.0022,0.1538 0.0617,0.3005 0.1656,0.4085 0.1039,0.1079 0.2439,0.1684 0.3897,0.1684 0.1459,0 0.2859,-0.0605 0.3898,-0.1684 0.1038,-0.108 0.1633,-0.2547 0.1655,-0.4085 0.0022,-0.1538 -0.053,-0.3023 -0.1538,-0.4135 -0.1007,-0.1112 -0.2389,-0.1762 -0.3847,-0.1808"
      fill="#e0e0e0" id="path218" />
   <path
      d="m 62.029,73.177166 c 0.02,0.035 0.0346,0.072 0.0431,0.111 0,0.091 0.0527,0.202 0.091,0.334 0.0766,0.293 0.1867,0.727 0.3016,1.292 0.1405,0.688 0.2396,1.385 0.2968,2.086 0.0801,0.935 0.0349,1.876 -0.1341,2.798 -0.0975,0.539 -0.2583,1.063 -0.4787,1.56 -0.2258,0.551 -0.551,1.05 -0.9575,1.47 -0.4329,0.472 -1.0018,0.781 -1.6182,0.878 -0.664,0.058 -1.3237,-0.156 -1.8432,-0.596 -0.5348,-0.442 -0.9835,-0.989 -1.3214,-1.611 -0.3585,-0.642 -0.6598,-1.318 -0.9,-2.02 -0.4754,-1.458 -0.806,-2.964 -0.9862,-4.494 -0.6939,-5.335 -1.0808,-10.709 -1.1586,-16.094 -0.0287,-2.0653 0,-3.7368 0,-4.8932 0,-0.5757 0.0335,-1.01 0.0479,-1.3281 0,-0.1364 0,-0.2525 0,-0.3434 -0.003,-0.0387 -0.003,-0.0775 0,-0.1162 0.0059,0.0385 0.0059,0.0777 0,0.1162 0,0.0959 0,0.207 0,0.3484 0,0.3232 0,0.7676 0,1.3281 0,1.1514 0,2.8229 0.0526,4.8832 0.133,5.373 0.5438,10.733 1.2304,16.059 0.1728,1.512 0.4936,3.001 0.9575,4.444 0.2346,0.678 0.5279,1.332 0.8761,1.954 0.32,0.595 0.7459,1.12 1.2544,1.545 0.2415,0.219 0.5226,0.384 0.8263,0.484 0.3037,0.101 0.6235,0.136 0.9403,0.102 0.5698,-0.086 1.0966,-0.368 1.4985,-0.803 0.3909,-0.399 0.7046,-0.874 0.924,-1.399 0.2171,-0.482 0.3779,-0.991 0.4787,-1.515 0.1768,-0.903 0.2332,-1.827 0.1676,-2.747 -0.0458,-0.696 -0.1306,-1.389 -0.2538,-2.075 -0.1005,-0.566 -0.1915,-1.01 -0.2537,-1.298 -0.0287,-0.137 -0.0479,-0.248 -0.067,-0.339 -0.0192,-0.09 -0.0144,-0.116 -0.0144,-0.121 z"
      fill="#e0e0e0" id="path220" />
   <path
      d="m 140.798,127.91317 17.412,5.923 10.327,-21.426 c -0.135,-0.171 -0.301,-0.312 -0.488,-0.413 -0.188,-0.102 -0.393,-0.162 -0.603,-0.178 -0.211,-0.015 -0.422,0.014 -0.621,0.087 -0.199,0.073 -0.382,0.188 -0.538,0.337 l -10.221,9.731 -10.102,-3.212 z"
      fill="#e0e0e0" id="path222" style="fill:#797979;fill-opacity:1" />
   <path
      d="m 104.0731,89.98817 3.6339,14.978 21.496,-0.636 c 0.158,-0.004 0.313,-0.044 0.455,-0.119 0.141,-0.074 0.265,-0.18 0.364,-0.311 0.098,-0.13 0.168,-0.282 0.204,-0.444 0.036,-0.163 0.038,-0.331 0.006,-0.495 v 0 c -0.037,-0.192 -0.122,-0.371 -0.244,-0.518 -0.123,-0.148 -0.279,-0.26 -0.455,-0.325 l -12.974,-4.817 -2.14,-10.893 z"
      fill="#e0e0e0" id="path224" style="fill:#797979;fill-opacity:1" />
   <path
      d="m 75.6256,78.429166 c 0,0 11.6863,-19.321 16.6558,-26.4814 4.0933,-5.8982 15.7986,-6.0295 17.5126,3.3127 1.293,6.9637 9.523,37.575704 9.523,37.575704 l -15.7993,1.965 -5.3046,-19.801004 c 0,0 -9.4793,21.068004 -12.7108,23.457004 -3.2316,2.389 -20.2082,-15.968004 -20.2082,-15.968004 z"
      fill="#263238" id="path226" />
   <path
      d="M 149.942,118.23717 110.326,99.09317 67.6879,81.565166 54.7615,85.95817 c 0,0 6.377,16.609 8.2489,19.008 1.872,2.399 16.6223,4.04 16.6223,4.04 l 25.7573,5.555 39.827,16.665 z"
      fill="#263238" id="path228" />
   <path
      d="m 114.663,101.18917 c -0.133,-0.03 -0.263,-0.074 -0.388,-0.131 l -1.096,-0.44 -4.017,-1.641 -13.2277,-5.459 -13.2567,-5.403 -4.0263,-1.611 -1.0964,-0.445 c -0.1279,-0.048 -0.2527,-0.105 -0.3734,-0.171 0.1346,0.025 0.2661,0.066 0.3926,0.121 l 1.1107,0.399 c 0.9575,0.348 2.3459,0.874 4.055,1.515 3.4135,1.318 8.1101,3.201 13.2806,5.333 5.1706,2.131 9.8386,4.09 13.2136,5.529 l 3.988,1.717 1.077,0.505 c 0.125,0.052 0.247,0.112 0.364,0.182 z"
      fill="#455a64" id="path230" />
   <path
      d="m 99.951,81.565166 c -0.1057,-0.261 -0.189,-0.531 -0.249,-0.808 -0.1388,-0.505 -0.3303,-1.288 -0.5553,-2.232 -0.4788,-1.889 -1.0676,-4.504 -1.7187,-7.398 -0.6511,-2.894 -1.2256,-5.519 -1.623,-7.423 -0.1963,-0.95 -0.3495,-1.722 -0.45,-2.258 -0.068,-0.275 -0.1066,-0.558 -0.1149,-0.843 0,0 0.0814,0.288 0.2106,0.818 l 0.5266,2.242 c 0.4453,1.934 1.0389,4.545 1.6948,7.403 0.6559,2.859 1.2161,5.474 1.6469,7.414 0.1915,0.919 0.3543,1.676 0.4788,2.252 0.0684,0.274 0.1196,0.552 0.1532,0.833 z"
      fill="#455a64" id="path232" />
   <path
      d="m 97.5812,70.253166 c -0.3456,-0.129 -0.669,-0.316 -0.9575,-0.555 -1.4343,-1.036 -2.6449,-2.38 -3.5524,-3.944 -0.2076,-0.309 -0.3691,-0.65 -0.4787,-1.01 0.689,1.048 1.4372,2.051 2.2405,3.005 0.8682,0.891 1.7859,1.728 2.7481,2.504 z"
      fill="#455a64" id="path234" />
   <path
      d="m 40.399,21.279866 c -0.2807,0.0333 -0.5504,0.134 -0.7885,0.2941 -0.2382,0.1602 -0.4384,0.3757 -0.5855,0.63 -0.1447,0.2668 -0.2321,0.5637 -0.2561,0.87 -0.0239,0.3062 0.0161,0.6143 0.1172,0.9025 0.1149,0.3232 0.383,0.6514 0.7086,0.6009 0.0928,-0.0199 0.1799,-0.0628 0.254,-0.1251 0.0741,-0.0623 0.133,-0.1423 0.1721,-0.2334 0.0748,-0.1853 0.1139,-0.3844 0.1149,-0.5858 -0.0056,-0.1204 0.0227,-0.2399 0.0814,-0.3434 0.0664,-0.0758 0.1461,-0.1375 0.2346,-0.1818 0.1492,-0.0991 0.2718,-0.2371 0.3556,-0.4008 0.0839,-0.1636 0.1263,-0.3474 0.1231,-0.5334 -0.0069,-0.1843 -0.0591,-0.3636 -0.1514,-0.5203 -0.0923,-0.1567 -0.2216,-0.2854 -0.3752,-0.3735"
      fill="#e0e0e0" id="path236" />
   <path
      d="m 56.0925,31.940166 c 0.0169,0.0479 0.0313,0.0968 0.0431,0.1464 0.0287,0.1111 0.0622,0.2475 0.1101,0.4242 0.0957,0.3939 0.225,0.9494 0.3973,1.6463 l 0.608,2.6107 c 0.2346,1.01 0.5171,2.1765 0.7613,3.4744 0.2896,1.4146 0.4166,2.8608 0.3782,4.3075 -0.0304,1.6811 -0.4813,3.3238 -1.307,4.762 -0.4719,0.7661 -1.1,1.4113 -1.8384,1.8887 -0.781,0.4802 -1.6486,0.7829 -2.547,0.8888 -0.9248,0.0972 -1.8582,0.0427 -2.7672,-0.1616 -0.9312,-0.2134 -1.8323,-0.5529 -2.681,-1.01 -1.7016,-0.8705 -3.1003,-2.2839 -3.9976,-4.0399 -0.7606,-1.6537 -1.3111,-3.4059 -1.6373,-5.2115 -0.7134,-3.4086 -1.2352,-6.5042 -1.6134,-9.115 -0.3782,-2.6108 -0.6224,-4.7317 -0.7708,-6.1962 -0.0718,-0.7322 -0.1245,-1.3029 -0.1532,-1.6917 0,-0.1818 0,-0.3282 -0.0287,-0.4393 -0.0072,-0.0503 -0.0072,-0.1013 0,-0.1515 0.0153,0.0473 0.0249,0.0965 0.0287,0.1464 0,0.1162 0.0335,0.2576 0.0574,0.4393 0.0479,0.404 0.1149,0.9696 0.1963,1.6867 0.182,1.4594 0.4453,3.5753 0.8474,6.176 0.4022,2.6007 0.9575,5.6912 1.6661,9.0898 0.3248,1.7819 0.8721,3.5106 1.6277,5.1407 0.8732,1.717 2.2366,3.1005 3.8971,3.9541 0.8279,0.4545 1.7082,0.794 2.6188,1.01 0.8817,0.2018 1.788,0.2563 2.6858,0.1616 0.8636,-0.099 1.6983,-0.3862 2.4512,-0.8434 0.7103,-0.4586 1.3153,-1.0778 1.7714,-1.8129 0.8086,-1.399 1.2544,-2.9977 1.2926,-4.6358 0.043,-1.43 -0.0727,-2.8604 -0.3447,-4.262 -0.2298,-1.2928 -0.5027,-2.4543 -0.7229,-3.4744 l -0.5697,-2.6208 c -0.1484,-0.707 -0.2681,-1.2625 -0.3495,-1.6564 -0.0383,-0.1818 -0.067,-0.3232 -0.0862,-0.4343 -0.021,-0.0631 -0.0292,-0.1302 -0.0239,-0.1969 z"
      fill="#e0e0e0" id="path238" />
   <path
      d="m 65.8494,128.49917 c 0.3974,-11.14 0.8857,-24.038 -1.915,-34.774 -1.5272,-5.843 -3.7103,-11.837004 -8.11,-15.654004 -5.9366,-5.151 -15.3201,-6.086 -22.9802,-5.555 -0.5601,-12.362 -1.915,-23.6388 -6.0131,-35.2131 -1.5272,-4.3227 -3.3513,-8.6201 -6.1328,-12.1197 -2.7816,-3.4996 -6.50148,-6.6507 -10.80546,-6.9032 L 19.9466,116.89417 Z"
      fill="#b7db24" id="path240" />
   <path
      d="m 73.543,126.14517 c 0.2921,-11.165 -0.5075,-28.334 -3.3177,-39.065 -1.532,-5.843004 -3.7152,-11.837004 -8.1101,-15.655004 -5.9413,-5.156 -15.3201,-6.09 -22.9801,-5.555 -0.5554,-12.362 -1.9151,-23.6384 -6.0084,-35.2127 -1.5272,-4.3227 -3.3513,-8.6151 -6.1376,-12.1197 -2.7863,-3.5046 -12.80184,0 -17.10583,-0.2676 l 16.47863,92.009004 39.4732,18.245 z"
      fill="#b7db24" id="path242" />
   <g opacity="0.4" id="g246" transform="translate(5,-41.715834)">
      <path opacity="0.4"
         d="m 60.8494,170.215 c 0.3974,-11.14 0.8857,-24.038 -1.915,-34.774 -1.5272,-5.843 -3.7103,-11.837 -8.11,-15.654 -5.9366,-5.151 -15.3201,-6.086 -22.9802,-5.555 C 27.2841,101.87 25.9292,90.5932 21.8311,79.0189 20.3039,74.6962 18.4798,70.3988 15.6983,66.8992 12.9167,63.3996 9.19682,60.2485 4.89284,59.996 L 14.9466,158.61 Z"
         fill="#000000" id="path244" />
   </g>
   <path
      d="m 33.5911,43.605266 c 0,0 -11.5667,13.1297 -14.1567,25.2489 -0.4725,2.219 -0.2659,4.539 0.5901,6.625 0.8559,2.087 2.3171,3.834 4.1735,4.99 v 0 c 1.2018,0.754 2.5377,1.238 3.9246,1.424 1.3869,0.186 2.7953,0.069 4.1376,-0.343 l 21.7353,-6.661 -0.4787,-8.221 -21.0651,1.363 9.3069,-13.0889 3.7247,-4.5449 -9.0963,-9.5948 z"
      fill="#455a64" id="path248" />
   <path
      d="m 44.1332,77.909166 c 0.0543,-0.031 0.1122,-0.055 0.1724,-0.071 l 0.5218,-0.176 1.9916,-0.642 7.1478,-2.237 -0.0766,0.116 c -0.1532,-2.444 -0.3255,-5.236 -0.5123,-8.226 l 0.1102,0.121 c -1.1826,0.061 -2.4752,0.162 -3.7582,0.253 l -15.4302,1.106 -4.6775,0.308 -1.2734,0.07 h -0.3304 -0.1149 c 0.0366,-0.015 0.0755,-0.024 0.1149,-0.025 l 0.3304,-0.035 1.2687,-0.121 4.6726,-0.394 c 3.9449,-0.318 9.3979,-0.748 15.4206,-1.182 1.3022,-0.091 2.547,-0.192 3.8013,-0.247 h 0.1005 v 0.126 c 0.1724,2.989 0.3352,5.782 0.4788,8.226 v 0.091 h -0.0814 l -7.1813,2.151 -2.006,0.581 -0.5314,0.141 c -0.0498,0.029 -0.1029,0.051 -0.158,0.066 z"
      fill="#263238" id="path250" />
   <path
      d="m 32.8251,68.279166 c -0.8687,-0.684 -1.8025,-1.272 -2.7863,-1.752 -1.0183,-0.396 -2.0723,-0.68 -3.1454,-0.849 0.3167,-0.058 0.6407,-0.058 0.9575,0 0.7816,0.089 1.5473,0.295 2.2741,0.611 0.7246,0.318 1.4019,0.745 2.0107,1.268 0.2697,0.194 0.5033,0.439 0.6894,0.722 z"
      fill="#263238" id="path252" />
   <path
      d="m 36.7222,62.012166 c 0.0408,-0.083 0.0924,-0.159 0.1532,-0.227 l 0.4787,-0.626 c 0.4069,-0.541 1.0006,-1.329 1.6948,-2.323 0.8225,-1.1598 1.5802,-2.3688 2.2693,-3.6212 0.4068,-0.7319 0.7466,-1.5029 1.0149,-2.3027 0.2707,-0.8597 0.3621,-1.771 0.2681,-2.6714 -0.1798,-1.7546 -0.9552,-3.3814 -2.1831,-4.5802 -1.017,-0.96 -2.2696,-1.5988 -3.6146,-1.8432 -0.9097,-0.1599 -1.8383,-0.1599 -2.748,0 -0.6415,0.1161 -0.991,0.2373 -0.9958,0.2121 0.0761,-0.0477 0.1583,-0.0835 0.2442,-0.1061 0.2418,-0.0836 0.488,-0.1527 0.7372,-0.207 0.9198,-0.1935 1.8647,-0.214 2.7912,-0.0606 1.3888,0.2276 2.6865,0.8708 3.739,1.8533 1.2836,1.2288 2.0932,2.9133 2.2741,4.7317 0.1004,0.9361 0.0057,1.884 -0.2777,2.7774 -0.2777,0.8146 -0.6288,1.5992 -1.0485,2.3432 -0.7036,1.2546 -1.4824,2.4605 -2.3315,3.6107 -0.7133,0.985 -1.3261,1.752 -1.757,2.277 -0.2154,0.263 -0.3878,0.46 -0.5075,0.596 -0.0613,0.063 -0.1287,0.119 -0.201,0.167 z"
      fill="#263238" id="path254" />
   <path
      d="m 57.9596,75.546166 c 0.9911,-1.914 5.0317,-9.454 6.0802,-11.413 0.0324,-0.06 0.0762,-0.113 0.1286,-0.154 0.0524,-0.042 0.1123,-0.071 0.176,-0.087 0.0637,-0.017 0.1299,-0.019 0.1945,-0.007 0.0645,0.012 0.126,0.038 0.1807,0.076 l 4.7062,3.262 c 0.0996,0.069 0.1714,0.174 0.2015,0.295 0.0301,0.122 0.0163,0.251 -0.0388,0.362 l -5.5918,11.251 c -0.03,0.06 -0.0712,0.113 -0.1209,0.155 -0.0498,0.043 -0.1072,0.075 -0.1689,0.094 -0.0616,0.018 -0.1262,0.024 -0.1899,0.016 -0.0637,-0.008 -0.1253,-0.029 -0.181,-0.063 l -5.1896,-3.085 c -0.057,-0.033 -0.1072,-0.077 -0.1476,-0.13 -0.0405,-0.053 -0.0703,-0.114 -0.0878,-0.179 -0.0174,-0.066 -0.0221,-0.135 -0.0137,-0.202 0.0083,-0.068 0.0295,-0.133 0.0623,-0.191 z"
      fill="#263238" id="path256" />
   <path
      d="m 31.4224,53.371766 c -0.1369,0.0047 -0.2666,0.0659 -0.3611,0.1705 -0.0944,0.1046 -0.1462,0.2441 -0.144,0.3885 0.0022,0.1445 0.0582,0.2822 0.1558,0.3836 0.0976,0.1013 0.2291,0.1581 0.366,0.1581 0.137,0 0.2684,-0.0568 0.366,-0.1581 0.0977,-0.1014 0.1536,-0.2391 0.1558,-0.3836 0.0022,-0.1444 -0.0495,-0.2839 -0.144,-0.3885 -0.0945,-0.1046 -0.2241,-0.1658 -0.361,-0.1705"
      fill="#e0e0e0" id="path258" />
   <path
      d="m 24.0927,69.294166 c -0.108,0.088 -0.1788,0.218 -0.1973,0.36 -0.0184,0.143 0.0169,0.288 0.0985,0.404 0.0816,0.115 0.2029,0.192 0.3379,0.215 0.135,0.022 0.2728,-0.012 0.384,-0.096 0.1112,-0.084 0.1868,-0.21 0.2106,-0.352 0.0237,-0.142 -0.0062,-0.288 -0.0834,-0.407 -0.0772,-0.119 -0.1955,-0.201 -0.3295,-0.229 -0.1341,-0.028 -0.2731,0.001 -0.3873,0.08"
      fill="#e0e0e0" id="path260" />
   <path
      d="m 38.2015,76.616166 c -0.108,0.088 -0.1788,0.218 -0.1972,0.361 -0.0185,0.143 0.0169,0.287 0.0984,0.403 0.0816,0.115 0.2029,0.193 0.3379,0.215 0.135,0.022 0.2729,-0.012 0.384,-0.096 0.1112,-0.084 0.1868,-0.21 0.2106,-0.352 0.0238,-0.142 -0.0062,-0.288 -0.0833,-0.407 -0.0772,-0.119 -0.1956,-0.201 -0.3296,-0.229 -0.134,-0.028 -0.2731,10e-4 -0.3873,0.08"
      fill="#e0e0e0" id="path262" />
   <path
      d="m 45.0285,70.536166 c -0.1079,0.088 -0.1787,0.218 -0.1972,0.361 -0.0185,0.143 0.0169,0.287 0.0985,0.403 0.0816,0.115 0.2029,0.193 0.3378,0.215 0.135,0.022 0.2729,-0.012 0.3841,-0.096 0.1111,-0.084 0.1867,-0.21 0.2105,-0.352 0.0238,-0.142 -0.0061,-0.288 -0.0833,-0.407 -0.0772,-0.119 -0.1955,-0.201 -0.3296,-0.229 -0.134,-0.028 -0.2731,10e-4 -0.3873,0.08"
      fill="#e0e0e0" id="path264" />
   <path
      d="m 31.2261,62.921166 c -0.108,0.088 -0.1788,0.218 -0.1972,0.361 -0.0185,0.142 0.0168,0.287 0.0984,0.403 0.0816,0.115 0.2029,0.192 0.3379,0.215 0.135,0.022 0.2729,-0.012 0.384,-0.096 0.1112,-0.084 0.1868,-0.21 0.2106,-0.352 0.0238,-0.142 -0.0062,-0.288 -0.0834,-0.407 -0.0771,-0.119 -0.1955,-0.201 -0.3295,-0.229 -0.134,-0.028 -0.2731,10e-4 -0.3873,0.08"
      fill="#e0e0e0" id="path266" />
   <path
      d="m 39.4893,50.513566 c -0.1457,0.0046 -0.2839,0.0695 -0.3847,0.1808 -0.1008,0.1112 -0.156,0.2597 -0.1538,0.4135 0.0022,0.1538 0.0617,0.3006 0.1656,0.4085 0.1039,0.108 0.2438,0.1685 0.3897,0.1685 0.1458,0 0.2858,-0.0605 0.3897,-0.1685 0.1039,-0.1079 0.1634,-0.2547 0.1656,-0.4085 0.0022,-0.1538 -0.0531,-0.3023 -0.1538,-0.4135 -0.1008,-0.1113 -0.239,-0.1762 -0.3848,-0.1808"
      fill="#e0e0e0" id="path268" />
   <path
      d="m 33.2464,71.087166 c -0.108,0.088 -0.1788,0.217 -0.1972,0.36 -0.0185,0.143 0.0169,0.288 0.0985,0.403 0.0815,0.116 0.2028,0.193 0.3378,0.215 0.135,0.023 0.2729,-0.012 0.384,-0.096 0.1112,-0.083 0.1868,-0.21 0.2106,-0.352 0.0238,-0.141 -0.0061,-0.288 -0.0833,-0.406 -0.0772,-0.119 -0.1955,-0.202 -0.3296,-0.229 -0.134,-0.028 -0.2731,0 -0.3873,0.079"
      fill="#e0e0e0" id="path270" />
   <path
      d="m 23.8485,60.603166 c -0.1458,0.005 -0.284,0.07 -0.3847,0.181 -0.1008,0.111 -0.156,0.26 -0.1538,0.413 0.0022,0.154 0.0616,0.301 0.1655,0.409 0.1039,0.108 0.2439,0.168 0.3898,0.168 0.1458,0 0.2858,-0.06 0.3897,-0.168 0.1039,-0.108 0.1633,-0.255 0.1655,-0.409 0.0022,-0.153 -0.053,-0.302 -0.1538,-0.413 -0.1007,-0.111 -0.2389,-0.176 -0.3847,-0.181"
      fill="#e0e0e0" id="path272" />
   <path
      d="m 26.8934,78.793166 c -0.108,0.088 -0.1788,0.218 -0.1973,0.36 -0.0184,0.143 0.0169,0.288 0.0985,0.403 0.0816,0.116 0.2029,0.193 0.3379,0.216 0.135,0.022 0.2728,-0.013 0.384,-0.096 0.1112,-0.084 0.1868,-0.211 0.2106,-0.352 0.0238,-0.142 -0.0062,-0.288 -0.0834,-0.407 -0.0772,-0.119 -0.1955,-0.201 -0.3295,-0.229 -0.134,-0.028 -0.2731,0 -0.3873,0.08"
      fill="#e0e0e0" id="path274" />
   <path
      d="m 66.0745,66.961166 c 0.1382,0.008 0.2681,0.072 0.3619,0.18 0.0939,0.107 0.1443,0.249 0.1406,0.395 -0.0038,0.146 -0.0614,0.284 -0.1606,0.386 -0.0992,0.102 -0.2322,0.159 -0.3707,0.159 -0.1384,0 -0.2714,-0.057 -0.3706,-0.159 -0.0992,-0.102 -0.1568,-0.24 -0.1606,-0.386 -0.0037,-0.146 0.0467,-0.288 0.1405,-0.395 0.0939,-0.108 0.2238,-0.172 0.362,-0.18"
      fill="#e0e0e0" id="path276" />
   <path d="m 53.7418,67.385166 h 8.5649 l 5.0987,4.903 -2.8916,6.505 -5.7211,-4.813 -4.6966,0.036 z" fill="#ffbe9d"
      id="path278" />
   <path
      d="m 67.4006,72.288166 0.3399,1.869 c 0.0494,0.276 0.0198,0.561 -0.0851,0.819 -0.1049,0.258 -0.2802,0.478 -0.5037,0.63 l -0.4788,0.339 0.067,0.454 c 0.0394,0.255 2e-4,0.516 -0.1119,0.745 -0.112,0.229 -0.291,0.414 -0.5104,0.528 l -0.4788,0.237 c -0.0204,0.135 -0.0658,0.264 -0.1336,0.381 -0.0678,0.116 -0.1567,0.218 -0.2617,0.298 -0.1049,0.08 -0.2238,0.138 -0.3498,0.169 -0.1261,0.032 -0.2568,0.037 -0.3847,0.016 v 0 l -0.2203,-2.874 z"
      fill="#ffbe9d" id="path280" />
   <path
      d="m 66.7304,76.586166 c -0.1558,-0.514 -0.2585,-1.044 -0.3064,-1.581 -0.1284,-0.522 -0.2038,-1.057 -0.225,-1.596 0.2659,0.474 0.4294,1.003 0.4787,1.551 0.1264,0.532 0.1443,1.086 0.0527,1.626 z"
      fill="#eb996e" id="path282" />
   <path
      d="m 65.6244,78.040166 c -0.0718,0 -0.1771,-0.434 -0.2968,-0.974 -0.1096,-0.324 -0.1584,-0.667 -0.1436,-1.01 0.067,-0.026 0.2633,0.394 0.383,0.954 0.1134,0.33 0.1333,0.688 0.0574,1.03 z"
      fill="#eb996e" id="path284" />
</svg>