<?xml version="1.0" encoding="UTF-8" standalone="no"?>
<svg
   xmlns:dc="http://purl.org/dc/elements/1.1/"
   xmlns:cc="http://creativecommons.org/ns#"
   xmlns:rdf="http://www.w3.org/1999/02/22-rdf-syntax-ns#"
   xmlns:svg="http://www.w3.org/2000/svg"
   xmlns="http://www.w3.org/2000/svg"
   width="229.00005"
   height="125.54884"
   viewBox="0 0 229.00005 125.54884"
   fill="none"
   version="1.1"
   id="svg190">
  <metadata
     id="metadata196">
    <rdf:RDF>
      <cc:Work
         rdf:about="">
        <dc:format>image/svg+xml</dc:format>
        <dc:type
           rdf:resource="http://purl.org/dc/dcmitype/StillImage" />
        <dc:title></dc:title>
      </cc:Work>
    </rdf:RDF>
  </metadata>
  <defs
     id="defs194" />
  <path
     d="m 161.21302,17.835647 c -0.476,-1.5038 2.636,-1.6195 3.818,-2.644 1.673,-1.4542 3.581,-2.6705 5.716,-3.2389 2.135,-0.5685 4.492,-0.4264 6.406,0.661 0.223,0.1631 0.485,0.2644 0.758,0.2941 0.218,-0.0173 0.428,-0.0852 0.616,-0.1983 1.331,-0.6841 1.953,-1.626 3.079,-2.6175 0.4,-0.3537 0.934,-1.094 2.226,-0.9122 0.7,0.0991 1.091,0.5618 1.628,1.0113 0.325,-1.474 1.715,-2.4226 3.06,-3.0604 0.701,-0.3849 1.481,-0.5976 2.278,-0.6214 0.699,0.0659 1.379,0.2691 2.002,0.5982 1.269,0.523 2.441,1.2606 3.467,2.1813 0.976,0.9618 1.709,2.2673 1.715,3.6554 0.282,-0.278 0.64,-0.4646 1.026,-0.536 0.387,-0.0713 0.786,-0.0243 1.147,0.1351 0.36,0.1594 0.666,0.424 0.878,0.7602 0.212,0.3363 0.32,0.7289 0.312,1.1279 0.651,-1.2294 2.331,-1.626 3.58,-1.0741 1.25,0.5519 2.087,1.8442 2.429,3.1926 0.47,-0.211 1,-0.2408 1.49,-0.0839 0.49,0.157 0.907,0.49 1.172,0.9366 0.925,-1.2294 2.754,-1.4806 4.157,-0.8791 1.403,0.6015 2.419,1.8872 3.115,3.262 -5.055,2.102 -11.135,2.0954 -16.601,1.983 -5.465,-0.1123 -10.94,-0.6246 -16.373,-0.0396 -1.468,0.1553 -2.968,0.3933 -4.404,0.0363 -0.723,-0.1784 -1.4,-0.499 -2.106,-0.7304 -2.497,-0.813 -5.192,-0.4395 -7.796,-0.1784 0.01,-0.0033 -7.08,2.4159 -8.795,-3.0208 z"
     fill="#EBEBEB"
     id="path2"
     style="fill:#ffffff;fill-opacity:1" />
  <path
     d="m 216.19102,85.396547 c -2.369,1.3716 -4.459,2.3796 -5.231,4.7993 -0.289,0.899 -0.423,1.867 -0.908,2.673 -0.709,1.17 -2.093,1.878 -2.545,3.173 -0.537,1.52 0.416,3.305 -0.218,4.786003 -0.502,1.17 -1.843,1.771 -2.399,2.915 -0.769,1.576 0.221,3.45 0.052,5.199 -0.124,1.265 -0.843,2.373 -1.302,3.549 -0.459,1.177 -0.83,2.942 0,3.88 h 3.929 c -0.186,-0.349 -0.28,-0.741 -0.273,-1.139 0.007,-0.397 0.114,-0.785 0.312,-1.128 0.381,-0.635 0.908,-1.196 1.132,-1.907 0.42,-1.339 -0.345,-2.796 -0.133,-4.187 0.244,-1.62 1.735,-2.773 2.181,-4.347 0.488,-1.712 -0.326,-3.665003 0.404,-5.288003 0.537,-1.179 1.78,-1.89 2.376,-3.04 0.55,-1.064 0.462,-2.337 0.459,-3.54 -0.007,-2.6074 0.621,-4.1344 2.164,-6.3983 z"
     fill="#EBEBEB"
     id="path4"
     style="fill:#455a64;fill-opacity:1" />
  <path
     d="m 201.27702,116.37085 c -1.628,-1.038 -2.605,-3.609 -1.976,-5.45 0.397,-1.163 1.302,-2.313 0.901,-3.486 -0.28,-0.83 -1.152,-1.342 -1.422,-2.175 -0.524,-1.596 1.39,-3.031 1.396,-4.713 0,-1.540003 -1.552,-2.644003 -1.823,-4.168003 -0.166,-0.928 0.176,-1.86 0.29,-2.796 0.114,-0.935 -0.13,-2.065 -0.976,-2.429 0.778,-0.373 1.744,0.053 2.278,0.744 0.534,0.69 0.723,1.579 0.905,2.432 0.182,0.853 0.381,1.742 0.915,2.429 0.781,0.992 2.226,1.511 2.552,2.743 0.459,1.742003 -1.719,3.448003 -1.107,5.143003 0.371,1.038 1.628,1.494 2.09,2.499 0.729,1.609 -1.003,3.41 -0.687,5.152 0.127,0.698 0.57,1.286 0.856,1.93 0.287,0.645 0.394,1.636 -0.094,2.145"
     fill="#EBEBEB"
     id="path6"
     style="fill:#455a64;fill-opacity:1" />
  <path
     d="m 223.68802,102.62185 c -0.111,0.863 -0.905,1.494 -1.732,1.729 -0.827,0.235 -1.702,0.172 -2.558,0.218 -0.856,0.046 -1.765,0.228 -2.377,0.836 -0.699,0.698 -0.901,1.841 -1.718,2.393 -1.127,0.754 -2.861,0 -3.864,0.925 -0.951,0.873 -0.596,2.717 -1.673,3.421 -0.41,0.265 -0.928,0.284 -1.39,0.436 -1.276,0.42 -2.178,2.592 -1.696,3.861 l 4.056,-0.053 c 0.976,-0.132 1.51,-0.8 1.888,-1.706 0.377,-0.905 0.726,-1.926 1.562,-2.422 0.895,-0.532 2.087,-0.291 2.982,-0.823 1.478,-0.879 1.37,-3.305 2.819,-4.24 0.729,-0.463 1.666,-0.41 2.454,-0.754 0.333,-0.164 0.63,-0.393 0.873,-0.675 0.244,-0.283 0.43,-0.612 0.546,-0.968 0.116,-0.356 0.161,-0.732 0.131,-1.106 -0.029,-0.374 -0.132,-0.739 -0.303,-1.072 z"
     fill="#EBEBEB"
     id="path8"
     style="fill:#455a64;fill-opacity:1" />
  <path
     d="m 205.64502,116.23585 c 0.114,-0.112 0.206,-0.246 0.27,-0.394 0.072,-0.204 0.094,-0.424 0.066,-0.639 -0.028,-0.216 -0.107,-0.421 -0.229,-0.6 -0.164,-0.255 -0.352,-0.494 -0.56,-0.714 -0.249,-0.257 -0.468,-0.543 -0.651,-0.852 -0.096,-0.177 -0.163,-0.368 -0.198,-0.566 -0.028,-0.209 -0.021,-0.421 0.023,-0.628 0.117,-0.414 0.298,-0.807 0.537,-1.163 0.229,-0.344 0.425,-0.709 0.586,-1.091 0.125,-0.358 0.173,-0.741 0.14,-1.12 -0.025,-0.341 -0.105,-0.676 -0.235,-0.992 -0.135,-0.27 -0.303,-0.522 -0.501,-0.75 -0.277,-0.347 -0.572,-0.678 -0.885,-0.991 -0.219,-0.222 -0.352,-0.331 -0.346,-0.331 0.143,0.081 0.274,0.181 0.391,0.298 0.335,0.295 0.647,0.615 0.934,0.958 0.212,0.23 0.392,0.488 0.534,0.767 0.146,0.332 0.235,0.688 0.261,1.051 0.042,0.403 -0.005,0.811 -0.137,1.193 -0.164,0.393 -0.364,0.77 -0.599,1.124 -0.229,0.339 -0.404,0.712 -0.518,1.107 -0.088,0.366 -0.035,0.753 0.15,1.081 0.348,0.634 0.902,1.064 1.175,1.583 0.124,0.194 0.2,0.415 0.221,0.646 0.021,0.23 -0.013,0.462 -0.1,0.676 -0.052,0.115 -0.129,0.217 -0.225,0.297 -0.031,0.024 -0.067,0.04 -0.104,0.05 z"
     fill="#E0E0E0"
     id="path10"
     style="fill:#000000;fill-opacity:1" />
  <path
     d="m 198.88402,91.427847 c 0.077,0.055 0.147,0.119 0.208,0.192 0.181,0.205 0.317,0.446 0.401,0.707 0.128,0.414 0.189,0.846 0.182,1.279 0,0.509 -0.081,1.078 -0.094,1.702 -0.06,0.677 0.1,1.355 0.455,1.931 0.236,0.288 0.523,0.528 0.847,0.707 0.362,0.196 0.692,0.449 0.976,0.75 0.282,0.349 0.429,0.791 0.414,1.243 -0.019,0.456003 -0.122,0.904003 -0.303,1.322003 -0.185,0.426 -0.402,0.838 -0.651,1.229 -0.246,0.399 -0.455,0.819 -0.625,1.256 -0.175,0.428 -0.229,0.898 -0.156,1.355 0.102,0.438 0.314,0.841 0.615,1.17 0.286,0.331 0.609,0.645 0.892,0.992 0.3,0.319 0.523,0.705 0.651,1.127 0.104,0.408 0.096,0.838 -0.023,1.242 -0.105,0.372 -0.231,0.737 -0.378,1.094 -0.135,0.328 -0.244,0.666 -0.325,1.012 -0.06,0.319 -0.088,0.643 -0.085,0.968 0.021,0.995 0.348,1.958 0.938,2.753 0.222,0.284 0.467,0.549 0.732,0.793 -0.079,-0.049 -0.154,-0.106 -0.225,-0.168 -0.205,-0.176 -0.393,-0.372 -0.559,-0.585 -0.622,-0.796 -0.975,-1.774 -1.006,-2.79 -0.007,-0.332 0.019,-0.664 0.078,-0.991 0.079,-0.355 0.188,-0.702 0.325,-1.038 0.142,-0.352 0.264,-0.711 0.365,-1.077 0.101,-0.383 0.101,-0.785 0,-1.167 -0.125,-0.397 -0.337,-0.76 -0.622,-1.061 -0.28,-0.33 -0.602,-0.628 -0.898,-0.991 -0.318,-0.353 -0.543,-0.781 -0.651,-1.246 -0.078,-0.489 -0.022,-0.99 0.163,-1.448 0.325,-0.925 0.947,-1.653 1.279,-2.492 0.175,-0.398 0.275,-0.827 0.293,-1.263003 0.018,-0.412 -0.114,-0.817 -0.371,-1.136 -0.515,-0.612 -1.358,-0.83 -1.81,-1.478 -0.21,-0.302 -0.348,-0.649 -0.404,-1.014 -0.053,-0.328 -0.073,-0.66 -0.058,-0.992 0.022,-0.638 0.117,-1.2 0.117,-1.699 0.017,-0.425 -0.032,-0.85 -0.147,-1.259 -0.104,-0.349 -0.29,-0.667 -0.54,-0.929 z"
     fill="#E0E0E0"
     id="path12"
     style="fill:#000000;fill-opacity:1" />
  <path
     d="m 214.21602,88.228947 c -0.314,0.2435 -0.573,0.5522 -0.759,0.9056 -0.209,0.4164 -0.357,0.8618 -0.439,1.3223 -0.108,0.538 -0.144,1.166 -0.244,1.857 -0.074,0.771 -0.352,1.508 -0.804,2.132 -0.515,0.661 -1.303,1.104 -1.859,1.794 -0.286,0.359 -0.498,0.773 -0.622,1.217 -0.125,0.468 -0.205,0.947 -0.241,1.431 -0.097,0.991 -0.104,2.059003 -0.543,3.060003 -0.44,1.002 -1.257,1.692 -1.748,2.538 -0.254,0.405 -0.39,0.873 -0.394,1.352 0.037,0.462 0.135,0.917 0.293,1.352 0.154,0.43 0.231,0.884 0.228,1.342 -0.036,0.429 -0.135,0.85 -0.293,1.249 -0.137,0.387 -0.284,0.75 -0.375,1.114 -0.091,0.345 -0.121,0.705 -0.088,1.061 0.077,0.617 0.209,1.225 0.394,1.817 0.137,0.455 0.223,0.924 0.257,1.399 0.013,0.302 -0.027,0.604 -0.117,0.892 l -0.094,0.215 c -0.02,0.049 -0.033,0.072 -0.036,0.069 0.002,-0.026 0.009,-0.052 0.02,-0.076 l 0.078,-0.218 c 0.075,-0.286 0.103,-0.583 0.084,-0.879 -0.045,-0.467 -0.14,-0.928 -0.283,-1.375 -0.197,-0.597 -0.339,-1.211 -0.423,-1.834 -0.035,-0.37 -0.008,-0.744 0.081,-1.104 0.092,-0.374 0.235,-0.744 0.368,-1.127 0.15,-0.387 0.244,-0.795 0.277,-1.21 0.001,-0.44 -0.077,-0.877 -0.228,-1.289 -0.165,-0.448 -0.267,-0.918 -0.303,-1.395 0.001,-0.509 0.144,-1.009 0.41,-1.44 0.511,-0.88 1.302,-1.574 1.739,-2.526 0.436,-0.951 0.433,-2.009003 0.53,-3.004003 0.038,-0.495 0.123,-0.985 0.254,-1.464 0.129,-0.464 0.351,-0.896 0.651,-1.269 0.606,-0.714 1.374,-1.157 1.872,-1.785 0.442,-0.601 0.716,-1.313 0.794,-2.059 0.108,-0.681 0.15,-1.322 0.27,-1.857 0.09,-0.4681 0.249,-0.9195 0.472,-1.3387 0.15,-0.2604 0.343,-0.4929 0.57,-0.6874 0.075,-0.0713 0.16,-0.1324 0.251,-0.1818 z"
     fill="#E0E0E0"
     id="path14"
     style="fill:#000000;fill-opacity:1" />
  <path
     d="m 221.99902,104.71785 c -0.003,0.067 -0.016,0.133 -0.04,0.195 -0.066,0.186 -0.178,0.352 -0.325,0.482 -0.226,0.207 -0.494,0.359 -0.785,0.446 -0.38,0.118 -0.774,0.181 -1.171,0.189 -0.47,0.004 -0.936,0.085 -1.381,0.241 -0.241,0.11 -0.458,0.268 -0.638,0.465 -0.181,0.196 -0.321,0.427 -0.413,0.679 -0.238,0.525 -0.355,1.133 -0.618,1.728 -0.13,0.308 -0.311,0.591 -0.534,0.836 -0.236,0.264 -0.553,0.439 -0.899,0.496 -0.703,0.099 -1.334,-0.198 -1.953,-0.159 -0.288,0.03 -0.565,0.133 -0.804,0.301 -0.238,0.167 -0.431,0.394 -0.56,0.658 -0.248,0.487 -0.445,1 -0.586,1.53 -0.132,0.479 -0.353,0.928 -0.651,1.322 -0.452,0.554 -1.087,0.923 -1.787,1.038 -0.187,0.032 -0.377,0.042 -0.566,0.03 -0.066,-0.002 -0.132,-0.012 -0.195,-0.03 0.252,0 0.503,-0.022 0.752,-0.066 0.67,-0.137 1.272,-0.508 1.702,-1.048 0.278,-0.385 0.483,-0.818 0.605,-1.279 0.138,-0.544 0.334,-1.07 0.586,-1.57 0.152,-0.27 0.353,-0.509 0.593,-0.704 0.257,-0.202 0.57,-0.318 0.895,-0.33 0.651,-0.037 1.302,0.254 1.924,0.158 0.309,-0.053 0.591,-0.209 0.804,-0.442 0.225,-0.236 0.408,-0.51 0.54,-0.81 0.254,-0.569 0.374,-1.183 0.625,-1.725 0.102,-0.269 0.256,-0.514 0.452,-0.721 0.196,-0.208 0.431,-0.374 0.691,-0.489 0.459,-0.157 0.941,-0.235 1.425,-0.231 0.388,-10e-4 0.775,-0.053 1.149,-0.156 0.282,-0.078 0.544,-0.217 0.769,-0.406 0.187,-0.168 0.323,-0.385 0.394,-0.628 z"
     fill="#E0E0E0"
     id="path16"
     style="fill:#000000;fill-opacity:1" />
  <path
     d="m 208.28502,108.21485 c 0.061,0.102 0.108,0.213 0.136,0.33 0.106,0.309 0.192,0.625 0.258,0.945 0.343,1.654 0.27,3.369 -0.212,4.988 -0.128,0.472 -0.334,0.919 -0.609,1.322 -0.187,0.277 -0.444,0.497 -0.745,0.637 -0.081,0.037 -0.167,0.065 -0.254,0.083 -0.062,0 -0.091,0 -0.094,0 -0.004,0 0.12,-0.043 0.325,-0.149 0.276,-0.16 0.509,-0.387 0.677,-0.661 0.254,-0.4 0.442,-0.84 0.557,-1.302 0.447,-1.6 0.531,-3.283 0.244,-4.921 -0.147,-0.78 -0.313,-1.246 -0.283,-1.272 z"
     fill="#E0E0E0"
     id="path18"
     style="fill:#455a64;fill-opacity:1" />
  <path
     d="m 114.93502,41.882847 c -0.391,-1.2394 2.174,-1.322 3.144,-2.1813 1.354,-1.2355 2.963,-2.1459 4.71,-2.6638 1.755,-0.466 3.701,-0.3537 5.277,0.5552 0.185,0.1326 0.4,0.2156 0.625,0.2413 0.18,-0.014 0.353,-0.0706 0.508,-0.1653 1.097,-0.5651 1.604,-1.3385 2.535,-2.1548 0.326,-0.2909 0.772,-0.9023 1.836,-0.7536 0.576,0.0827 0.899,0.4627 1.351,0.8362 0.261,-1.2162 1.413,-1.983 2.523,-2.5217 0.584,-0.3264 1.237,-0.5044 1.904,-0.5189 0.569,0.0534 1.121,0.2184 1.628,0.4858 1.044,0.43 2.01,1.0368 2.854,1.7946 0.421,0.382 0.762,0.8447 1.005,1.3615 0.243,0.5168 0.383,1.0774 0.411,1.6494 0.232,-0.2308 0.526,-0.386 0.845,-0.4457 0.32,-0.0597 0.649,-0.0211 0.946,0.1107 0.298,0.1318 0.55,0.3508 0.723,0.629 0.174,0.2782 0.262,0.6028 0.253,0.9322 0.531,-1.0114 1.921,-1.3386 2.959,-0.8825 1.038,0.4561 1.719,1.517 1.999,2.644 0.387,-0.1743 0.824,-0.1989 1.228,-0.0693 0.404,0.1296 0.747,0.4046 0.966,0.7733 0.761,-1.0113 2.278,-1.2229 3.424,-0.7271 1.146,0.4957 1.992,1.5567 2.565,2.687 -4.163,1.7318 -9.173,1.7285 -13.671,1.6326 -4.499,-0.0958 -9.014,-0.5155 -13.486,-0.0363 -1.211,0.1322 -2.448,0.3305 -3.63,0.033 -0.595,-0.1487 -1.155,-0.4131 -1.738,-0.6015 -2.054,-0.661 -4.274,-0.3635 -6.422,-0.1487 -0.004,-0.0099 -5.843,1.983 -7.272,-2.4953 z"
     fill="#EBEBEB"
     id="path20"
     style="fill:#ffffff;fill-opacity:1" />
  <path
     d="m 5.048963,24.971147 c -0.4752455,-1.5038 2.6366525,-1.6195 3.8182525,-2.644 1.6698705,-1.4542 3.5806205,-2.6705 5.7159605,-3.2356 2.13534,-0.5652 4.49204,-0.4297 6.40604,0.661 0.2233,0.1606 0.4832,0.2607 0.7552,0.2908 0.2178,-0.0148 0.4289,-0.0828 0.6152,-0.1983 1.3346,-0.6841 1.9531,-1.626 3.0793,-2.6175 0.4037,-0.3537 0.9342,-1.094 2.2298,-0.9122 0.6998,0.0991 1.0904,0.5618 1.6275,1.0113 0.3255,-1.4707 1.7155,-2.4192 3.0598,-3.0604 0.7012,-0.3854 1.4816,-0.5983 2.2786,-0.6214 0.6957,0.0636 1.3724,0.2646 1.9921,0.5916 1.2685,0.5213 2.4399,1.2591 3.4635,2.1813 0.9765,0.9585 1.7121,2.2673 1.7187,3.6355 0.2829,-0.2765 0.6402,-0.4617 1.0268,-0.5321 0.3865,-0.0704 0.785,-0.0228 1.1449,0.1367 0.3599,0.1596 0.6652,0.4239 0.8772,0.7596 0.2119,0.3357 0.321,0.7277 0.3136,1.1264 0.651,-1.2295 2.3306,-1.6294 3.5806,-1.0741 1.25,0.5552 2.0865,1.8442 2.4283,3.1926 0.4698,-0.2125 1,-0.2431 1.4905,-0.086 0.4905,0.1571 0.9075,0.491 1.1722,0.9387 0.9244,-1.2295 2.7506,-1.4839 4.1535,-0.8824 1.403,0.6015 2.4218,1.8871 3.1184,3.262 -5.0552,2.102 -11.139,2.0954 -16.6011,1.983 -5.462,-0.1124 -10.9404,-0.6279 -16.3731,-0.043 -1.4681,0.1587 -2.9687,0.3933 -4.4042,0.0397 -0.7226,-0.1785 -1.3997,-0.5024 -2.1093,-0.7337 -2.4934,-0.8097 -5.1886,-0.4396 -7.79596,-0.1785 0.01953,0.0232 -7.0668505,2.4424 -8.782293,-2.991 z"
     fill="#EBEBEB"
     id="path22"
     style="fill:#ffffff;fill-opacity:1" />
  <path
     d="m 21.920216,86.308747 c 2.3664,1.3716 4.4595,2.3796 5.2309,4.7991 0.2865,0.899 0.4199,1.867 0.9082,2.674 0.7064,1.173 2.0898,1.877 2.5455,3.172 0.5338,1.521 -0.4199,3.305003 0.2148,4.789003 0.5013,1.167 1.8457,1.768 2.4023,2.912 0.7682,1.576 -0.2246,3.45 -0.0521,5.199 0.1205,1.266 0.8431,2.373 1.3021,3.549 0.4589,1.177 0.8333,2.942 0,3.88 h -3.9355 c 0.1862,-0.349 0.2807,-0.741 0.2745,-1.138 -0.0063,-0.397 -0.1131,-0.786 -0.3103,-1.129 -0.3841,-0.634 -0.9081,-1.196 -1.1327,-1.907 -0.4232,-1.338 0.345,-2.796 0.1334,-4.184 -0.2441,-1.619 -1.7349,-2.776 -2.1841,-4.349 -0.4851,-1.712 0.3255,-3.666 -0.4037,-5.288003 -0.5338,-1.18 -1.7805,-1.888 -2.373,-3.041 -0.5501,-1.064 -0.4622,-2.337 -0.4589,-3.54 0.0097,-2.6073 -0.6152,-4.1342 -2.1614,-6.3981 z"
     fill="#455a64"
     id="path24" />
  <path
     d="m 36.835116,117.28285 c 1.6275,-1.034 2.6041,-3.605 1.9758,-5.45 -0.4003,-1.163 -1.302,-2.313 -0.9016,-3.486 0.2799,-0.83 1.149,-1.342 1.4225,-2.175 0.524,-1.593 -1.39,-3.031 -1.3997,-4.713 0,-1.540003 1.5526,-2.644003 1.8228,-4.168003 0.166,-0.928 -0.1758,-1.86 -0.2864,-2.796 -0.1107,-0.935 0.1302,-2.065 0.9765,-2.425 -0.778,-0.377 -1.748,0.049 -2.2786,0.74 -0.5306,0.691 -0.7226,1.58 -0.9049,2.432 -0.1823,0.853 -0.3841,1.745 -0.9179,2.429 -0.7813,0.992 -2.2233,1.511 -2.5488,2.744003 -0.4622,1.741 1.7155,3.447 1.1068,5.142 -0.3744,1.038 -1.6276,1.494 -2.0931,2.499 -0.7291,1.609 1.0058,3.411 0.6868,5.152 -0.1269,0.698 -0.5696,1.286 -0.856,1.934 -0.2865,0.648 -0.3907,1.632 0.0943,2.141"
     fill="#455a64"
     id="path26" />
  <path
     d="m 14.420436,103.51785 c 0.11068,0.866 0.90488,1.494 1.73168,1.729 0.8268,0.234 1.7025,0.175 2.5586,0.218 0.856,0.043 1.7642,0.228 2.3794,0.836 0.6999,0.697 0.9017,1.841 1.7187,2.393 1.123,0.753 2.8613,0 3.8606,0.928 0.9505,0.87 0.5957,2.714 1.6731,3.418 0.4101,0.267 0.9277,0.284 1.3932,0.436 1.276,0.42 2.1777,2.591 1.6927,3.86 l -4.0559,-0.053 c -0.9765,-0.132 -1.5071,-0.799 -1.8847,-1.705 -0.3776,-0.906 -0.7259,-1.927 -1.5625,-2.423 -0.8984,-0.532 -2.0898,-0.29 -2.9849,-0.822 -1.4746,-0.876 -1.3671,-3.305 -2.8157,-4.241 -0.7291,-0.463 -1.6666,-0.41 -2.4576,-0.753 -0.3326,-0.164 -0.6295,-0.394 -0.8732,-0.676 -0.24366,-0.282 -0.42909,-0.611 -0.54533,-0.967 -0.11624,-0.356 -0.16092,-0.733 -0.1314,-1.107 0.02951,-0.374 0.13263,-0.738 0.30325,-1.071 z"
     fill="#455a64"
     id="path28" />
  <path
     d="m 32.466716,117.16385 c -0.1155,-0.11 -0.2085,-0.243 -0.2734,-0.39 -0.07,-0.205 -0.0917,-0.424 -0.0635,-0.639 0.0283,-0.215 0.1058,-0.421 0.2262,-0.6 0.1645,-0.255 0.3519,-0.494 0.5599,-0.714 0.2504,-0.256 0.469,-0.542 0.6511,-0.853 0.0987,-0.174 0.1659,-0.366 0.1985,-0.565 0.0298,-0.209 0.0221,-0.421 -0.0228,-0.628 -0.115,-0.414 -0.2965,-0.806 -0.5371,-1.16 -0.2276,-0.346 -0.4237,-0.712 -0.5859,-1.094 -0.1252,-0.359 -0.1718,-0.741 -0.1367,-1.12 0.0223,-0.342 0.1016,-0.677 0.2344,-0.992 0.1326,-0.271 0.3001,-0.523 0.498,-0.75 0.2764,-0.347 0.572,-0.678 0.8854,-0.991 0.1216,-0.109 0.2368,-0.225 0.345,-0.347 -0.1416,0.082 -0.2728,0.182 -0.3906,0.297 -0.3327,0.296 -0.6438,0.617 -0.931,0.959 -0.2129,0.229 -0.3936,0.487 -0.537,0.766 -0.1445,0.333 -0.2325,0.689 -0.2605,1.051 -0.0408,0.403 0.0059,0.811 0.1368,1.193 0.1648,0.393 0.3653,0.769 0.5989,1.124 0.2304,0.338 0.4052,0.712 0.5176,1.107 0.0424,0.186 0.0513,0.377 0.026,0.565 -0.0294,0.181 -0.0889,0.356 -0.1758,0.516 -0.3483,0.635 -0.9016,1.064 -1.1751,1.583 -0.1245,0.194 -0.2003,0.416 -0.2208,0.646 -0.0204,0.231 0.0152,0.463 0.1037,0.676 0.0506,0.115 0.1262,0.217 0.2213,0.298 0.0304,0.029 0.0672,0.05 0.1074,0.062 z"
     fill="#263238"
     id="path30" />
  <path
     d="m 39.227616,92.340847 c -0.0772,0.054 -0.1472,0.119 -0.2083,0.191 -0.181,0.205 -0.3185,0.446 -0.4037,0.707 -0.1285,0.415 -0.189,0.848 -0.179,1.283 0,0.505 0.0781,1.074 0.0911,1.699 0.0613,0.676 -0.0977,1.354 -0.4524,1.93 -0.2372,0.288 -0.5254,0.529 -0.8496,0.71 -0.3618,0.196 -0.6913,0.448 -0.9765,0.747 -0.2812,0.35 -0.427,0.792003 -0.4102,1.243003 0.0161,0.456 0.1177,0.905 0.2995,1.322 0.1853,0.426 0.403,0.837 0.651,1.229 0.245,0.4 0.4541,0.822 0.625,1.26 0.1723,0.427 0.2253,0.895 0.153,1.351 -0.1022,0.438 -0.3142,0.841 -0.6152,1.17 -0.2865,0.331 -0.6055,0.645 -0.8919,0.992 -0.2983,0.321 -0.5209,0.706 -0.6511,1.127 -0.1002,0.409 -0.0923,0.838 0.0228,1.242 0.1056,0.372 0.2317,0.737 0.3776,1.094 0.1375,0.327 0.2464,0.666 0.3255,1.012 0.0623,0.32 0.0917,0.645 0.0879,0.971 -0.0238,0.994 -0.3514,1.955 -0.9375,2.75 -0.227,0.287 -0.4786,0.552 -0.7519,0.793 0.0801,-0.048 0.1553,-0.105 0.2246,-0.168 0.2068,-0.175 0.3955,-0.371 0.5631,-0.585 0.6206,-0.797 0.9732,-1.774 1.0059,-2.79 0.0065,-0.332 -0.0196,-0.664 -0.0781,-0.991 -0.082,-0.354 -0.1909,-0.701 -0.3256,-1.038 -0.1433,-0.351 -0.2651,-0.711 -0.3645,-1.077 -0.1096,-0.379 -0.1152,-0.782 -0.0163,-1.164 0.1232,-0.397 0.3361,-0.761 0.6217,-1.061 0.2767,-0.33 0.599,-0.631 0.8952,-0.991 0.3195,-0.351 0.5438,-0.78 0.651,-1.246 0.0795,-0.487 0.0243,-0.987 -0.1595,-1.444 -0.3255,-0.929 -0.9505,-1.653 -1.2825,-2.496 -0.1739,-0.398 -0.2732,-0.826 -0.293,-1.262 -0.0163,-0.412 0.1156,-0.816 0.3711,-1.137003 0.5143,-0.611 1.3606,-0.83 1.8098,-1.477 0.2113,-0.302 0.3506,-0.649 0.4069,-1.015 0.0526,-0.328 0.0712,-0.66 0.0554,-0.991 -0.0228,-0.635 -0.1172,-1.2 -0.1172,-1.699 -0.0166,-0.425 0.034,-0.851 0.1497,-1.259 0.1132,-0.355 0.3111,-0.675 0.5762,-0.932 z"
     fill="#263238"
     id="path32" />
  <path
     d="m 23.889516,89.141147 c 0.3145,0.2424 0.5733,0.5514 0.7584,0.9055 0.211,0.4162 0.3591,0.8612 0.4395,1.3222 0.1074,0.539 0.1432,1.166 0.2441,1.857 0.0749,0.769 0.3527,1.503 0.804,2.125 0.5143,0.661 1.2858,1.108 1.8587,1.795 0.2873,0.358 0.4989,0.772 0.6217,1.216 0.1259,0.468 0.2076,0.947 0.2442,1.431 0.0976,0.992003 0.1009,2.059003 0.5403,3.061003 0.4394,1.001 1.2597,1.692 1.7512,2.538 0.2518,0.405 0.3871,0.873 0.3907,1.352 -0.0355,0.462 -0.1341,0.917 -0.293,1.351 -0.1529,0.431 -0.229,0.885 -0.2246,1.342 0.0358,0.429 0.1346,0.85 0.293,1.25 0.142,0.364 0.2659,0.736 0.371,1.113 0.0907,0.346 0.1216,0.705 0.0912,1.061 -0.0795,0.617 -0.2113,1.225 -0.3939,1.818 -0.1392,0.454 -0.2255,0.923 -0.2571,1.398 -0.0131,0.302 0.0255,0.604 0.1139,0.892 l 0.0944,0.215 0.0358,0.073 c -0.0016,-0.028 -0.0082,-0.054 -0.0195,-0.079 l -0.0782,-0.219 c -0.0722,-0.285 -0.0996,-0.581 -0.0813,-0.875 0.0453,-0.469 0.1403,-0.931 0.2832,-1.379 0.1956,-0.597 0.3372,-1.211 0.4231,-1.834 0.0343,-0.37 0.0057,-0.743 -0.0846,-1.104 -0.1034,-0.382 -0.2262,-0.758 -0.3678,-1.127 -0.1501,-0.387 -0.2434,-0.795 -0.2767,-1.209 8e-4,-0.44 0.0779,-0.877 0.2278,-1.289 0.1658,-0.448 0.2688,-0.918 0.306,-1.395 -0.0011,-0.51 -0.1433,-1.009 -0.4101,-1.441 -0.5111,-0.876 -1.3021,-1.573 -1.7382,-2.525 -0.4362,-0.952 -0.433,-2.009 -0.5339,-3.004003 -0.0369,-0.495 -0.1209,-0.986 -0.2506,-1.464 -0.1311,-0.463 -0.3525,-0.895 -0.6511,-1.269 -0.6054,-0.714 -1.3736,-1.157 -1.8716,-1.785 -0.4427,-0.601 -0.7161,-1.313 -0.791,-2.059 -0.1075,-0.681 -0.153,-1.322 -0.2702,-1.858 -0.0924,-0.462 -0.2526,-0.908 -0.4752,-1.3216 -0.1458,-0.2634 -0.3365,-0.4984 -0.5632,-0.6941 -0.078,-0.0735 -0.1656,-0.1358 -0.2604,-0.185 z"
     fill="#263238"
     id="path34" />
  <path
     d="m 16.109816,105.62985 c 0.0042,0.066 0.0173,0.132 0.0391,0.195 0.0665,0.186 0.1785,0.352 0.3255,0.482 0.2265,0.206 0.4941,0.359 0.7845,0.45 0.3818,0.114 0.777,0.177 1.1751,0.185 0.4688,0.004 0.9339,0.085 1.3769,0.241 0.2412,0.111 0.4586,0.269 0.6396,0.465 0.181,0.197 0.322,0.427 0.415,0.679 0.2377,0.525 0.3516,1.133 0.6153,1.728 0.1284,0.304 0.3043,0.584 0.5208,0.83 0.2379,0.26 0.5537,0.433 0.8984,0.492 0.7063,0.1 1.3378,-0.198 1.953,-0.158 0.2887,0.029 0.5653,0.132 0.8039,0.3 0.2386,0.168 0.4313,0.394 0.56,0.658 0.2499,0.487 0.4464,1 0.5859,1.53 0.131,0.48 0.3521,0.929 0.6511,1.322 0.4516,0.554 1.0852,0.922 1.7838,1.038 0.187,0.032 0.377,0.042 0.5663,0.03 0.0661,-0.001 0.1318,-0.011 0.1954,-0.03 -0.251,0 -0.5015,-0.022 -0.7487,-0.066 -0.6717,-0.136 -1.2752,-0.507 -1.7057,-1.048 -0.2777,-0.384 -0.483,-0.818 -0.6054,-1.279 -0.1355,-0.543 -0.3321,-1.069 -0.586,-1.566 -0.1488,-0.273 -0.349,-0.513 -0.5891,-0.708 -0.2586,-0.201 -0.5725,-0.317 -0.8985,-0.33 -0.651,-0.036 -1.302,0.254 -1.9237,0.159 -0.3084,-0.055 -0.5908,-0.211 -0.804,-0.443 -0.2096,-0.233 -0.379,-0.5 -0.5013,-0.79 -0.2572,-0.569 -0.3776,-1.183 -0.6282,-1.725 -0.1015,-0.269 -0.2545,-0.514 -0.4501,-0.721 -0.1956,-0.208 -0.4299,-0.374 -0.6892,-0.489 -0.4597,-0.155 -0.9413,-0.234 -1.4258,-0.231 -0.3891,0 -0.7766,-0.053 -1.1523,-0.156 -0.2814,-0.079 -0.5432,-0.217 -0.7682,-0.406 -0.1928,-0.17 -0.3358,-0.391 -0.4134,-0.638 z"
     fill="#263238"
     id="path36" />
  <path
     d="m 29.823616,109.12685 c -0.0576,0.104 -0.1034,0.215 -0.1368,0.33 -0.1038,0.311 -0.1886,0.627 -0.2538,0.949 -0.2226,1.062 -0.2732,2.153 -0.1498,3.232 0.0692,0.594 0.1901,1.18 0.3613,1.752 0.1259,0.473 0.3318,0.92 0.6087,1.322 0.1881,0.277 0.4454,0.498 0.7455,0.641 0.0817,0.035 0.1668,0.062 0.2539,0.079 0.0585,0 0.0911,0 0.0911,0 0,0 -0.1204,-0.043 -0.3255,-0.149 -0.2746,-0.161 -0.506,-0.388 -0.6738,-0.661 -0.2536,-0.402 -0.4415,-0.842 -0.5566,-1.305 -0.1608,-0.566 -0.2751,-1.144 -0.3418,-1.729 -0.1189,-1.062 -0.086,-2.136 0.0976,-3.189 0.1432,-0.78 0.3093,-1.262 0.28,-1.272 z"
     fill="#263238"
     id="path38" />
  <path
     d="m 157.37502,28.772047 -2.604,-4.67 c 1.613,-2.659 2.188,-5.8344 1.612,-8.902 -0.576,-3.0677 -2.261,-5.8057 -4.724,-7.6759 -2.463,-1.8703 -5.526,-2.7375 -8.587,-2.4312 -3.061,0.3063 -5.898,1.7639 -7.955,4.0864 -2.056,2.3224 -3.182,5.3418 -3.157,8.4645 0.025,3.1228 1.2,6.1231 3.293,8.4113 2.093,2.2882 4.953,3.6987 8.019,3.9544 3.065,0.2557 6.114,-0.662 8.546,-2.5727 v 0 z"
     fill="#fafafa"
     id="path40" />
  <path
     d="m 157.37502,28.771947 -5.576,-1.2956 c -0.009,-0.0023 -0.017,-0.0081 -0.022,-0.0161 -0.005,-0.0081 -0.006,-0.0177 -0.004,-0.0269 l 0.052,0.0496 c -0.781,0.6158 -1.631,1.1361 -2.533,1.5501 -1.072,0.4929 -2.209,0.8268 -3.375,0.9915 -0.647,0.0906 -1.301,0.1238 -1.953,0.0991 -0.326,-0.0198 -0.677,-0.0264 -1.022,-0.0562 l -1.039,-0.1619 c -3.097,-0.6159 -5.847,-2.4078 -7.688,-5.0104 -1.024,-1.4395 -1.734,-3.0847 -2.08,-4.8253 -0.354,-1.8414 -0.304,-3.7395 0.146,-5.559 0.464,-1.9006 1.368,-3.6613 2.637,-5.136 l 0.501,-0.5619 c 0.166,-0.1883 0.365,-0.3305 0.544,-0.5189 0.179,-0.1883 0.355,-0.3305 0.556,-0.4924 l 0.59,-0.4495 c 0.193,-0.1619 0.398,-0.3099 0.612,-0.4428 l 0.651,-0.3867 0.651,-0.3305 c 0.21,-0.1131 0.428,-0.2124 0.651,-0.2975 1.752,-0.7032 3.638,-0.998 5.517,-0.8626 1.777,0.1244 3.504,0.6434 5.062,1.5203 2.797,1.5813 4.888,4.1941 5.839,7.2975 0.382,1.3182 0.563,2.688 0.537,4.0618 -0.033,1.1933 -0.236,2.3754 -0.602,3.5099 -0.306,0.9415 -0.72,1.8433 -1.233,2.687 v -0.033 c 1.65,2.9976 2.46,4.4716 2.581,4.6865 l -2.64,-4.6535 c -0.003,-0.0055 -0.005,-0.0118 -0.005,-0.0182 0,-0.0064 0.002,-0.0126 0.005,-0.0182 0.505,-0.8412 0.912,-1.7396 1.211,-2.677 0.358,-1.1279 0.555,-2.3021 0.586,-3.4868 0.02,-1.362 -0.163,-2.7193 -0.544,-4.0255 -0.953,-3.0666 -3.027,-5.6454 -5.797,-7.2049 -1.542,-0.864 -3.252,-1.375 -5.01,-1.4972 -1.857,-0.1329 -3.721,0.1597 -5.452,0.856 -0.223,0.0838 -0.44,0.1821 -0.651,0.2942 l -0.651,0.3305 -0.619,0.3834 c -0.209,0.1212 -0.41,0.2559 -0.602,0.4032 l -0.586,0.4461 c -0.198,0.1422 -0.364,0.3305 -0.55,0.4859 -0.185,0.1553 -0.371,0.3305 -0.534,0.5123 l -0.498,0.5552 c -1.253,1.459 -2.146,3.2004 -2.604,5.0798 -0.443,1.7902 -0.494,3.6574 -0.149,5.4698 0.341,1.7232 1.042,3.3526 2.054,4.779 1.821,2.584 4.544,4.3671 7.613,4.9873 l 1.029,0.1586 c 0.342,0.0298 0.68,0.0397 1.012,0.0595 0.645,0.0281 1.291,-0.0029 1.93,-0.0925 1.157,-0.155 2.286,-0.4767 3.353,-0.9552 0.897,-0.4072 1.744,-0.9196 2.523,-1.5269 0.003,-0.0035 0.007,-0.0063 0.011,-0.0083 0.004,-0.0019 0.009,-0.0029 0.013,-0.0029 0.005,0 0.01,0.001 0.014,0.0029 0.004,0.002 0.008,0.0048 0.011,0.0083 0.003,0.0028 0.005,0.0061 0.006,0.0098 0.002,0.0037 0.003,0.0077 0.003,0.0117 0,0.004 -0.001,0.008 -0.003,0.0117 -0.001,0.0037 -0.003,0.007 -0.006,0.0098 l -0.02,-0.0562 z"
     fill="#263238"
     id="path42" />
  <path
     d="m 149.50402,16.926747 c -0.052,-0.6566 -0.302,-1.281 -0.716,-1.788 -0.385,-0.5139 -0.921,-0.891 -1.53,-1.0774 -0.52,-0.1476 -1.073,-0.1169 -1.574,0.0875 -0.501,0.2044 -0.921,0.571 -1.196,1.0428 -0.238,-0.4697 -0.616,-0.8507 -1.08,-1.0882 -0.465,-0.2376 -0.991,-0.3194 -1.505,-0.2338 -0.621,0.1226 -1.19,0.4378 -1.627,0.9022 -0.473,0.4525 -0.797,1.0423 -0.928,1.6889 -0.145,0.8278 -0.022,1.6808 0.348,2.4325 0.437,0.7641 1.048,1.4111 1.781,1.8871 1.195,0.8197 2.754,1.8608 2.754,1.8608 0,0 1.419,-0.9618 2.685,-1.6525 0.779,-0.3932 1.455,-0.9686 1.973,-1.679 0.451,-0.7071 0.666,-1.5422 0.615,-2.3829 z"
     fill="#db24b7"
     id="path44" />
  <path
     d="m 47.117916,69.413547 c 1.9043,-0.1917 3.8769,-0.4627 5.703,0.1322 0.5176,0.1685 1.0123,0.4065 1.5397,0.5354 1.0514,0.2611 2.1483,0.0859 3.2225,-0.0297 3.9745,-0.4264 7.9815,-0.0529 11.9755,0.033 3.9941,0.0859 8.447,0.0892 12.1448,-1.4476 -0.511,-1.008 -1.2564,-1.9466 -2.2785,-2.3862 -1.0221,-0.4396 -2.3632,-0.2545 -3.0403,0.6445 -0.1945,-0.3281 -0.5004,-0.5726 -0.8601,-0.6877 -0.3597,-0.115 -0.7484,-0.0926 -1.093,0.063 -0.2506,-0.9915 -0.8561,-1.9301 -1.7773,-2.3366 -0.9211,-0.4065 -2.1548,-0.1124 -2.6236,0.7866 0.0064,-0.2918 -0.0729,-0.5789 -0.2277,-0.8248 -0.1549,-0.2459 -0.3783,-0.4395 -0.6418,-0.5561 -0.2635,-0.1165 -0.5552,-0.1509 -0.838,-0.0986 -0.2828,0.0522 -0.5439,0.1887 -0.7501,0.3921 -0.0255,-0.5077 -0.1497,-1.0054 -0.3653,-1.4642 -0.2156,-0.4589 -0.5185,-0.8699 -0.8911,-1.2095 -0.7503,-0.6739 -1.6077,-1.2137 -2.5358,-1.5963 -0.454,-0.238 -0.9493,-0.384 -1.4583,-0.4297 -0.5816,0.0169 -1.1513,0.172 -1.6633,0.4528 -0.9765,0.4693 -2.0084,1.1634 -2.2395,2.2408 -0.4004,-0.3305 -0.6868,-0.661 -1.1979,-0.7403 -0.9472,-0.1355 -1.3378,0.4065 -1.6275,0.661 -0.8268,0.7238 -1.2793,1.4112 -2.2526,1.9136 -0.1377,0.0833 -0.2926,0.133 -0.4524,0.1454 -0.1993,-0.0233 -0.3896,-0.0972 -0.5534,-0.2148 -0.9835,-0.544 -2.0983,-0.7948 -3.2161,-0.7238 3.7958,-5.4344 8.9902,-9.7044 15.0152,-12.3433 6.025,-2.6388 12.6486,-3.5447 19.1465,-2.6188 6.498,0.9259 12.6201,3.6481 17.696904,7.8689 5.0766,4.2208 8.9126,9.7777 11.0886,16.063 -0.115,-0.1718 -0.247,-0.3312 -0.394,-0.476 -0.482,-0.4306 -1.032,-0.7748 -1.627,-1.0179 -0.29,-0.1525 -0.606,-0.2457 -0.931,-0.2743 -0.371,0.0101 -0.735,0.1086 -1.061,0.2875 -0.632,0.3008 -1.283,0.7436 -1.433,1.4311 -0.203,-0.2306 -0.469,-0.395 -0.765,-0.4726 -0.195,-0.0277 -0.394,-0.0029 -0.577,0.0719 -0.182,0.0748 -0.3426,0.197 -0.4643,0.3544 -0.5273,0.4627 -0.817,0.9023 -1.4388,1.2229 -0.087,0.0531 -0.1851,0.0848 -0.2864,0.0925 -0.1277,-0.0137 -0.2499,-0.0603 -0.3548,-0.1355 -0.918,-0.4972 -1.9896,-0.6156 -2.991504,-0.3305 -0.9915,0.2942 -1.905,0.8116 -2.6724,1.5137 -0.5501,0.4792 -1.0839,1.0345 -1.7838,1.2361 -0.9993,0.2875 -2.0865,-0.2215 -3.0923,0.0297 1.953,1.5732 4.7101,1.6294 7.2068,1.3782 1.217404,-0.1223 2.477104,-0.2942 3.642404,0.0859 0.3255,0.1058 0.651,0.2578 0.9766,0.3305 0.6818,0.1189 1.3785,0.1189 2.0605,0 2.448,-0.2644 4.915,-0.0529 7.379,0 0.404,2.2073 0.606,4.4477 0.606,6.6927 H 42.534816 c -0.0069,-4.8544 0.9485,-9.6606 2.8091,-14.1322 0.5827,-0.0067 1.1881,-0.0529 1.774,-0.1124 z"
     fill="#db24b7"
     id="path46" />
  <path
     d="m 65.545116,45.875347 c 0.0485,-0.0114 0.0964,-0.0258 0.1432,-0.043 l 0.4069,-0.1355 c 0.3613,-0.119 0.8854,-0.3305 1.5755,-0.5255 1.9375,-0.6238 3.9176,-1.1021 5.9243,-1.4311 0.6347,-0.0991 1.302,-0.2082 1.9986,-0.2743 0.6966,-0.0661 1.4257,-0.1322 2.1809,-0.1851 1.6066,-0.0815 3.2167,-0.0617 4.8208,0.0595 1.7711,0.1489 3.5299,0.4228 5.2635,0.8197 1.8635,0.4169 3.6853,1.0066 5.4426,1.7615 0.9147,0.3669 1.7708,0.8263 2.6301,1.2526 0.8594,0.4264 1.6699,0.9122 2.4479,1.4245 1.5142,0.9451 2.972804,1.9791 4.368304,3.0968 2.3663,1.8965 4.5093,4.0635 6.3863,6.458 l 0.593,0.7502 c 0.179,0.2512 0.341,0.5057 0.504,0.7469 0.326,0.4892 0.651,0.9387 0.886,1.3981 0.234,0.4593 0.498,0.8626 0.699,1.2559 l 0.508,1.1005 0.215,0.4693 0.147,0.4264 0.237,0.661 0.147,0.4098 c 0.035,0.0925 0.058,0.1388 0.058,0.1388 0,0 0,-0.0496 -0.042,-0.1421 -0.042,-0.0925 -0.075,-0.2413 -0.13,-0.4164 -0.056,-0.1752 -0.134,-0.4132 -0.222,-0.6776 l -0.143,-0.4329 c -0.065,-0.1487 -0.133,-0.3074 -0.208,-0.4726 -0.147,-0.3305 -0.326,-0.7073 -0.495,-1.1105 -0.169,-0.4032 -0.443,-0.813 -0.69,-1.2691 -0.247,-0.4561 -0.557,-0.9155 -0.876,-1.408 -0.166,-0.2445 -0.325,-0.5023 -0.504,-0.7535 -0.179,-0.2512 -0.378,-0.5024 -0.576,-0.7602 -1.871,-2.4131 -4.014,-4.596 -6.3836,-6.5042 -1.3977,-1.128 -2.860804,-2.1699 -4.381404,-3.1199 -0.778,-0.5123 -1.6276,-0.9552 -2.4544,-1.4311 -0.8267,-0.4759 -1.7252,-0.8891 -2.6398,-1.2592 -1.767,-0.7578 -3.5986,-1.3496 -5.4719,-1.7682 -1.7423,-0.3962 -3.5098,-0.6679 -5.2895,-0.813 -1.6121,-0.1171 -3.2297,-0.1325 -4.8436,-0.0463 -0.7552,0.0595 -1.4876,0.1025 -2.1842,0.1983 -0.6966,0.0959 -1.3671,0.1851 -2.0051,0.2875 -2.0095,0.3406 -3.9901,0.8378 -5.9243,1.4873 -0.6868,0.2148 -1.2077,0.4263 -1.5657,0.5552 l -0.4037,0.1521 c -0.1041,0.0462 -0.1497,0.0694 -0.1497,0.0694 z"
     fill="#db24b7"
     id="path48" />
  <path
     d="m 54.936716,49.467847 c 0.2786,-0.1035 0.5477,-0.2318 0.804,-0.3834 0.4883,-0.2511 1.1653,-0.5916 1.9238,-0.9485 0.7584,-0.3569 1.4518,-0.661 1.953,-0.8692 0.2788,-0.1017 0.5488,-0.2266 0.8073,-0.3735 -0.2926,0.0543 -0.5786,0.1408 -0.8528,0.2578 -0.5176,0.1884 -1.2239,0.4726 -1.9856,0.8296 -0.7617,0.3569 -1.4323,0.7171 -1.9108,0.9915 -0.2636,0.1369 -0.5114,0.3032 -0.7389,0.4957 z"
     fill="#db24b7"
     id="path50" />
  <path
     d="m 39.074616,81.238847 c 0.0261,-0.1136 0.036,-0.2305 0.0293,-0.347 0,-0.2622 0.0065,-0.5762 0.0195,-0.9419 0,-0.8395 0.0358,-1.9169 0.0586,-3.1101 0.0228,-1.1931 0.0716,-2.2705 0.0977,-3.11 0,-0.3701 0.0195,-0.6841 0.0292,-0.9452 0.0159,-0.1151 0.0159,-0.2319 0,-0.347 -0.0296,0.1079 -0.0482,0.2187 -0.0553,0.3305 -0.0228,0.2214 -0.0521,0.542 -0.0814,0.9419 -0.0586,0.7932 -0.1139,1.8938 -0.1465,3.11 -0.0325,1.2163 -0.026,2.3135 0,3.1166 0,0.3999 0.0228,0.7205 0.0358,0.9453 -0.0093,0.1191 -0.0049,0.2388 0.0131,0.3569 z"
     fill="#db24b7"
     id="path52" />
  <path
     d="m 80.661816,38.914947 c 0.0248,0.0045 0.0501,0.0045 0.0749,0 l 0.2148,0.0264 0.8366,0.0827 0.6022,0.0594 0.7161,0.0926 c 0.511,0.0727 1.1002,0.1355 1.7382,0.2611 l 1.0058,0.1751 c 0.3516,0.0628 0.7097,0.1521 1.084,0.2314 0.7519,0.1487 1.5429,0.3669 2.3762,0.5817 1.7972,0.51 3.5643,1.1235 5.2928,1.8376 1.7242,0.7407 3.4045,1.5827 5.0324,2.5217 0.738904,0.4462 1.448504,0.856 2.086504,1.2889 0.3255,0.2149 0.6348,0.4099 0.9245,0.6181 l 0.8366,0.5949 c 0.5403,0.3734 0.996,0.7502 1.4094,1.0642 l 0.5732,0.4462 0.465,0.3933 0.651,0.5387 0.173,0.1388 c 0.039,0.0297 0.058,0.0429 0.062,0.0396 l -0.053,-0.0528 -0.159,-0.1521 -0.631,-0.5618 c -0.137,-0.1256 -0.29,-0.2578 -0.459,-0.4065 -0.17,-0.1488 -0.362,-0.2942 -0.5636,-0.4594 -0.4069,-0.3305 -0.8626,-0.7073 -1.3964,-1.0874 l -0.8333,-0.6081 c -0.2897,-0.2082 -0.6055,-0.4065 -0.9245,-0.6246 -0.6347,-0.4396 -1.3444,-0.856 -2.086504,-1.3221 -3.2521,-1.9007 -6.7354,-3.3607 -10.361,-4.3427 -0.8366,-0.2149 -1.6276,-0.4264 -2.386,-0.5718 -0.3744,-0.076 -0.7357,-0.1586 -1.0872,-0.2181 l -1.0124,-0.1686 c -0.651,-0.1157 -1.2336,-0.1685 -1.748,-0.2346 -0.2571,-0.0265 -0.4947,-0.0595 -0.7161,-0.0794 l -0.6054,-0.0429 -0.8398,-0.0529 h -0.2181 c -0.0246,-0.0058 -0.0498,-0.008 -0.0749,-0.0066 z"
     fill="#db24b7"
     id="path54" />
  <path
     d="m 56.925616,87.118447 c 0,0.0463 9.7653,0.086 21.8255,0.086 12.0601,0 21.828704,-0.0397 21.828704,-0.086 0,-0.0462 -9.765304,-0.0859 -21.828704,-0.0859 -12.0635,0 -21.8255,0.0364 -21.8255,0.0859 z"
     fill="#db24b7"
     id="path56" />
  <path
     d="m 68.852316,89.858347 c 0,0.0495 4.7329,0.0859 10.5758,0.0859 5.8429,0 10.5759,-0.0364 10.5759,-0.0859 0,-0.0496 -4.733,-0.086 -10.5759,-0.086 -5.8429,0 -10.5758,0.0397 -10.5758,0.086 z"
     fill="#db24b7"
     id="path58" />
  <path
     d="m 72.677016,92.829847 c 0,0.046 2.2168,0.086 4.9511,0.086 2.7342,0 4.951,-0.04 4.951,-0.086 0,-0.047 -2.2168,-0.086 -4.951,-0.086 -2.7343,0 -4.9511,0.039 -4.9511,0.086 z"
     fill="#db24b7"
     id="path60" />
  <path
     d="m 14.300006,83.932447 c 0,0.0496 45.49661,0.0859 101.608014,0.0859 56.112,0 101.615,-0.0363 101.615,-0.0859 0,-0.0496 -45.487,-0.0859 -101.615,-0.0859 -56.127704,0 -101.608014,0.0396 -101.608014,0.0859 z"
     fill="#263238"
     id="path62" />
  <path
     d="m 129.17302,104.37385 -7.995,15.018 -18.4531,-10.004 c 1.0514,-1.729 12.4871,-0.149 12.4871,-0.149 l 4.732,-9.836003 z"
     fill="#455a64"
     id="path64" />
  <g
     opacity="0.6"
     id="g68"
     transform="translate(5.0000155,-9.899153)">
    <path
       opacity="0.6"
       d="m 116.344,121.418 c 0.149,0.151 0.238,0.353 0.25,0.567 0.011,0.213 -0.056,0.424 -0.188,0.59 -0.143,0.156 -0.339,0.251 -0.549,0.264 -0.209,0.014 -0.416,-0.055 -0.577,-0.191 -0.158,-0.16 -0.252,-0.375 -0.264,-0.601 -0.011,-0.227 0.061,-0.449 0.202,-0.625 0.309,-0.288 0.95,-0.298 1.181,0.056"
       fill="#ffffff"
       id="path66" />
  </g>
  <g
     opacity="0.6"
     id="g72"
     transform="translate(5.0000155,-9.899153)">
    <path
       opacity="0.6"
       d="m 116.178,129.291 0.749,-1.547 -17.9717,-9.012 c 0,0 -1.0123,-0.083 -1.2304,0.555 z"
       fill="#ffffff"
       id="path70" />
  </g>
  <path
     d="m 114.96102,108.98085 c -0.046,0.093 0.384,0.38 0.674,0.912 0.289,0.533 0.325,1.048 0.423,1.058 0.097,0.01 0.247,-0.595 -0.114,-1.233 -0.361,-0.638 -0.957,-0.816 -0.983,-0.737 z"
     fill="#263238"
     id="path74" />
  <path
     d="m 112.59802,108.74685 c -0.065,0.076 0.244,0.442 0.345,0.991 0.101,0.549 -0.023,1.011 0.068,1.054 0.091,0.043 0.42,-0.439 0.28,-1.123 -0.14,-0.684 -0.635,-1.012 -0.693,-0.922 z"
     fill="#263238"
     id="path76" />
  <path
     d="m 110.26402,110.50185 c 0.071,0.062 0.436,-0.331 0.468,-0.952 0.033,-0.622 -0.283,-1.055 -0.361,-0.992 -0.078,0.063 0.039,0.463 0,0.992 -0.039,0.528 -0.192,0.895 -0.107,0.952 z"
     fill="#263238"
     id="path78" />
  <path
     d="m 116.28602,106.86285 c 0,0.102 0.472,0.201 0.976,0.512 0.505,0.311 0.804,0.687 0.892,0.635 0.088,-0.053 -0.124,-0.585 -0.706,-0.942 -0.583,-0.357 -1.169,-0.301 -1.162,-0.205 z"
     fill="#263238"
     id="path80" />
  <path
     d="m 117.89402,104.87585 c -0.02,0.037 0.306,0.288 0.927,0.496 0.364,0.122 0.741,0.197 1.123,0.222 0.228,0.016 0.456,0.016 0.684,0 0.134,-0.002 0.267,-0.026 0.394,-0.07 0.093,-0.033 0.173,-0.097 0.226,-0.181 0.054,-0.085 0.079,-0.185 0.07,-0.285 -0.011,-0.088 -0.042,-0.172 -0.092,-0.246 -0.049,-0.073 -0.114,-0.134 -0.191,-0.177 -0.118,-0.063 -0.244,-0.11 -0.374,-0.139 -0.222,-0.057 -0.449,-0.094 -0.678,-0.109 -0.387,-0.028 -0.776,0.008 -1.152,0.106 -0.651,0.169 -0.976,0.433 -0.944,0.466 0.033,0.033 0.384,-0.119 0.996,-0.218 0.355,-0.054 0.715,-0.061 1.071,-0.023 0.209,0.024 0.416,0.065 0.619,0.122 0.221,0.053 0.39,0.142 0.394,0.258 0,0.043 0,0.056 -0.079,0.092 -0.093,0.03 -0.191,0.047 -0.289,0.05 -0.211,0.02 -0.423,0.026 -0.635,0.02 -0.362,-0.013 -0.723,-0.058 -1.077,-0.136 -0.609,-0.135 -0.971,-0.297 -0.993,-0.248 z"
     fill="#263238"
     id="path82" />
  <path
     d="m 117.94302,105.07085 c 0.022,0.033 0.374,-0.198 0.719,-0.773 0.199,-0.339 0.339,-0.71 0.413,-1.097 0.046,-0.23 0.068,-0.463 0.065,-0.698 0.016,-0.151 -0.007,-0.303 -0.067,-0.442 -0.06,-0.139 -0.155,-0.26 -0.274,-0.351 -0.083,-0.042 -0.176,-0.06 -0.268,-0.051 -0.093,0.01 -0.18,0.046 -0.253,0.104 -0.107,0.083 -0.201,0.182 -0.277,0.294 -0.14,0.192 -0.25,0.405 -0.325,0.632 -0.135,0.378 -0.175,0.785 -0.118,1.183 0.108,0.681 0.427,0.991 0.45,0.965 0.022,-0.027 -0.166,-0.377 -0.199,-0.992 -0.017,-0.355 0.042,-0.711 0.173,-1.041 0.075,-0.191 0.177,-0.37 0.302,-0.532 0.134,-0.182 0.29,-0.304 0.352,-0.244 0.06,0.063 0.105,0.139 0.133,0.223 0.028,0.083 0.038,0.171 0.03,0.259 0.005,0.212 -0.008,0.425 -0.039,0.635 -0.06,0.357 -0.17,0.704 -0.326,1.031 -0.244,0.565 -0.534,0.856 -0.491,0.895 z"
     fill="#263238"
     id="path84" />
  <path
     d="m 137.02702,65.351647 c 0.931,-0.3569 5.029,-0.7271 8.965,2.383 11.773,9.3069 30.363,29.9932 30.363,29.9932 v 4.339003 l -20.92,-0.396 -13.528,-15.424903 -13.997,24.730903 c 0.286,-0.294 -13.125,-6.715 -13.125,-6.715 0,0 17.041,-36.920503 22.242,-38.910203 z"
     fill="#263238"
     id="path86" />
  <path
     d="m 150.55502,101.54785 c 0.866,-0.201 2.396,-0.31 5.209,-0.462 6.62,-0.354 17.079,-1.134003 17.079,-1.134003 l 20.048,0.205003 0.977,8.024 c 0,7.034 -4.261,9.423 -7.399,9.968 -7.789,1.355 -24.843,0.896 -30.966,0.922 -8.909,0.04 -13.997,-3.754 -14.342,-7.76 -0.664,-7.595 5.094,-8.755 9.394,-9.763 z"
     fill="#263238"
     id="path88" />
  <path
     d="m 145.19102,103.34985 c 0.087,-0.03 0.172,-0.068 0.251,-0.116 0.162,-0.076 0.394,-0.208 0.706,-0.331 0.879,-0.396 1.792,-0.709 2.728,-0.935 1.386,-0.342 2.805,-0.532 4.231,-0.565 1.628,-0.109 3.379,-0.255 5.235,-0.41 3.71,-0.33 7.073,-0.559 9.511,-0.631 1.218,-0.04 2.204,-0.05 2.887,-0.056 h 0.785 c 0.091,0.007 0.182,0.007 0.273,0 -0.09,-0.016 -0.182,-0.024 -0.273,-0.024 l -0.785,-0.026 c -0.683,-0.017 -1.67,-0.023 -2.89,0 -2.441,0.036 -5.811,0.261 -9.521,0.578 l -5.228,0.423 c -1.434,0.042 -2.858,0.245 -4.248,0.605 -0.938,0.239 -1.851,0.571 -2.724,0.992 -0.326,0.145 -0.541,0.284 -0.697,0.373 -0.083,0.035 -0.164,0.075 -0.241,0.123 z"
     fill="#455a64"
     id="path90" />
  <path
     d="m 140.94302,74.661947 c 0.023,0.1549 0.059,0.3075 0.108,0.4561 0.081,0.2875 0.192,0.7072 0.325,1.2294 0.655,2.715 0.883,5.5183 0.674,8.3055 -0.039,0.5354 -0.082,0.9684 -0.114,1.2658 -0.027,0.1538 -0.038,0.31 -0.033,0.466 0.047,-0.1486 0.079,-0.3013 0.098,-0.4561 0.055,-0.2974 0.114,-0.7271 0.169,-1.2625 0.276,-2.8014 0.046,-5.6304 -0.677,-8.3484 -0.14,-0.5189 -0.267,-0.9353 -0.368,-1.2196 -0.046,-0.1513 -0.107,-0.2975 -0.182,-0.4362 z"
     fill="#455a64"
     id="path92" />
  <path
     d="m 160.52902,100.42485 c 0.279,-0.214 0.521,-0.473003 0.716,-0.767003 0.239,-0.256 0.436,-0.55 0.583,-0.869 -0.28,0.211 -0.522,0.469 -0.716,0.763 -0.24,0.257 -0.437,0.552003 -0.583,0.873003 z"
     fill="#455a64"
     id="path94" />
  <path
     d="m 169.27202,44.824347 c 0,0 -3.112,-1.5303 -8.274,1.0113 -5.553,2.7365 -27.561,15.2295 -27.561,15.2295 0,0 -3.783,7.5288 -5.033,16.2672 -0.598,4.2139 -0.494,5.6185 -0.494,5.6185 l 6.227,0.2181 c 0,0 6.565,-16.7035 8.762,-17.8305 l 20.625,-6.61 z"
     fill="#8d534d"
     id="path96" />
  <path
     d="m 134.14002,83.122747 c 0,0.1057 1.735,4.4254 1.953,5.1161 0.218,0.6908 0.41,5.665 0.41,5.665 0,0 0.101,1.279 0.749,1.794 -0.118,0.122 -0.265,0.209 -0.428,0.252 -0.162,0.043 -0.332,0.041 -0.493,-0.007 0,0 0.068,1.831 -0.424,2.003 -0.491,0.172 -0.901,0.519 -1.344,-0.45 -0.443,-0.968 -0.885,-2.039 -0.885,-2.039 0,0 -0.58,0.555 -1.192,0.45 -0.612,-0.106 -0.101,0.171 0,0.277 0.101,0.106 1.361,1.382 1.159,2.281 -0.202,0.899 -0.683,0.515 -0.683,0.515 l -3.233,-2.485 c 0,0 0.443,1.52 -0.814,1.933 l -2.519,-4.594 0.169,-7.6011 1.393,-4.9575 z"
     fill="#8d534d"
     id="path98" />
  <path
     d="m 136.05102,92.323847 c -0.047,0.629 -0.036,1.261 0.032,1.887 0.01,0.63 0.079,1.257 0.205,1.874 0.043,-0.629 0.031,-1.26 -0.035,-1.887 -0.013,-0.63 -0.08,-1.257 -0.202,-1.874 z"
     fill="#6f3730"
     id="path100" />
  <path
     d="m 133.02702,92.878847 c 0.021,0.473 0.108,0.94 0.257,1.388 0.097,0.463 0.26,0.908 0.485,1.322 -0.065,-0.466 -0.174,-0.926 -0.326,-1.371 -0.093,-0.46 -0.232,-0.908 -0.416,-1.339 z"
     fill="#6f3730"
     id="path102" />
  <path
     d="m 130.70902,92.422847 c -0.029,0.196 -0.029,0.396 0,0.592 0.018,0.486 0.128,0.964 0.326,1.408 0.218,0.429 0.514,0.814 0.872,1.133 0.133,0.147 0.287,0.271 0.459,0.367 -0.106,-0.166 -0.232,-0.318 -0.374,-0.453 -0.321,-0.333 -0.592,-0.711 -0.804,-1.123 -0.182,-0.427 -0.298,-0.88 -0.345,-1.342 -0.019,-0.199 -0.064,-0.395 -0.134,-0.582 z"
     fill="#6f3730"
     id="path104" />
  <path
     d="m 127.98802,92.488847 c -0.076,0.218 -0.106,0.45 -0.088,0.681 0.008,0.561 0.129,1.115 0.357,1.627 0.227,0.511 0.555,0.97 0.964,1.348 0.159,0.166 0.35,0.298 0.56,0.386 0.017,-0.023 -0.192,-0.175 -0.478,-0.472 -0.367,-0.388 -0.668,-0.835 -0.892,-1.322 -0.216,-0.493 -0.348,-1.019 -0.391,-1.557 -0.029,-0.43 -0.006,-0.687 -0.032,-0.691 z"
     fill="#6f3730"
     id="path106" />
  <path
     d="m 163.52402,84.775247 -1.345,-24.457 6.224,-16.026 c 0,0 10.622,1.3881 15.016,2.7101 1.595,0.4759 10.341,5.7937 11.718,11.6733 1.377,5.8796 0.72,14.5255 0.137,20.6397 -0.589,6.1969 0.469,22.754503 -1.868,24.433503"
     fill="#db24b7"
     id="path108" />
  <path
     d="m 148.64102,51.212847 1.498,12.5855 13.447,-3.2356 5.914,-16.1317 c -2.364,-0.4501 -4.806,-0.1964 -7.031,0.7304 -3.623,1.55 -13.828,6.0514 -13.828,6.0514 z"
     fill="#db24b7"
     id="path110" />
  <g
     opacity="0.3"
     id="g114"
     transform="translate(5.0000155,-9.899153)">
    <path
       opacity="0.3"
       d="m 158.983,90.4968 c 0.36,-0.6341 0.845,-1.1856 1.425,-1.6194 6.573,-5.5368 14.648,-8.916 23.154,-9.6903 l 0.566,0.661 -6.425,6.7522 c -1.058,1.1104 -2.396,2.3135 -3.89,2.0127 -0.618,-0.1256 -1.182,-0.5123 -1.813,-0.5387 -0.977,-0.0364 -1.768,0.7866 -2.493,1.4707 -1.458,1.3548 -3.194,2.3622 -5.083,2.9488 -1.89,0.5867 -3.884,0.7377 -5.838,0.4421 0.016,-0.8361 0.035,-1.6954 0.397,-2.4391 z"
       fill="#000000"
       id="path112" />
  </g>
  <path
     d="m 163.49802,83.182247 c -0.082,4.2799 -1.735,10.9756 -1.537,15.2526 3.158,-0.506 8.206,0.284 10.814,2.155003 1.357,0.975 2.523,2.227 3.978,3.044 2.451,1.375 5.426,1.348 8.202,0.961 2.777,-0.386 5.534,-1.107 8.33,-0.991 l -9.134,-11.118003 z"
     fill="#db24b7"
     id="path116" />
  <path
     d="m 164.68302,89.904547 c -0.02,0.3243 0,0.6493 0.058,0.9683 0.064,0.376 0.163,0.744 0.296,1.101 0.186,0.469 0.418,0.917 0.694,1.338 0.734,1.084 1.66,2.021 2.731,2.763 1.185,0.866 2.604,1.63 4.004,2.542 0.681,0.44 1.333,0.924 1.953,1.451003 0.605,0.512 1.171,1.027 1.738,1.493 0.531,0.449 1.097,0.854 1.693,1.21 0.522,0.308 1.083,0.545 1.666,0.704 0.849,0.254 1.75,0.264 2.604,0.03 0.309,-0.088 0.6,-0.227 0.863,-0.413 -0.286,0.136 -0.581,0.252 -0.882,0.347 -0.838,0.204 -1.715,0.176 -2.539,-0.08 -0.57,-0.166 -1.117,-0.404 -1.628,-0.71 -0.584,-0.36 -1.14,-0.766 -1.663,-1.213 -0.557,-0.463 -1.123,-0.992 -1.732,-1.497003 -0.627,-0.534 -1.288,-1.024 -1.979,-1.468 -1.416,-0.915 -2.829,-1.672 -4.007,-2.525 -1.062,-0.725 -1.984,-1.641 -2.721,-2.703 -0.278,-0.41 -0.515,-0.848 -0.707,-1.306 -0.14,-0.348 -0.249,-0.709 -0.325,-1.077 -0.111,-0.608 -0.095,-0.9553 -0.117,-0.9553 z"
     fill="#263238"
     id="path118" />
  <path
     d="m 166.52202,83.476347 c 0.065,0.1733 0.146,0.3403 0.241,0.4991 0.166,0.3305 0.42,0.7733 0.742,1.322 0.846,1.4373 1.77,2.8264 2.767,4.161 0.999,1.3344 2.072,2.6114 3.212,3.8234 0.437,0.463 0.801,0.83 1.058,1.078 0.126,0.136 0.265,0.26 0.414,0.37 -0.113,-0.147 -0.235,-0.286 -0.365,-0.416 -0.244,-0.261 -0.592,-0.642 -1.019,-1.114 -0.853,-0.949 -1.998,-2.287 -3.167,-3.8439 -1.169,-1.5566 -2.139,-3.034 -2.809,-4.118 -0.326,-0.5453 -0.606,-0.9915 -0.788,-1.2956 -0.082,-0.1634 -0.178,-0.3193 -0.286,-0.466 z"
     fill="#263238"
     id="path120" />
  <path
     d="m 162.24102,55.030147 c -0.032,0.1577 -0.05,0.3182 -0.052,0.4792 -0.023,0.3107 -0.042,0.7635 -0.062,1.322 -0.032,1.1105 -0.039,2.6441 0,4.3461 0.039,1.7021 0.137,3.2323 0.205,4.3428 0.033,0.5288 0.062,0.9717 0.085,1.322 0.001,0.1605 0.014,0.3207 0.039,0.4792 0.026,-0.1594 0.035,-0.3212 0.026,-0.4825 0,-0.3107 0,-0.7601 -0.029,-1.322 -0.042,-1.1402 -0.098,-2.6605 -0.156,-4.3395 -0.059,-1.6789 -0.065,-3.229 -0.062,-4.3427 0,-0.5288 0,-0.9717 0,-1.322 0.015,-0.1604 0.017,-0.3218 0.006,-0.4826 z"
     fill="#263238"
     id="path122" />
  <path
     d="m 163.08402,46.209047 c -0.121,0.2056 -0.211,0.4284 -0.267,0.661 -0.17,0.5536 -0.294,1.1208 -0.371,1.6955 -0.076,0.5738 -0.102,1.1533 -0.078,1.7318 -0.005,0.2409 0.023,0.4813 0.085,0.7139 0.052,0 0,-1.0939 0.163,-2.4226 0.162,-1.3286 0.517,-2.363 0.468,-2.3796 z"
     fill="#263238"
     id="path124" />
  <g
     opacity="0.3"
     id="g128"
     transform="translate(5.0000155,-9.899153)">
    <path
       opacity="0.3"
       d="m 169.367,103.849 c 1.627,1.444 3.004,2.955 4.667,4.399 -2.731,-0.367 -5.244,-1.89 -7.089,-3.86 -1.846,-1.97 -3.057,-4.369 -3.151,-7.02 z"
       fill="#000000"
       id="path126" />
  </g>
  <path
     d="m 184.15102,72.546747 c 0,0 -21.158,11.3659 -24.136,11.3692 -6.458,0 -17.116,-18.5675 -17.116,-18.5675 l 4.232,-4.3792 c 0,0 12.588,11.4849 13.558,11.4849 1.914,0 16.311,-9.135 16.311,-9.135 z"
     fill="#8d534d"
     id="path130" />
  <path
     d="m 147.34902,61.088247 c 0,0 -1.025,-4.4882 -1.722,-5.1988 -0.263,-0.2644 -0.631,-0.661 -0.993,-1.051 -0.342,-0.3736 -0.792,-0.6274 -1.285,-0.7248 -0.493,-0.0974 -1.004,-0.0334 -1.459,0.1828 l -0.569,0.2677 c 0,0 -1.198,-0.661 -1.647,-0.2545 -0.44,0.472 -0.839,0.9805 -1.195,1.5203 -0.565,0.0373 -1.113,0.2106 -1.598,0.5057 -0.287,0.1832 -0.554,0.3958 -0.798,0.6346 0,0 -1.097,0.2776 -1.445,1.0377 l -0.352,0.7602 c 0,0 -0.996,0.7073 -0.947,1.6194 0.049,0.9122 0.348,0.6082 0.348,0.6082 l 0.951,0.0495 c 0,0 5.485,3.6983 6.634,4.0024 0.618,0.1754 1.253,0.2774 1.894,0.3041 z"
     fill="#8d534d"
     id="path132" />
  <path
     d="m 133.43702,61.065147 c 0.115,-0.0276 0.233,-0.0387 0.351,-0.0331 0.345,0.0206 0.686,0.076 1.019,0.1653 v 0 c 0.697,0.4924 1.719,1.203 3.018,2.0524 0.651,0.4197 1.367,0.8824 2.177,1.322 0.209,0.1172 0.427,0.2167 0.651,0.2974 0.228,0.0728 0.463,0.1289 0.7,0.1884 0.475,0.119 0.977,0.2248 1.478,0.3305 l -0.052,-0.033 c 1.302,2.0623 2.786,4.4155 4.453,6.8347 1.475,2.1318 2.952,4.1082 4.407,5.8168 0.72,0.8593 1.439,1.6525 2.126,2.3664 0.652,0.6591 1.359,1.2595 2.113,1.7946 0.605,0.4624 1.249,0.8715 1.923,1.2229 0.514,0.259 1.063,0.4416 1.628,0.542 0.359,0.0658 0.727,0.0602 1.084,-0.0165 0.093,-0.0197 0.183,-0.0496 0.27,-0.0892 0.059,-0.0232 0.088,-0.0364 0.085,-0.0397 -0.46,0.1539 -0.952,0.1812 -1.426,0.0793 -0.557,-0.111 -1.097,-0.3013 -1.602,-0.5651 -0.665,-0.355 -1.299,-0.7674 -1.894,-1.2328 -0.743,-0.538 -1.44,-1.1383 -2.083,-1.7946 -0.681,-0.7238 -1.394,-1.5104 -2.11,-2.3697 -1.442,-1.7087 -2.913,-3.6851 -4.384,-5.8135 -1.664,-2.416 -3.155,-4.7658 -4.466,-6.8215 l -0.017,-0.0265 h -0.035 c -0.505,-0.0892 -0.996,-0.1917 -1.468,-0.3074 -0.235,-0.0594 -0.469,-0.1156 -0.691,-0.185 -0.215,-0.0759 -0.424,-0.1698 -0.625,-0.281 -0.8,-0.4296 -1.523,-0.8857 -2.174,-1.2988 -1.302,-0.8329 -2.34,-1.5302 -3.047,-2.0062 -0.339,-0.0842 -0.686,-0.1297 -1.035,-0.1355 -0.09,-3e-4 -0.179,0.0097 -0.267,0.0298 -0.036,-0.0051 -0.072,-0.0028 -0.107,0.0066 z"
     fill="#6f3730"
     id="path134" />
  <path
     d="m 138.47902,55.829947 c 0.183,-0.177 0.348,-0.3731 0.492,-0.5849 0.136,-0.1917 0.325,-0.39 0.524,-0.6247 0.097,-0.1233 0.226,-0.2169 0.372,-0.2705 0.147,-0.0537 0.305,-0.0653 0.458,-0.0335 0.326,0.0409 0.648,0.114 0.96,0.2181 0.255,0.0722 0.491,0.1996 0.693,0.3734 0.133,0.1324 0.274,0.255 0.423,0.3669 0.111,0.0727 0.179,0.1025 0.186,0.0925 0.006,-0.0099 -0.215,-0.185 -0.527,-0.5486 -0.205,-0.1997 -0.452,-0.348 -0.723,-0.4329 -0.321,-0.1179 -0.654,-0.1977 -0.993,-0.238 -0.179,-0.0374 -0.366,-0.0235 -0.538,0.0401 -0.173,0.0636 -0.324,0.1744 -0.438,0.3201 -0.192,0.2512 -0.384,0.466 -0.508,0.661 -0.151,0.205 -0.279,0.4267 -0.381,0.661 z"
     fill="#6f3730"
     id="path136" />
  <path
     d="m 137.81202,55.982047 c 0,0.0528 0.478,-0.0661 1.048,0.0231 0.569,0.0892 0.976,0.3305 1.006,0.2842 -0.28,-0.2421 -0.62,-0.3993 -0.984,-0.4537 -0.363,-0.0544 -0.734,-0.0036 -1.07,0.1464 z"
     fill="#6f3730"
     id="path138" />
  <path
     d="m 134.87602,57.717147 c 0.022,0.0165 0.123,-0.1487 0.367,-0.314 0.325,-0.205 0.703,-0.3063 1.084,-0.2908 0.388,0.024 0.771,0.0995 1.14,0.2247 0.153,0.0651 0.316,0.1052 0.481,0.119 -0.133,-0.103 -0.283,-0.1823 -0.442,-0.2346 -0.371,-0.1652 -0.768,-0.2604 -1.172,-0.281 -0.417,-0.0195 -0.827,0.1103 -1.159,0.3669 -0.251,0.2049 -0.316,0.4032 -0.299,0.4098 z"
     fill="#6f3730"
     id="path140" />
  <path
     d="m 134.10102,58.996247 c 0.026,0 0.062,-0.1025 0.182,-0.2116 0.165,-0.1375 0.373,-0.2082 0.586,-0.1983 0.225,0.0221 0.445,0.0812 0.651,0.1752 0.163,0.0661 0.267,0.1058 0.28,0.0826 0.013,-0.0231 -0.075,-0.0958 -0.228,-0.1917 -0.206,-0.1337 -0.44,-0.2153 -0.683,-0.2379 -0.127,-0.0077 -0.254,0.0141 -0.372,0.064 -0.117,0.0498 -0.222,0.1263 -0.305,0.2235 -0.14,0.1554 -0.127,0.2942 -0.111,0.2942 z"
     fill="#6f3730"
     id="path142" />
  <path
     d="m 160.15802,76.843247 c 0.049,0 0.088,-0.9915 0.215,-2.2012 0.127,-1.2096 0.28,-2.1912 0.231,-2.2011 -0.384,1.4329 -0.535,2.92 -0.446,4.4023 z"
     fill="#6f3730"
     id="path144" />
  <path
     d="m 144.15602,54.438547 c 0,0 0.133,0.0826 0.325,0.271 0.289,0.267 0.547,0.5652 0.772,0.8891 0.615,0.7998 0.911,2.1912 1.406,3.6355 0.212,0.661 0.413,1.2856 0.602,1.8607 v 0.0198 0.0165 c 0.778,0.7139 1.446,1.322 1.924,1.7451 l 0.579,0.509 c 0.065,0.0634 0.137,0.1179 0.215,0.1619 -0.053,-0.0729 -0.113,-0.1404 -0.179,-0.2016 l -0.53,-0.5255 c -0.459,-0.4462 -1.11,-1.0675 -1.882,-1.7913 l 0.023,0.033 c -0.182,-0.5783 -0.384,-1.2063 -0.592,-1.864 -0.235,-0.7337 -0.463,-1.431 -0.668,-2.0722 -0.178,-0.5745 -0.448,-1.1151 -0.8,-1.5996 -0.596,-0.8263 -1.182,-1.1237 -1.195,-1.0874 z"
     fill="#6f3730"
     id="path146" />
  <path
     d="m 193.29802,67.589147 -14.84,9.6936 -9.186,-10.5958 c 0,0 14.04,-14.4198 16.865,-13.7654 2.825,0.6544 10.208,1.874 7.161,14.6676 z"
     fill="#db24b7"
     id="path148" />
  <path
     d="m 183.00602,55.889447 c -0.029,0.004 -0.057,0.0106 -0.085,0.0199 -0.082,0.0194 -0.16,0.0494 -0.234,0.0892 -0.291,0.1409 -0.572,0.3021 -0.84,0.4825 -0.71,0.4627 -1.709,1.1898 -2.93,2.1417 -2.461,1.9037 -5.839,4.6699 -9.697,7.975 l -0.065,0.0528 0.055,0.0628 4.737,5.5723 4.28,5.0269 0.039,0.0463 0.059,-0.0265 c 2.148,-1.123 4.23,-2.3711 6.237,-3.7379 0.914,-0.6115 1.767,-1.2064 2.555,-1.755 0.788,-0.5486 1.565,-0.9915 2.259,-1.398 0.693,-0.4065 1.302,-0.7965 1.826,-1.1733 0.439,-0.3187 0.851,-0.6747 1.23,-1.0642 0.153,-0.1587 0.287,-0.3041 0.394,-0.4396 0.094,-0.1045 0.181,-0.2149 0.261,-0.3305 l 0.153,-0.2148 c 0.032,-0.0496 0.048,-0.076 0.045,-0.0793 -0.022,0.021 -0.041,0.0442 -0.058,0.0694 l -0.163,0.2082 c -0.065,0.0925 -0.16,0.2016 -0.27,0.3305 -0.111,0.1289 -0.244,0.271 -0.401,0.4263 -0.385,0.3792 -0.8,0.7263 -1.24,1.0378 -0.514,0.3669 -1.133,0.7436 -1.829,1.1502 -0.697,0.4065 -1.478,0.8394 -2.279,1.3815 -0.801,0.542 -1.647,1.1369 -2.562,1.7417 -2.008,1.353 -4.089,2.591 -6.233,3.7082 l 0.098,0.0198 -4.278,-5.0302 -4.742,-5.5656 v 0.1157 c 3.85,-3.305 7.213,-6.1077 9.648,-8.0312 1.217,-0.9618 2.203,-1.7021 2.903,-2.178 0.266,-0.1833 0.541,-0.3521 0.824,-0.5057 0.189,-0.1024 0.306,-0.1156 0.303,-0.1289 z"
     fill="#263238"
     id="path150" />
  <path
     d="m 187.71602,54.967347 c 0.497,0.0895 0.99,0.2076 1.474,0.3537 1.162,0.3804 2.201,1.0728 3.006,2.0037 0.806,0.9309 1.349,2.0657 1.571,3.2843 0.08,0.5077 0.131,1.0197 0.153,1.5335 0.031,-0.1364 0.046,-0.2764 0.042,-0.4164 0.01,-0.3807 -0.016,-0.7614 -0.078,-1.137 -0.193,-1.254 -0.734,-2.4263 -1.559,-3.3802 -0.824,-0.9538 -1.899,-1.6499 -3.099,-2.0069 -0.359,-0.1105 -0.727,-0.1858 -1.1,-0.2248 -0.136,-0.0192 -0.274,-0.0226 -0.41,-0.0099 z"
     fill="#263238"
     id="path152" />
  <path
     d="m 183.73102,35.999947 c 1.003,-2.0359 1.999,-4.0916 2.64,-6.2795 0.642,-2.1879 0.918,-4.5179 0.456,-6.7455 -0.072,-0.3305 -0.752,-2.644 -1.094,-2.644 -0.24,0 0.079,2.0821 -0.074,2.2771 -1.452,1.8376 -2.123,4.2106 -2.279,6.5605 -0.132,2.2855 -0.014,4.5789 0.351,6.838"
     fill="#263238"
     id="path154" />
  <path
     d="m 169.44802,46.595747 c 0.218,-1.593 0.384,-2.8522 0.371,-2.8522 -0.013,0 -5.293,-1.3715 -4.85,-6.8347 0.215,-2.644 1.094,-8.0312 1.953,-12.8895 0.437,-2.5264 1.794,-4.7934 3.802,-6.3505 2.008,-1.5571 4.519,-2.2904 7.034,-2.0542 l 0.518,0.0496 c 5.563,0.8725 7.939,6.1572 6.927,11.7757 l -2.93,19.7706 -4.45,3.9957 c -3.548,3.1861 -9.078,0.1488 -8.394,-4.627 z"
     fill="#8d534d"
     id="path156" />
  <path
     d="m 169.81902,43.743547 c 2.484,0.2332 4.982,-0.2612 7.197,-1.4244 0,0 -2.08,3.804 -7.395,2.796 z"
     fill="#6f3730"
     id="path158" />
  <path
     d="m 167.83702,28.616547 c -0.022,0.2008 0.034,0.4024 0.155,0.5625 0.122,0.1601 0.299,0.2665 0.496,0.2968 0.097,0.0174 0.196,0.0149 0.292,-0.0074 0.096,-0.0224 0.187,-0.0641 0.267,-0.1226 0.08,-0.0586 0.147,-0.1328 0.198,-0.2184 0.051,-0.0855 0.085,-0.1806 0.099,-0.2795 0.021,-0.2005 -0.034,-0.4016 -0.156,-0.5612 -0.121,-0.1596 -0.299,-0.2653 -0.495,-0.2948 -0.097,-0.0175 -0.196,-0.015 -0.292,0.0071 -0.096,0.0221 -0.186,0.0635 -0.266,0.1218 -0.08,0.0582 -0.147,0.132 -0.199,0.2172 -0.051,0.0851 -0.085,0.1799 -0.099,0.2785 z"
     fill="#263238"
     id="path160" />
  <path
     d="m 167.85302,26.372447 c 0.085,0.1124 0.706,-0.2677 1.533,-0.1884 0.827,0.0794 1.39,0.5619 1.491,0.466 0.049,-0.0396 -0.032,-0.2313 -0.277,-0.4527 -0.334,-0.2857 -0.746,-0.4599 -1.181,-0.4991 -0.43,-0.0437 -0.862,0.0536 -1.234,0.2776 -0.273,0.1719 -0.377,0.347 -0.332,0.3966 z"
     fill="#263238"
     id="path162" />
  <path
     d="m 175.51202,29.538647 c -0.022,0.2006 0.033,0.4022 0.155,0.562 0.122,0.1598 0.3,0.2652 0.496,0.294 0.097,0.0175 0.197,0.0151 0.293,-0.007 0.096,-0.0221 0.186,-0.0635 0.267,-0.1217 0.08,-0.0582 0.147,-0.132 0.199,-0.2172 0.051,-0.0852 0.086,-0.1799 0.101,-0.2787 0.02,-0.2032 -0.038,-0.4065 -0.163,-0.5668 -0.124,-0.1604 -0.305,-0.2653 -0.505,-0.2925 -0.096,-0.0151 -0.194,-0.0108 -0.288,0.0127 -0.094,0.0234 -0.183,0.0655 -0.261,0.1238 -0.079,0.0583 -0.145,0.1317 -0.195,0.2161 -0.05,0.0843 -0.084,0.1778 -0.099,0.2753 z"
     fill="#263238"
     id="path164" />
  <path
     d="m 175.90902,27.496147 c 0.088,0.1091 0.71,-0.271 1.534,-0.1884 0.823,0.0827 1.393,0.5586 1.49,0.466 0.049,-0.0429 -0.029,-0.2346 -0.276,-0.4561 -0.335,-0.2849 -0.747,-0.459 -1.182,-0.499 -0.429,-0.0421 -0.859,0.0552 -1.23,0.2776 -0.274,0.1719 -0.378,0.3503 -0.336,0.3999 z"
     fill="#263238"
     id="path166" />
  <path
     d="m 172.34202,33.653347 c 0,-0.0495 -0.495,-0.1883 -1.318,-0.3767 -0.209,-0.043 -0.404,-0.1058 -0.427,-0.2545 0.005,-0.2229 0.075,-0.4393 0.202,-0.6214 l 0.775,-1.5698 c 1.084,-2.2375 1.891,-4.085 1.803,-4.128 -0.088,-0.043 -1.042,1.7351 -2.126,3.966 -0.26,0.552 -0.511,1.0775 -0.752,1.5831 -0.155,0.2459 -0.221,0.5395 -0.185,0.8296 0.026,0.0762 0.069,0.1455 0.126,0.2027 0.056,0.0572 0.124,0.1008 0.199,0.1278 0.115,0.0419 0.234,0.0696 0.355,0.0826 0.824,0.152 1.341,0.2049 1.348,0.1586 z"
     fill="#263238"
     id="path168" />
  <path
     d="m 176.27402,24.095347 c 0.062,0.2379 0.895,0.2082 1.852,0.4197 0.957,0.2115 1.719,0.5585 1.865,0.3668 0.069,-0.0925 -0.048,-0.3305 -0.345,-0.5717 -0.396,-0.3117 -0.857,-0.5276 -1.348,-0.6312 -0.49,-0.1037 -0.998,-0.0924 -1.484,0.033 -0.358,0.1123 -0.563,0.2743 -0.54,0.3834 z"
     fill="#263238"
     id="path170" />
  <path
     d="m 168.45502,23.632647 c 0.127,0.2049 0.713,0.0628 1.4,0.119 0.687,0.0562 1.25,0.2478 1.403,0.0628 0.068,-0.0893 0,-0.2909 -0.241,-0.4958 -0.318,-0.2532 -0.706,-0.3998 -1.11,-0.4197 -0.402,-0.0336 -0.804,0.0624 -1.149,0.2743 -0.26,0.1586 -0.358,0.347 -0.303,0.4594 z"
     fill="#263238"
     id="path172" />
  <path
     d="m 184.39902,31.439047 c 0.097,-0.0331 3.798,-0.7535 3.33,2.9745 -0.469,3.728 -4.05,2.4788 -4.04,2.3697 0.01,-0.1091 0.71,-5.3442 0.71,-5.3442 z"
     fill="#8d534d"
     id="path174" />
  <path
     d="m 184.98502,35.510847 c 0.016,0 0.058,0.0528 0.159,0.1156 0.144,0.0849 0.314,0.1109 0.475,0.0728 0.404,-0.0959 0.811,-0.661 0.912,-1.3452 0.049,-0.3169 0.028,-0.641 -0.062,-0.9485 -0.02,-0.1206 -0.069,-0.2346 -0.141,-0.3323 -0.073,-0.0977 -0.167,-0.1765 -0.276,-0.2296 -0.071,-0.0299 -0.15,-0.0334 -0.223,-0.0099 -0.073,0.0236 -0.136,0.0728 -0.177,0.1388 -0.062,0.0992 -0.049,0.1752 -0.068,0.1785 -0.02,0.0033 -0.072,-0.0727 -0.023,-0.2214 0.033,-0.0896 0.095,-0.1653 0.176,-0.2149 0.111,-0.0625 0.241,-0.0802 0.364,-0.0495 0.146,0.0498 0.277,0.1367 0.381,0.2524 0.104,0.1157 0.176,0.2563 0.212,0.4086 0.115,0.3419 0.146,0.7072 0.091,1.0642 -0.117,0.7469 -0.583,1.4013 -1.133,1.4872 -0.102,0.0161 -0.206,0.0087 -0.304,-0.0217 -0.099,-0.0303 -0.19,-0.0827 -0.266,-0.1534 -0.104,-0.1025 -0.11,-0.1719 -0.097,-0.1917 z"
     fill="#6f3730"
     id="path176" />
  <path
     d="m 170.10902,18.172747 c -0.547,-0.4164 1.494,-2.1152 3.037,-2.5845 2.337,-0.7073 5.778,-0.8659 7.728,0 2.346,1.041 4.212,2.5547 5.133,4.9806 0.921,2.4259 1.028,5.1195 0.612,7.6842 -0.076,0.7937 -0.359,1.5525 -0.821,2.1978 -0.621,0.7502 -1.673,1.1336 -1.78,2.2705 -0.03,0.4187 -0.222,0.8082 -0.534,1.0841 -0.768,0.6279 -1.494,-0.1653 -1.78,-0.899 -0.609,-1.5666 -0.463,-3.305 -0.326,-4.9906 0.107,-1.1931 0.225,-2.4093 0.706,-3.5033 0.261,-0.5916 0.629,-1.1369 0.856,-1.745 0.136,-0.296 0.207,-0.6186 0.207,-0.9452 0,-0.3266 -0.071,-0.6493 -0.207,-0.9453 -0.072,-0.1242 -0.157,-0.2405 -0.253,-0.347 -0.45,-0.5232 -1.028,-0.9156 -1.676,-1.1368 -0.649,-0.2213 -1.343,-0.2636 -2.012,-0.1224 -2.162,0.4561 -5.827,1.0741 -6.651,0.2347 -1.184,-1.2031 -1.412,-1.9136 -1.412,-1.9136 z"
     fill="#263238"
     id="path178" />
  <path
     d="m 170.94902,36.122247 c -0.03,0.0595 0.107,0.2115 0.407,0.3305 0.394,0.1412 0.82,0.1652 1.228,0.0692 0.408,-0.096 0.78,-0.3081 1.073,-0.6112 0.215,-0.2413 0.273,-0.4396 0.221,-0.4792 -0.114,-0.0893 -0.612,0.4131 -1.409,0.5882 -0.798,0.1752 -1.455,-0.0297 -1.52,0.1025 z"
     fill="#263238"
     id="path180" />
  <path
     d="m 220.23702,120.54285 c -8.245,-5.949 -32.909,-4.841 -40.542,-3.896 -7.633,0.945 -15.319,2.416 -22.962,1.537 -7.089,-0.817 -13.997,-3.636 -21.112,-3.266 -6.488,0.331 -12.793,3.338 -19.248,2.598 -3.759,-0.43 -7.259,-2.105 -10.888,-3.196 -6.871604,-2.069 -21.096404,0.704 -26.571504,4.201"
     fill="#ffffff"
     id="path182" />
  <path
     d="m 78.913816,118.51885 0.3255,-0.178 c 0.2181,-0.116 0.5306,-0.314 0.9603,-0.525 1.2593,-0.615 2.559,-1.141 3.8898,-1.574 2.1066,-0.687 4.2538,-1.239 6.4289,-1.652 2.8767,-0.56 5.7951,-0.871 8.7237,-0.929 1.700104,-0.019 3.398204,0.126 5.071404,0.433 0.4297,0.106 0.8656,0.198 1.3016,0.331 0.437,0.132 0.866,0.274 1.303,0.423 0.875,0.297 1.761,0.618 2.665,0.938 1.857,0.712 3.769,1.265 5.716,1.653 2.083,0.34 4.204,0.361 6.293,0.063 4.29,-0.519 8.616,-2.036 13.284,-2.44 1.175,-0.094 2.354,-0.11 3.531,-0.046 1.185,0.07 2.38,0.195 3.581,0.38 2.389,0.367 4.785,0.926 7.21,1.474 2.425,0.549 4.834,1.071 7.243,1.369 2.376,0.276 4.771,0.366 7.161,0.267 4.694,-0.168 9.176,-0.856 13.444,-1.428 4.037,-0.568 8.102,-0.909 12.177,-1.021 3.825,-0.132 7.395,-0.109 10.647,0.027 3.252,0.135 6.185,0.403 8.75,0.77 2.192,0.3 4.36,0.758 6.487,1.371 1.345,0.387 2.647,0.912 3.887,1.567 0.322,0.17 0.635,0.356 0.938,0.558 0.208,0.136 0.325,0.199 0.325,0.199 l -0.325,-0.212 c -0.299,-0.21 -0.61,-0.402 -0.931,-0.575 -1.237,-0.674 -2.541,-1.212 -3.89,-1.606 -2.127,-0.628 -4.297,-1.097 -6.491,-1.405 -2.562,-0.373 -5.501,-0.661 -8.759,-0.796 -3.259,-0.136 -6.836,-0.172 -10.658,-0.046 -4.078,0.105 -8.148,0.442 -12.19,1.008 -4.271,0.565 -8.75,1.249 -13.431,1.414 -2.378,0.095 -4.76,0.005 -7.125,-0.271 -2.399,-0.294 -4.801,-0.813 -7.226,-1.365 -2.425,-0.552 -4.821,-1.107 -7.22,-1.474 -1.198,-0.185 -2.392,-0.313 -3.581,-0.383 -1.183,-0.062 -2.37,-0.044 -3.551,0.053 -4.697,0.406 -9.02,1.926 -13.291,2.445 -2.073,0.299 -4.178,0.281 -6.246,-0.053 -1.94,-0.382 -3.845,-0.927 -5.697,-1.629 -0.905,-0.33 -1.79,-0.638 -2.669,-0.935 -0.439,-0.146 -0.876,-0.288 -1.302,-0.42 -0.426,-0.132 -0.8788,-0.218 -1.302,-0.331 -1.6833,-0.303 -3.3912,-0.444 -5.100704,-0.419 -2.9451,0.068 -5.879,0.393 -8.7693,0.971 -2.1754,0.412 -4.3227,0.964 -6.4288,1.653 -1.3311,0.441 -2.6298,0.976 -3.8866,1.603 -0.8464,0.469 -1.2728,0.743 -1.2728,0.743 z"
     fill="#263238"
     id="path184" />
  <path
     d="m 49.507216,117.45485 c -2.1907,-2.224 -5.6281,-2.604 -8.7009,-2.221 -3.0728,0.384 -6.0773,1.392 -9.1761,1.448 -3.0501,0.053 -6.0285,-0.816 -9.0362,-1.339 -3.0077,-0.522 -6.8357,-0.178 -8.95805,2.112"
     fill="#ffffff"
     id="path186" />
  <path
     d="m 13.626216,117.45485 0.07487,-0.063 0.20833,-0.191 0.15298,-0.142 0.20181,-0.152 0.23112,-0.179 c 0.08463,-0.063 0.18228,-0.119 0.27994,-0.185 1.14015,-0.693 2.41755,-1.121 3.74015,-1.253 0.91,-0.104 1.828,-0.119 2.7408,-0.042 1.0475,0.11 2.0877,0.283 3.1151,0.518 2.1809,0.44 4.593,1.025 7.1905,0.992 2.5976,-0.033 4.9901,-0.707 7.1613,-1.117 1.0313,-0.215 2.0751,-0.363 3.1249,-0.443 0.9137,-0.066 1.8316,-0.041 2.7408,0.073 1.3235,0.14 2.5999,0.577 3.7368,1.279 l 0.28,0.178 0.2311,0.179 c 0.1251,0.089 0.2447,0.186 0.358,0.29 l 0.2149,0.189 0.0748,0.059 c 0,0 -0.0195,-0.026 -0.0651,-0.072 l -0.2018,-0.202 c -0.1091,-0.109 -0.2254,-0.211 -0.3483,-0.304 l -0.2311,-0.185 -0.2767,-0.192 c -1.1313,-0.722 -2.4087,-1.177 -3.7368,-1.328 -0.9159,-0.124 -1.8416,-0.156 -2.7636,-0.096 -1.0569,0.075 -2.1082,0.218 -3.1477,0.426 -2.1907,0.403 -4.5799,1.058 -7.1612,1.104 -2.5813,0.046 -4.9738,-0.555 -7.1613,-0.992 -1.0326,-0.233 -2.0784,-0.402 -3.1314,-0.505 -0.9222,-0.071 -1.849,-0.049 -2.7668,0.066 -1.3374,0.142 -2.6248,0.595 -3.76293,1.322 -0.09765,0.069 -0.1953,0.129 -0.27668,0.192 l -0.23112,0.188 -0.19529,0.162 -0.14975,0.149 -0.19855,0.205 c -0.03255,0.046 -0.05533,0.069 -0.05208,0.072 z"
     fill="#263238"
     id="path188" />
</svg>
